<?xml version="1.0" encoding="UTF-8" standalone="no"?><svg xmlns="http://www.w3.org/2000/svg" xmlns:xlink="http://www.w3.org/1999/xlink" contentStyleType="text/css" height="426px" preserveAspectRatio="none" style="width:726px;height:426px;background:#FFFFFF;" version="1.1" viewBox="0 0 726 426" width="726px" zoomAndPan="magnify"><defs/><g><rect fill="none" height="26.2969" id="_title" style="stroke:none;stroke-width:1.0;" width="254" x="229.25" y="5"/><text fill="#000000" font-family="sans-serif" font-size="14" font-weight="bold" lengthAdjust="spacing" textLength="244" x="234.25" y="22.9951">Vue composant et connecteur</text><!--MD5=[0aac872f208ab6f5f7887aae079fb447]
entity c1--><g id="elem_c1"><rect fill="#F1F1F1" height="46.2969" rx="2.5" ry="2.5" style="stroke:#181818;stroke-width:0.5;" width="94" x="166" y="44.2969"/><rect fill="#F1F1F1" height="10" style="stroke:#181818;stroke-width:0.5;" width="15" x="240" y="49.2969"/><rect fill="#F1F1F1" height="2" style="stroke:#181818;stroke-width:0.5;" width="4" x="238" y="51.2969"/><rect fill="#F1F1F1" height="2" style="stroke:#181818;stroke-width:0.5;" width="4" x="238" y="55.2969"/><text fill="#000000" font-family="sans-serif" font-size="14" lengthAdjust="spacing" textLength="54" x="181" y="77.292">client 1</text></g><!--MD5=[3d2111c8a0a2d14b8769ddc11704380e]
entity c2--><g id="elem_c2"><rect fill="#F1F1F1" height="46.2969" rx="2.5" ry="2.5" style="stroke:#181818;stroke-width:0.5;" width="93" x="295.5" y="44.2969"/><rect fill="#F1F1F1" height="10" style="stroke:#181818;stroke-width:0.5;" width="15" x="368.5" y="49.2969"/><rect fill="#F1F1F1" height="2" style="stroke:#181818;stroke-width:0.5;" width="4" x="366.5" y="51.2969"/><rect fill="#F1F1F1" height="2" style="stroke:#181818;stroke-width:0.5;" width="4" x="366.5" y="55.2969"/><text fill="#000000" font-family="sans-serif" font-size="14" lengthAdjust="spacing" textLength="53" x="310.5" y="77.292">client 2</text></g><!--MD5=[6186517b0f979c270c1f201d839d1352]
entity c3--><g id="elem_c3"><rect fill="#F1F1F1" height="46.2969" rx="2.5" ry="2.5" style="stroke:#181818;stroke-width:0.5;" width="136" x="424" y="44.2969"/><rect fill="#F1F1F1" height="10" style="stroke:#181818;stroke-width:0.5;" width="15" x="540" y="49.2969"/><rect fill="#F1F1F1" height="2" style="stroke:#181818;stroke-width:0.5;" width="4" x="538" y="51.2969"/><rect fill="#F1F1F1" height="2" style="stroke:#181818;stroke-width:0.5;" width="4" x="538" y="55.2969"/><text fill="#000000" font-family="sans-serif" font-size="14" lengthAdjust="spacing" textLength="96" x="439" y="77.292">client ...3000</text></g><!--MD5=[b77750067e160c5e66c823a87f4eba16]
entity LB--><g id="elem_LB"><rect fill="#F1F1F1" height="46.2969" rx="2.5" ry="2.5" style="stroke:#181818;stroke-width:0.5;" width="132" x="276" y="150.2969"/><rect fill="#F1F1F1" height="10" style="stroke:#181818;stroke-width:0.5;" width="15" x="388" y="155.2969"/><rect fill="#F1F1F1" height="2" style="stroke:#181818;stroke-width:0.5;" width="4" x="386" y="157.2969"/><rect fill="#F1F1F1" height="2" style="stroke:#181818;stroke-width:0.5;" width="4" x="386" y="161.2969"/><text fill="#000000" font-family="sans-serif" font-size="14" lengthAdjust="spacing" textLength="92" x="291" y="183.292">loadBalancer</text></g><!--MD5=[1f0e52a1457a111061ef2aae8e5ec9c5]
entity s1--><g id="elem_s1"><rect fill="#F1F1F1" height="46.2969" rx="2.5" ry="2.5" style="stroke:#181818;stroke-width:0.5;" width="106" x="7" y="262.2969"/><rect fill="#F1F1F1" height="10" style="stroke:#181818;stroke-width:0.5;" width="15" x="93" y="267.2969"/><rect fill="#F1F1F1" height="2" style="stroke:#181818;stroke-width:0.5;" width="4" x="91" y="269.2969"/><rect fill="#F1F1F1" height="2" style="stroke:#181818;stroke-width:0.5;" width="4" x="91" y="273.2969"/><text fill="#000000" font-family="sans-serif" font-size="14" lengthAdjust="spacing" textLength="66" x="22" y="295.292">Service 1</text></g><!--MD5=[dc66687c89eac77dba91b7320324a287]
entity s2--><g id="elem_s2"><rect fill="#F1F1F1" height="46.2969" rx="2.5" ry="2.5" style="stroke:#181818;stroke-width:0.5;" width="105" x="148.5" y="262.2969"/><rect fill="#F1F1F1" height="10" style="stroke:#181818;stroke-width:0.5;" width="15" x="233.5" y="267.2969"/><rect fill="#F1F1F1" height="2" style="stroke:#181818;stroke-width:0.5;" width="4" x="231.5" y="269.2969"/><rect fill="#F1F1F1" height="2" style="stroke:#181818;stroke-width:0.5;" width="4" x="231.5" y="273.2969"/><text fill="#000000" font-family="sans-serif" font-size="14" lengthAdjust="spacing" textLength="65" x="163.5" y="295.292">Service 2</text></g><!--MD5=[b165ca7cce796f881c879adda4a6bef9]
entity s3--><g id="elem_s3"><rect fill="#F1F1F1" height="46.2969" rx="2.5" ry="2.5" style="stroke:#181818;stroke-width:0.5;" width="106" x="289" y="262.2969"/><rect fill="#F1F1F1" height="10" style="stroke:#181818;stroke-width:0.5;" width="15" x="375" y="267.2969"/><rect fill="#F1F1F1" height="2" style="stroke:#181818;stroke-width:0.5;" width="4" x="373" y="269.2969"/><rect fill="#F1F1F1" height="2" style="stroke:#181818;stroke-width:0.5;" width="4" x="373" y="273.2969"/><text fill="#000000" font-family="sans-serif" font-size="14" lengthAdjust="spacing" textLength="66" x="304" y="295.292">Service 3</text></g><!--MD5=[c97c613dbfcfa94bb180f2ce6d0b4cfd]
entity BD--><g id="elem_BD"><rect fill="#F1F1F1" height="46.2969" rx="2.5" ry="2.5" style="stroke:#181818;stroke-width:0.5;" width="154" x="124" y="374.2969"/><rect fill="#F1F1F1" height="10" style="stroke:#181818;stroke-width:0.5;" width="15" x="258" y="379.2969"/><rect fill="#F1F1F1" height="2" style="stroke:#181818;stroke-width:0.5;" width="4" x="256" y="381.2969"/><rect fill="#F1F1F1" height="2" style="stroke:#181818;stroke-width:0.5;" width="4" x="256" y="385.2969"/><text fill="#000000" font-family="sans-serif" font-size="14" lengthAdjust="spacing" textLength="114" x="139" y="407.292">Base de donnée</text></g><!--MD5=[36e7cd95dd69b8fc9c44ee72248e17a6]
entity O--><g id="elem_O"><rect fill="#F1F1F1" height="46.2969" rx="2.5" ry="2.5" style="stroke:#181818;stroke-width:0.5;" width="141" x="519.5" y="150.2969"/><rect fill="#F1F1F1" height="10" style="stroke:#181818;stroke-width:0.5;" width="15" x="640.5" y="155.2969"/><rect fill="#F1F1F1" height="2" style="stroke:#181818;stroke-width:0.5;" width="4" x="638.5" y="157.2969"/><rect fill="#F1F1F1" height="2" style="stroke:#181818;stroke-width:0.5;" width="4" x="638.5" y="161.2969"/><text fill="#000000" font-family="sans-serif" font-size="14" lengthAdjust="spacing" textLength="101" x="534.5" y="183.292">Orchestrateur</text></g><!--MD5=[4e99e9a75cf02954a1ec2fa95120180e]
entity IOrchestrateur--><g id="elem_IOrchestrateur"><ellipse cx="667" cy="285.2969" fill="#F1F1F1" rx="8" ry="8" style="stroke:#181818;stroke-width:0.5;"/><text fill="#000000" font-family="sans-serif" font-size="14" lengthAdjust="spacing" textLength="105" x="614.5" y="315.292">IOrchestrateur</text></g><!--MD5=[297b6268d2a728bd33432f92ed8dcf45]
entity ILoadBalancerCtrl--><g id="elem_ILoadBalancerCtrl"><ellipse cx="501" cy="285.2969" fill="#F1F1F1" rx="8" ry="8" style="stroke:#181818;stroke-width:0.5;"/><text fill="#000000" font-family="sans-serif" font-size="14" lengthAdjust="spacing" textLength="127" x="437.5" y="315.292">ILoadBalancerCtrl</text></g><!--MD5=[73c3934380c3003417a0892da83914bb]
link O to IOrchestrateur--><g id="link_O_IOrchestrateur"><path d="M605.582,196.5569 C618.367,214.8219 636.454,240.6599 649.689,259.5669 " fill="none" id="O-to-IOrchestrateur" style="stroke:#181818;stroke-width:1.0;stroke-dasharray:7.0,7.0;"/><polygon fill="none" points="655.564,255.7539,661.299,276.1529,644.095,263.7819,655.564,255.7539" style="stroke:#181818;stroke-width:1.0;"/></g><!--MD5=[24f948677daee4a63dfa0f77e00eca1b]
link LB to ILoadBalancerCtrl--><g id="link_LB_ILoadBalancerCtrl"><path d="M374.176,196.5569 C403.822,217.0669 447.272,247.1269 474.839,266.1979 " fill="none" id="LB-to-ILoadBalancerCtrl" style="stroke:#181818;stroke-width:1.0;stroke-dasharray:7.0,7.0;"/><polygon fill="none" points="479.215,260.7139,491.68,277.8489,471.25,272.2269,479.215,260.7139" style="stroke:#181818;stroke-width:1.0;"/></g><!--MD5=[1a3d26ff08f0573711154b42b6559b67]
link O to ILoadBalancerCtrl--><g id="link_O_ILoadBalancerCtrl"><path d="M571.99,196.5569 C553.634,219.2439 525.825,253.6149 511.051,271.8739 " fill="none" id="O-to-ILoadBalancerCtrl" style="stroke:#181818;stroke-width:1.0;stroke-dasharray:7.0,7.0;"/><polygon fill="#181818" points="507.59,276.1529,516.3601,271.6711,510.7345,272.2655,510.1402,266.6399,507.59,276.1529" style="stroke:#181818;stroke-width:1.0;"/></g><!--MD5=[9e30497fa77e54b0f749fe658d38c113]
link LB to IOrchestrateur--><g id="link_LB_IOrchestrateur"><path d="M408.231,195.6099 C458.288,211.8599 528.63,234.9979 590,256.2969 C611.973,263.9229 637.291,273.2309 652.716,278.9599 " fill="none" id="LB-to-IOrchestrateur" style="stroke:#181818;stroke-width:1.0;stroke-dasharray:7.0,7.0;"/><polygon fill="#181818" points="657.549,280.7589,650.5099,273.8704,652.8631,279.0145,647.719,281.3678,657.549,280.7589" style="stroke:#181818;stroke-width:1.0;"/></g><!--MD5=[6ce68fdd5fd36f6cad5530bd6b768d86]
link c1 to LB--><g id="link_c1_LB"><path d="M240.358,90.3529 C260.967,106.9679 289.25,129.7699 310.75,147.1029 " fill="none" id="c1-to-LB" style="stroke:#181818;stroke-width:1.0;"/><polygon fill="#181818" points="314.682,150.2729,310.1862,141.51,310.7895,147.1346,305.1649,147.738,314.682,150.2729" style="stroke:#181818;stroke-width:1.0;"/></g><!--MD5=[1ca993c65f3ba3e7985f327ee8476b41]
link c2 to LB--><g id="link_c2_LB"><path d="M342,90.3529 C342,106.3469 342,128.0749 342,145.1389 " fill="none" id="c2-to-LB" style="stroke:#181818;stroke-width:1.0;"/><polygon fill="#181818" points="342,150.2729,346,141.2729,342,145.2729,338,141.2729,342,150.2729" style="stroke:#181818;stroke-width:1.0;"/></g><!--MD5=[71bd21357d0ce6a7f1e7b3807eab4fc4]
link c3 to LB--><g id="link_c3_LB"><path d="M460.189,90.3529 C436.125,107.0369 403.064,129.9589 378.027,147.3179 " fill="none" id="c3-to-LB" style="stroke:#181818;stroke-width:1.0;"/><polygon fill="#181818" points="373.765,150.2729,383.4403,148.4321,377.874,147.424,378.8821,141.8577,373.765,150.2729" style="stroke:#181818;stroke-width:1.0;"/></g><!--MD5=[c4e4fc7140ed57142ad896d1fd415332]
link LB to s1--><g id="link_LB_s1"><path d="M285.103,196.3199 C242.62,212.7859 183.15,235.8809 131,256.2969 C126.741,257.9639 122.34,259.6909 117.913,261.4309 " fill="none" id="LB-to-s1" style="stroke:#181818;stroke-width:1.0;"/><polygon fill="#181818" points="113.104,263.3209,122.9434,263.7528,117.7577,261.4925,120.018,256.3069,113.104,263.3209" style="stroke:#181818;stroke-width:1.0;"/></g><!--MD5=[a078b10758c14a7fffa36adb72310aed]
link LB to s2--><g id="link_LB_s2"><path d="M313.467,196.5569 C290.341,214.5979 257.745,240.0279 233.594,258.8689 " fill="none" id="LB-to-s2" style="stroke:#181818;stroke-width:1.0;"/><polygon fill="#181818" points="229.491,262.0699,239.0471,259.6865,233.4328,258.9938,234.1255,253.3796,229.491,262.0699" style="stroke:#181818;stroke-width:1.0;"/></g><!--MD5=[ec85ff0a1ad29516d9fc88f6f4e8e54c]
link LB to s3--><g id="link_LB_s3"><path d="M342,196.5569 C342,214.0019 342,238.3549 342,256.9789 " fill="none" id="LB-to-s3" style="stroke:#181818;stroke-width:1.0;"/><polygon fill="#181818" points="342,262.0699,346,253.0699,342,257.0699,338,253.0699,342,262.0699" style="stroke:#181818;stroke-width:1.0;"/></g><!--MD5=[99c7893fe2c5bbbae9e4e5e7809eb73d]
link s1 to BD--><g id="link_s1_BD"><path d="M88.5335,308.5569 C111.659,326.5979 144.255,352.0279 168.406,370.8688 " fill="none" id="s1-to-BD" style="stroke:#181818;stroke-width:1.0;"/><polygon fill="#181818" points="172.509,374.0699,167.8736,365.38,168.5668,370.9943,162.9526,371.6875,172.509,374.0699" style="stroke:#181818;stroke-width:1.0;"/></g><!--MD5=[a65c0fab7f664911b50b6d46f2ef06a5]
link s2 to BD--><g id="link_s2_BD"><path d="M201,308.5569 C201,326.0015 201,350.3546 201,368.9792 " fill="none" id="s2-to-BD" style="stroke:#181818;stroke-width:1.0;"/><polygon fill="#181818" points="201,374.0699,205,365.0699,201,369.0699,197,365.0699,201,374.0699" style="stroke:#181818;stroke-width:1.0;"/></g><!--MD5=[2a1e3d4b125d953978e02bc3e9f4ea61]
link s3 to BD--><g id="link_s3_BD"><path d="M313.467,308.5569 C290.341,326.5979 257.745,352.0279 233.594,370.8688 " fill="none" id="s3-to-BD" style="stroke:#181818;stroke-width:1.0;"/><polygon fill="#181818" points="229.491,374.0699,239.0474,371.6875,233.4332,370.9943,234.1264,365.38,229.491,374.0699" style="stroke:#181818;stroke-width:1.0;"/></g><!--MD5=[37e48101d4382059798bd92007efdcef]
@startuml
title Vue composant et connecteur
[client 1] as c1
[client 2] as c2
[client ...3000] as c3
[loadBalancer] as LB
[Service 1] as s1
[Service 2] as s2
[Service 3] as s3
[Base de donnée] as BD
[Orchestrateur] as O
O ..|> IOrchestrateur

LB ..|> ILoadBalancerCtrl
O ..> ILoadBalancerCtrl
LB ..> IOrchestrateur

c1 - -> LB
c2 - -> LB
c3 - -> LB
LB - -> s1
LB - -> s2
LB - -> s3
s1 - -> BD
s2 - -> BD 
s3 - -> BD
@enduml

PlantUML version 1.2022.10beta1(Unknown compile time)
(GPL source distribution)
Java Runtime: Java(TM) SE Runtime Environment
JVM: Java HotSpot(TM) 64-Bit Server VM
Default Encoding: UTF-8
Language: en
Country: US
--></g></svg>