<?xml version="1.0" encoding="UTF-8" standalone="no"?><svg xmlns="http://www.w3.org/2000/svg" xmlns:xlink="http://www.w3.org/1999/xlink" contentStyleType="text/css" height="407px" preserveAspectRatio="none" style="width:829px;height:407px;background:#FFFFFF;" version="1.1" viewBox="0 0 829 407" width="829px" zoomAndPan="magnify"><defs/><g><!--MD5=[40046ef14a1cf630dc5fb444525ef4ac]
entity AppClient--><g id="elem_AppClient"><ellipse cx="42.5" cy="227.5" fill="#F1F1F1" rx="8" ry="8" style="stroke:#181818;stroke-width:0.5;"/><path d="M42.5,235.5 L42.5,262.5 M29.5,243.5 L55.5,243.5 M42.5,262.5 L29.5,277.5 M42.5,262.5 L55.5,277.5 " fill="none" style="stroke:#181818;stroke-width:0.5;"/><text fill="#000000" font-family="sans-serif" font-size="14" lengthAdjust="spacing" textLength="73" x="6" y="291.9951">AppClient</text></g><!--MD5=[1a416c3156d55d9446032ebbee093b81]
entity DS--><g id="elem_DS"><rect fill="#F1F1F1" height="46.2969" rx="2.5" ry="2.5" style="stroke:#181818;stroke-width:0.5;" width="154" x="114.5" y="234"/><rect fill="#F1F1F1" height="10" style="stroke:#181818;stroke-width:0.5;" width="15" x="248.5" y="239"/><rect fill="#F1F1F1" height="2" style="stroke:#181818;stroke-width:0.5;" width="4" x="246.5" y="241"/><rect fill="#F1F1F1" height="2" style="stroke:#181818;stroke-width:0.5;" width="4" x="246.5" y="245"/><text fill="#000000" font-family="sans-serif" font-size="14" lengthAdjust="spacing" textLength="114" x="129.5" y="266.9951">DataWebServer</text></g><!--MD5=[0aac872f208ab6f5f7887aae079fb447]
entity c1--><g id="elem_c1"><rect fill="#F1F1F1" height="46.2969" rx="2.5" ry="2.5" style="stroke:#181818;stroke-width:0.5;" width="111" x="343" y="7"/><rect fill="#F1F1F1" height="10" style="stroke:#181818;stroke-width:0.5;" width="15" x="434" y="12"/><rect fill="#F1F1F1" height="2" style="stroke:#181818;stroke-width:0.5;" width="4" x="432" y="14"/><rect fill="#F1F1F1" height="2" style="stroke:#181818;stroke-width:0.5;" width="4" x="432" y="18"/><text fill="#000000" font-family="sans-serif" font-size="14" lengthAdjust="spacing" textLength="71" x="358" y="39.9951">Capteur 1</text></g><!--MD5=[3d2111c8a0a2d14b8769ddc11704380e]
entity c2--><g id="elem_c2"><rect fill="#F1F1F1" height="46.2969" rx="2.5" ry="2.5" style="stroke:#181818;stroke-width:0.5;" width="110" x="489.5" y="7"/><rect fill="#F1F1F1" height="10" style="stroke:#181818;stroke-width:0.5;" width="15" x="579.5" y="12"/><rect fill="#F1F1F1" height="2" style="stroke:#181818;stroke-width:0.5;" width="4" x="577.5" y="14"/><rect fill="#F1F1F1" height="2" style="stroke:#181818;stroke-width:0.5;" width="4" x="577.5" y="18"/><text fill="#000000" font-family="sans-serif" font-size="14" lengthAdjust="spacing" textLength="70" x="504.5" y="39.9951">Capteur 2</text></g><!--MD5=[6186517b0f979c270c1f201d839d1352]
entity c3--><g id="elem_c3"><rect fill="#F1F1F1" height="46.2969" rx="2.5" ry="2.5" style="stroke:#181818;stroke-width:0.5;" width="111" x="635" y="7"/><rect fill="#F1F1F1" height="10" style="stroke:#181818;stroke-width:0.5;" width="15" x="726" y="12"/><rect fill="#F1F1F1" height="2" style="stroke:#181818;stroke-width:0.5;" width="4" x="724" y="14"/><rect fill="#F1F1F1" height="2" style="stroke:#181818;stroke-width:0.5;" width="4" x="724" y="18"/><text fill="#000000" font-family="sans-serif" font-size="14" lengthAdjust="spacing" textLength="71" x="650" y="39.9951">Capteur 3</text></g><!--MD5=[1f0e52a1457a111061ef2aae8e5ec9c5]
entity s1--><g id="elem_s1"><rect fill="#F1F1F1" height="46.2969" rx="2.5" ry="2.5" style="stroke:#181818;stroke-width:0.5;" width="137" x="648" y="234"/><rect fill="#F1F1F1" height="10" style="stroke:#181818;stroke-width:0.5;" width="15" x="765" y="239"/><rect fill="#F1F1F1" height="2" style="stroke:#181818;stroke-width:0.5;" width="4" x="763" y="241"/><rect fill="#F1F1F1" height="2" style="stroke:#181818;stroke-width:0.5;" width="4" x="763" y="245"/><text fill="#000000" font-family="sans-serif" font-size="14" lengthAdjust="spacing" textLength="97" x="663" y="266.9951">Sommateur 1</text></g><!--MD5=[dc66687c89eac77dba91b7320324a287]
entity s2--><g id="elem_s2"><rect fill="#F1F1F1" height="46.2969" rx="2.5" ry="2.5" style="stroke:#181818;stroke-width:0.5;" width="136" x="476.5" y="234"/><rect fill="#F1F1F1" height="10" style="stroke:#181818;stroke-width:0.5;" width="15" x="592.5" y="239"/><rect fill="#F1F1F1" height="2" style="stroke:#181818;stroke-width:0.5;" width="4" x="590.5" y="241"/><rect fill="#F1F1F1" height="2" style="stroke:#181818;stroke-width:0.5;" width="4" x="590.5" y="245"/><text fill="#000000" font-family="sans-serif" font-size="14" lengthAdjust="spacing" textLength="96" x="491.5" y="266.9951">Sommateur 2</text></g><!--MD5=[b165ca7cce796f881c879adda4a6bef9]
entity s3--><g id="elem_s3"><rect fill="#F1F1F1" height="46.2969" rx="2.5" ry="2.5" style="stroke:#181818;stroke-width:0.5;" width="137" x="304" y="234"/><rect fill="#F1F1F1" height="10" style="stroke:#181818;stroke-width:0.5;" width="15" x="421" y="239"/><rect fill="#F1F1F1" height="2" style="stroke:#181818;stroke-width:0.5;" width="4" x="419" y="241"/><rect fill="#F1F1F1" height="2" style="stroke:#181818;stroke-width:0.5;" width="4" x="419" y="245"/><text fill="#000000" font-family="sans-serif" font-size="14" lengthAdjust="spacing" textLength="97" x="319" y="266.9951">Sommateur 3</text></g><!--MD5=[9c35c66068622dad62ecac52c54c307b]
entity V--><g id="elem_V"><rect fill="#F1F1F1" height="46.2969" rx="2.5" ry="2.5" style="stroke:#181818;stroke-width:0.5;" width="75" x="507" y="113"/><rect fill="#F1F1F1" height="10" style="stroke:#181818;stroke-width:0.5;" width="15" x="562" y="118"/><rect fill="#F1F1F1" height="2" style="stroke:#181818;stroke-width:0.5;" width="4" x="560" y="120"/><rect fill="#F1F1F1" height="2" style="stroke:#181818;stroke-width:0.5;" width="4" x="560" y="124"/><text fill="#000000" font-family="sans-serif" font-size="14" lengthAdjust="spacing" textLength="35" x="522" y="145.9951">Vote</text></g><!--MD5=[c72e14692f063a08d1023b5b76acc947]
entity M--><g id="elem_M"><rect fill="#F1F1F1" height="46.2969" rx="2.5" ry="2.5" style="stroke:#181818;stroke-width:0.5;" width="141" x="560" y="355"/><rect fill="#F1F1F1" height="10" style="stroke:#181818;stroke-width:0.5;" width="15" x="681" y="360"/><rect fill="#F1F1F1" height="2" style="stroke:#181818;stroke-width:0.5;" width="4" x="679" y="362"/><rect fill="#F1F1F1" height="2" style="stroke:#181818;stroke-width:0.5;" width="4" x="679" y="366"/><text fill="#000000" font-family="sans-serif" font-size="14" lengthAdjust="spacing" textLength="101" x="575" y="387.9951">Orchestrateur</text></g><!--MD5=[2110633c9d9698e9bc637d8d761325bc]
link c1 to V--><g id="link_c1_V"><path d="M429.463,53.056 C452.885,69.74 485.064,92.662 509.434,110.021 " fill="none" id="c1-to-V" style="stroke:#181818;stroke-width:1.0;"/><polygon fill="#181818" points="513.582,112.976,508.5741,104.4954,509.5101,110.0743,503.9313,111.0104,513.582,112.976" style="stroke:#181818;stroke-width:1.0;"/></g><!--MD5=[5035dcf2b2f76b90e3dddb36318eecac]
link c2 to V--><g id="link_c2_V"><path d="M544.5,53.056 C544.5,69.05 544.5,90.778 544.5,107.842 " fill="none" id="c2-to-V" style="stroke:#181818;stroke-width:1.0;"/><polygon fill="#181818" points="544.5,112.976,548.5,103.976,544.5,107.976,540.5,103.976,544.5,112.976" style="stroke:#181818;stroke-width:1.0;"/></g><!--MD5=[4b3ecfa7b8d50c6d67c93b2c348dbaa7]
link c3 to V--><g id="link_c3_V"><path d="M659.537,53.056 C636.115,69.74 603.936,92.662 579.566,110.021 " fill="none" id="c3-to-V" style="stroke:#181818;stroke-width:1.0;"/><polygon fill="#181818" points="575.418,112.976,585.0687,111.0104,579.4899,110.0743,580.4259,104.4954,575.418,112.976" style="stroke:#181818;stroke-width:1.0;"/></g><!--MD5=[ad57da741f1126280f5eab19f548184b]
link V to s1--><g id="link_V_s1"><path d="M576.449,159.104 C605.802,179.412 649.283,209.495 679.995,230.744 " fill="none" id="V-to-s1" style="stroke:#181818;stroke-width:1.0;"/><polygon fill="#181818" points="684.431,233.813,679.3072,225.4019,680.3197,230.9674,674.7542,231.9799,684.431,233.813" style="stroke:#181818;stroke-width:1.0;"/></g><!--MD5=[2124e3ed03138a297e488f014ae76f36]
link V to s2--><g id="link_V_s2"><path d="M544.5,159.104 C544.5,178.685 544.5,207.351 544.5,228.426 " fill="none" id="V-to-s2" style="stroke:#181818;stroke-width:1.0;"/><polygon fill="#181818" points="544.5,233.61,548.5,224.61,544.5,228.61,540.5,224.61,544.5,233.61" style="stroke:#181818;stroke-width:1.0;"/></g><!--MD5=[511dfa33408a3222d35839232e1042fa]
link V to s3--><g id="link_V_s3"><path d="M512.551,159.104 C483.198,179.412 439.717,209.495 409.005,230.744 " fill="none" id="V-to-s3" style="stroke:#181818;stroke-width:1.0;"/><polygon fill="#181818" points="404.569,233.813,414.2458,231.9799,408.6803,230.9674,409.6928,225.4019,404.569,233.813" style="stroke:#181818;stroke-width:1.0;"/></g><!--MD5=[0ce2de2dfef378e60df59281631c76b8]
link V to DS--><g id="link_V_DS"><path d="M506.65,148.205 C456.14,163.345 364.053,191.605 286.5,219 C275.037,223.049 262.886,227.589 251.241,232.065 " fill="none" id="V-to-DS" style="stroke:#181818;stroke-width:1.0;"/><polygon fill="#181818" points="246.285,233.978,256.1216,234.4695,250.9497,232.1778,253.2413,227.006,246.285,233.978" style="stroke:#181818;stroke-width:1.0;"/></g><!--MD5=[14f3cddff942a87b41f24cac496c1cdd]
reverse link s1 to M--><g id="link_s1_M"><path d="M697.561,284.207 C682.321,305.294 661.136,334.6089 646.681,354.6105 " fill="none" id="s1-backto-M" style="stroke:#181818;stroke-width:1.0;stroke-dasharray:7.0,7.0;"/><polygon fill="#181818" points="700.526,280.104,692.0127,285.0561,697.5976,284.1567,698.4969,289.7416,700.526,280.104" style="stroke:#181818;stroke-width:1.0;"/></g><!--MD5=[647b73a75c3f3b1334bdf9de5c34af2f]
reverse link s2 to M--><g id="link_s2_M"><path d="M563.439,284.207 C578.679,305.294 599.864,334.6089 614.319,354.6105 " fill="none" id="s2-backto-M" style="stroke:#181818;stroke-width:1.0;stroke-dasharray:7.0,7.0;"/><polygon fill="#181818" points="560.474,280.104,562.5031,289.7416,563.4024,284.1567,568.9873,285.0561,560.474,280.104" style="stroke:#181818;stroke-width:1.0;"/></g><!--MD5=[602c29de312b248ab5e2280fc7bee017]
reverse link s3 to M--><g id="link_s3_M"><path d="M425.1,282.261 C471.209,303.5287 537.677,334.1861 582.396,354.8127 " fill="none" id="s3-backto-M" style="stroke:#181818;stroke-width:1.0;stroke-dasharray:7.0,7.0;"/><polygon fill="#181818" points="420.423,280.104,426.9218,287.5044,424.9638,282.1972,430.2709,280.2392,420.423,280.104" style="stroke:#181818;stroke-width:1.0;"/></g><!--MD5=[b2946a30cf1bbdc0d51300887f82d05b]
link V to M--><g id="link_V_M"><path d="M582.129,136.247 C640.498,137.376 751.444,149.201 802.5,219 C822.442,246.263 820.527,266.435 802.5,295 C781.21,328.735 741.814,348.8829 706.093,360.7589 " fill="none" id="V-to-M" style="stroke:#181818;stroke-width:1.0;stroke-dasharray:7.0,7.0;"/><polygon fill="#181818" points="701.306,362.3089,711.1005,363.3424,706.0629,360.7689,708.6364,355.7313,701.306,362.3089" style="stroke:#181818;stroke-width:1.0;"/></g><!--MD5=[4b37aa5d680041328972f14c200d3bf3]
link AppClient to DS--><g id="link_AppClient_DS"><path d="M79.168,257 C89.1323,257 99.0967,257 109.061,257 " fill="none" id="AppClient-to-DS" style="stroke:#181818;stroke-width:1.0;stroke-dasharray:7.0,7.0;"/><polygon fill="#181818" points="114.272,257,105.272,253,109.272,257,105.272,261,114.272,257" style="stroke:#181818;stroke-width:1.0;"/></g><!--MD5=[8becf4b3c407058c0d4faf759c069f6d]
@startuml
Actor AppClient
[DataWebServer] as DS
[Capteur 1] as c1
[Capteur 2] as c2
[Capteur 3] as c3
[Sommateur 1] as s1
[Sommateur 2] as s2
[Sommateur 3] as s3
[Vote] as V

c1 - -> V
c2 - -> V
c3 - -> V
V - -> s1
V - -> s2
V - -> s3
V - -> DS
[Orchestrateur] as M
M .u.> s1
M .u.> s2
M .u.> s3
V ..> M
AppClient .r.> DS
@enduml

PlantUML version 1.2022.10beta2(Unknown compile time)
(GPL source distribution)
Java Runtime: Java(TM) SE Runtime Environment
JVM: Java HotSpot(TM) 64-Bit Server VM
Default Encoding: UTF-8
Language: en
Country: US
--></g></svg>