<?xml version="1.0" encoding="UTF-8" standalone="no"?><svg xmlns="http://www.w3.org/2000/svg" xmlns:xlink="http://www.w3.org/1999/xlink" contentStyleType="text/css" height="108px" preserveAspectRatio="none" style="width:1462px;height:108px;background:#FFFFFF;" version="1.1" viewBox="0 0 1462 108" width="1462px" zoomAndPan="magnify"><defs/><g><line style="stroke:#181818;stroke-width:0.5;stroke-dasharray:5.0,5.0;" x1="46" x2="46" y1="81.2969" y2="101.2969"/><line style="stroke:#181818;stroke-width:0.5;stroke-dasharray:5.0,5.0;" x1="180" x2="180" y1="81.2969" y2="101.2969"/><line style="stroke:#181818;stroke-width:0.5;stroke-dasharray:5.0,5.0;" x1="356" x2="356" y1="81.2969" y2="101.2969"/><line style="stroke:#181818;stroke-width:0.5;stroke-dasharray:5.0,5.0;" x1="527" x2="527" y1="81.2969" y2="101.2969"/><line style="stroke:#181818;stroke-width:0.5;stroke-dasharray:5.0,5.0;" x1="708" x2="708" y1="81.2969" y2="101.2969"/><line style="stroke:#181818;stroke-width:0.5;stroke-dasharray:5.0,5.0;" x1="928" x2="928" y1="81.2969" y2="101.2969"/><line style="stroke:#181818;stroke-width:0.5;stroke-dasharray:5.0,5.0;" x1="1125" x2="1125" y1="81.2969" y2="101.2969"/><line style="stroke:#181818;stroke-width:0.5;stroke-dasharray:5.0,5.0;" x1="1331" x2="1331" y1="81.2969" y2="101.2969"/><text fill="#000000" font-family="sans-serif" font-size="14" lengthAdjust="spacing" textLength="77" x="5" y="77.9951">vote:IVote</text><ellipse cx="46.5" cy="13.5" fill="#E2E2F0" rx="8" ry="8" style="stroke:#181818;stroke-width:0.5;"/><path d="M46.5,21.5 L46.5,48.5 M33.5,29.5 L59.5,29.5 M46.5,48.5 L33.5,63.5 M46.5,48.5 L59.5,63.5 " fill="none" style="stroke:#181818;stroke-width:0.5;"/><rect fill="#E2E2F0" height="30.2969" rx="2.5" ry="2.5" style="stroke:#181818;stroke-width:0.5;" width="164" x="98" y="50"/><text fill="#000000" font-family="sans-serif" font-size="14" lengthAdjust="spacing" textLength="150" x="105" y="69.9951">monitor:IMonitorCtrl</text><rect fill="#E2E2F0" height="30.2969" rx="2.5" ry="2.5" style="stroke:#181818;stroke-width:0.5;" width="169" x="272" y="50"/><text fill="#000000" font-family="sans-serif" font-size="14" lengthAdjust="spacing" textLength="155" x="279" y="69.9951">map&lt;id,Sommateur&gt;</text><rect fill="#E2E2F0" height="30.2969" rx="2.5" ry="2.5" style="stroke:#181818;stroke-width:0.5;" width="153" x="451" y="50"/><text fill="#000000" font-family="sans-serif" font-size="14" lengthAdjust="spacing" textLength="139" x="458" y="69.9951">switch:ISommateur</text><rect fill="#E2E2F0" height="30.2969" rx="2.5" ry="2.5" style="stroke:#181818;stroke-width:0.5;" width="189" x="614" y="50"/><text fill="#000000" font-family="sans-serif" font-size="14" lengthAdjust="spacing" textLength="175" x="621" y="69.9951">sommateur:ISommateur</text><rect fill="#E2E2F0" height="30.2969" rx="2.5" ry="2.5" style="stroke:#181818;stroke-width:0.5;" width="230" x="813" y="50"/><text fill="#000000" font-family="sans-serif" font-size="14" lengthAdjust="spacing" textLength="216" x="820" y="69.9951">sommateur[i]:ISommateurCtrl</text><rect fill="#E2E2F0" height="30.2969" rx="2.5" ry="2.5" style="stroke:#181818;stroke-width:0.5;" width="144" x="1053" y="50"/><text fill="#000000" font-family="sans-serif" font-size="14" lengthAdjust="spacing" textLength="130" x="1060" y="69.9951">switch:ISwitchCtrl</text><rect fill="#E2E2F0" height="30.2969" rx="2.5" ry="2.5" style="stroke:#181818;stroke-width:0.5;" width="249" x="1207" y="50"/><text fill="#000000" font-family="sans-serif" font-size="14" lengthAdjust="spacing" textLength="235" x="1214" y="69.9951">dataWebServer:IDataWebServer</text><!--MD5=[eab35dc2abade349088c1d0e33a0d255]
@startuml
skinparam style strictuml 
Actor "vote:IVote" as IV
participant "monitor:IMonitorCtrl" as IMC
participant "map<id,Sommateur>" as map
participant "sommateur[i]:ISommateurCtrl" as ISC
participant "switch:ISommateur" as SW
participant "sommateur:ISommateur" as IS
participant "sommateur:ISommateurCtrl" as ISC
participant "switch:ISwitchCtrl" as ISWC
participant "dataWebServer:IDataWebServer" as IDWS
@enduml

PlantUML version 1.2022.10beta2(Unknown compile time)
(GPL source distribution)
Java Runtime: Java(TM) SE Runtime Environment
JVM: Java HotSpot(TM) 64-Bit Server VM
Default Encoding: UTF-8
Language: en
Country: US
--></g></svg>