<?xml version="1.0" encoding="UTF-8" standalone="no"?><svg xmlns="http://www.w3.org/2000/svg" xmlns:xlink="http://www.w3.org/1999/xlink" contentStyleType="text/css" height="969px" preserveAspectRatio="none" style="width:1097px;height:969px;background:#FFFFFF;" version="1.1" viewBox="0 0 1097 969" width="1097px" zoomAndPan="magnify"><defs/><g><!--MD5=[4ff2070df88455c106f66df98914223b]
cluster SystemeSommation--><g id="cluster_SystemeSommation"><path d="M34.945,271 L197.945,271 A3.75,3.75 0 0 1 200.445,273.5 L207.445,293.2969 L609.9453,293.2969 A2.5,2.5 0 0 1 612.4453,295.7969 L612.4453,818 A2.5,2.5 0 0 1 609.9453,820.5 L34.945,820.5 A2.5,2.5 0 0 1 32.445,818 L32.445,273.5 A2.5,2.5 0 0 1 34.945,271 " fill="none" style="stroke:#000000;stroke-width:1.5;"/><line style="stroke:#000000;stroke-width:1.5;" x1="32.445" x2="207.445" y1="293.2969" y2="293.2969"/><text fill="#000000" font-family="sans-serif" font-size="14" font-weight="bold" lengthAdjust="spacing" textLength="162" x="36.445" y="285.9951">SystemeSommation</text></g><!--MD5=[5822f30355694532b1c3752bebe05682]
cluster Capteur--><g id="cluster_Capteur"><path d="M119.9453,6 L184.9453,6 A3.75,3.75 0 0 1 187.4453,8.5 L194.4453,28.2969 L276.9453,28.2969 A2.5,2.5 0 0 1 279.4453,30.7969 L279.4453,219.5 A2.5,2.5 0 0 1 276.9453,222 L119.9453,222 A2.5,2.5 0 0 1 117.4453,219.5 L117.4453,8.5 A2.5,2.5 0 0 1 119.9453,6 " fill="none" style="stroke:#000000;stroke-width:1.5;"/><line style="stroke:#000000;stroke-width:1.5;" x1="117.4453" x2="194.4453" y1="28.2969" y2="28.2969"/><text fill="#000000" font-family="sans-serif" font-size="14" font-weight="bold" lengthAdjust="spacing" textLength="64" x="121.4453" y="20.9951">Capteur</text></g><!--MD5=[c15471f36c92251f7f51856d416e31ac]
cluster Sommateur--><g id="cluster_Sommateur"><path d="M638.9453,686 L733.9453,686 A3.75,3.75 0 0 1 736.4453,688.5 L743.4453,708.2969 L966.9453,708.2969 A2.5,2.5 0 0 1 969.4453,710.7969 L969.4453,959.5 A2.5,2.5 0 0 1 966.9453,962 L638.9453,962 A2.5,2.5 0 0 1 636.4453,959.5 L636.4453,688.5 A2.5,2.5 0 0 1 638.9453,686 " fill="none" style="stroke:#000000;stroke-width:1.5;"/><line style="stroke:#000000;stroke-width:1.5;" x1="636.4453" x2="743.4453" y1="708.2969" y2="708.2969"/><text fill="#000000" font-family="sans-serif" font-size="14" font-weight="bold" lengthAdjust="spacing" textLength="94" x="640.4453" y="700.9951">Sommateur</text></g><!--MD5=[8c476a410bb0cfccb526fc6d64cd701e]
class IOrchestrateurCtrl--><g id="elem_IOrchestrateurCtrl"><rect codeLine="2" fill="#F1F1F1" height="64.2969" id="IOrchestrateurCtrl" rx="2.5" ry="2.5" style="stroke:#181818;stroke-width:0.5;" width="342" x="48.445" y="559"/><ellipse cx="151.195" cy="575" fill="#B4A7E5" rx="11" ry="11" style="stroke:#181818;stroke-width:1.0;"/><path d="M152.1481,571.7813 L153.8669,571.7813 C154.2575,571.7813 154.445,571.75 154.57,571.6719 C154.8356,571.5156 154.9762,571.2344 154.9762,570.9375 C154.9762,570.6719 154.8669,570.4063 154.6325,570.2344 C154.4606,570.125 154.32,570.0938 153.8669,570.0938 L148.7262,570.0938 C148.2887,570.0938 148.1637,570.1094 148.0075,570.2031 C147.7575,570.3594 147.6012,570.6563 147.6012,570.9375 C147.6012,571.2188 147.7419,571.4688 147.9606,571.6406 C148.1169,571.75 148.3044,571.7813 148.7262,571.7813 L150.445,571.7813 L150.445,578.2969 L148.7262,578.2969 C148.2887,578.2969 148.1637,578.3125 148.0075,578.4219 C147.7575,578.5781 147.6012,578.8594 147.6012,579.1563 C147.6012,579.4063 147.7419,579.6719 147.9606,579.8281 C148.1169,579.9531 148.32,580 148.7262,580 L153.8669,580 C154.6169,580 154.9762,579.7188 154.9762,579.1563 C154.9762,578.875 154.8669,578.625 154.6325,578.4531 C154.4606,578.3281 154.32,578.2969 153.8669,578.2969 L152.1481,578.2969 L152.1481,571.7813 Z " fill="#000000"/><text fill="#000000" font-family="sans-serif" font-size="14" font-style="italic" lengthAdjust="spacing" textLength="128" x="171.695" y="579.8467">IOrchestrateurCtrl</text><line style="stroke:#181818;stroke-width:0.5;" x1="49.445" x2="389.445" y1="591" y2="591"/><line style="stroke:#181818;stroke-width:0.5;" x1="49.445" x2="389.445" y1="599" y2="599"/><text fill="#000000" font-family="sans-serif" font-size="14" lengthAdjust="spacing" textLength="330" x="54.445" y="615.9951">sommateurDefectueux(idSommateur:integer)</text></g><!--MD5=[79cfadff20f59a28efbeff006b2cbc93]
class Orchestrateur--><g id="elem_Orchestrateur"><rect codeLine="5" fill="#F1F1F1" height="48" id="Orchestrateur" rx="2.5" ry="2.5" style="stroke:#181818;stroke-width:0.5;" width="133" x="300.9453" y="756.5"/><ellipse cx="315.9453" cy="772.5" fill="#ADD1B2" rx="11" ry="11" style="stroke:#181818;stroke-width:1.0;"/><path d="M318.289,768.1719 C317.3515,767.7344 316.7578,767.5938 315.8828,767.5938 C313.2578,767.5938 311.2578,769.6719 311.2578,772.3906 L311.2578,773.5156 C311.2578,776.0938 313.3672,777.9844 316.2578,777.9844 C317.4765,777.9844 318.6328,777.6875 319.3828,777.1406 C319.9609,776.7344 320.289,776.2813 320.289,775.8906 C320.289,775.4375 319.8984,775.0469 319.4297,775.0469 C319.2109,775.0469 319.0078,775.125 318.8203,775.3125 C318.3672,775.7969 318.3672,775.7969 318.1797,775.8906 C317.7578,776.1563 317.0703,776.2813 316.3047,776.2813 C314.2578,776.2813 312.9609,775.1875 312.9609,773.4844 L312.9609,772.3906 C312.9609,770.6094 314.2109,769.2969 315.9453,769.2969 C316.5234,769.2969 317.1328,769.4531 317.6015,769.7031 C318.0859,769.9844 318.2578,770.2031 318.3515,770.6094 C318.414,771.0156 318.4453,771.1406 318.5859,771.2656 C318.7265,771.4063 318.9609,771.5156 319.1797,771.5156 C319.4453,771.5156 319.7109,771.375 319.8828,771.1563 C319.9922,771 320.0234,770.8125 320.0234,770.3906 L320.0234,768.9688 C320.0234,768.5313 320.0078,768.4063 319.914,768.25 C319.7578,767.9844 319.4765,767.8438 319.1797,767.8438 C318.8828,767.8438 318.6797,767.9375 318.4609,768.25 L318.289,768.1719 Z " fill="#000000"/><text fill="#000000" font-family="sans-serif" font-size="14" lengthAdjust="spacing" textLength="101" x="329.9453" y="777.3467">Orchestrateur</text><line style="stroke:#181818;stroke-width:0.5;" x1="301.9453" x2="432.9453" y1="788.5" y2="788.5"/><line style="stroke:#181818;stroke-width:0.5;" x1="301.9453" x2="432.9453" y1="796.5" y2="796.5"/></g><!--MD5=[7dccf8acad80f5a6fb377496fb951189]
class ISwitch--><g id="elem_ISwitch"><rect codeLine="8" fill="#F1F1F1" height="48" id="ISwitch" rx="2.5" ry="2.5" style="stroke:#181818;stroke-width:0.5;" width="120" x="138.4453" y="325"/><ellipse cx="153.4453" cy="341" fill="#B4A7E5" rx="11" ry="11" style="stroke:#181818;stroke-width:1.0;"/><path d="M154.3984,337.7813 L156.1172,337.7813 C156.5078,337.7813 156.6953,337.75 156.8203,337.6719 C157.0859,337.5156 157.2265,337.2344 157.2265,336.9375 C157.2265,336.6719 157.1172,336.4063 156.8828,336.2344 C156.7109,336.125 156.5703,336.0938 156.1172,336.0938 L150.9765,336.0938 C150.539,336.0938 150.414,336.1094 150.2578,336.2031 C150.0078,336.3594 149.8515,336.6563 149.8515,336.9375 C149.8515,337.2188 149.9922,337.4688 150.2109,337.6406 C150.3672,337.75 150.5547,337.7813 150.9765,337.7813 L152.6953,337.7813 L152.6953,344.2969 L150.9765,344.2969 C150.539,344.2969 150.414,344.3125 150.2578,344.4219 C150.0078,344.5781 149.8515,344.8594 149.8515,345.1563 C149.8515,345.4063 149.9922,345.6719 150.2109,345.8281 C150.3672,345.9531 150.5703,346 150.9765,346 L156.1172,346 C156.8672,346 157.2265,345.7188 157.2265,345.1563 C157.2265,344.875 157.1172,344.625 156.8828,344.4531 C156.7109,344.3281 156.5703,344.2969 156.1172,344.2969 L154.3984,344.2969 L154.3984,337.7813 Z " fill="#000000"/><text fill="#000000" font-family="sans-serif" font-size="14" font-style="italic" lengthAdjust="spacing" textLength="88" x="167.4453" y="345.8467">ISommateur</text><line style="stroke:#181818;stroke-width:0.5;" x1="139.4453" x2="257.4453" y1="357" y2="357"/><line style="stroke:#181818;stroke-width:0.5;" x1="139.4453" x2="257.4453" y1="365" y2="365"/></g><!--MD5=[6389add3bdd03ebcbdac3f7b0e26cf0a]
class ISwitchCtrl--><g id="elem_ISwitchCtrl"><rect codeLine="9" fill="#F1F1F1" height="48" id="ISwitchCtrl" rx="2.5" ry="2.5" style="stroke:#181818;stroke-width:0.5;" width="107" x="316.9453" y="325"/><ellipse cx="331.9453" cy="341" fill="#B4A7E5" rx="11" ry="11" style="stroke:#181818;stroke-width:1.0;"/><path d="M332.8984,337.7813 L334.6172,337.7813 C335.0078,337.7813 335.1953,337.75 335.3203,337.6719 C335.5859,337.5156 335.7265,337.2344 335.7265,336.9375 C335.7265,336.6719 335.6172,336.4063 335.3828,336.2344 C335.2109,336.125 335.0703,336.0938 334.6172,336.0938 L329.4765,336.0938 C329.039,336.0938 328.914,336.1094 328.7578,336.2031 C328.5078,336.3594 328.3515,336.6563 328.3515,336.9375 C328.3515,337.2188 328.4922,337.4688 328.7109,337.6406 C328.8672,337.75 329.0547,337.7813 329.4765,337.7813 L331.1953,337.7813 L331.1953,344.2969 L329.4765,344.2969 C329.039,344.2969 328.914,344.3125 328.7578,344.4219 C328.5078,344.5781 328.3515,344.8594 328.3515,345.1563 C328.3515,345.4063 328.4922,345.6719 328.7109,345.8281 C328.8672,345.9531 329.0703,346 329.4765,346 L334.6172,346 C335.3672,346 335.7265,345.7188 335.7265,345.1563 C335.7265,344.875 335.6172,344.625 335.3828,344.4531 C335.2109,344.3281 335.0703,344.2969 334.6172,344.2969 L332.8984,344.2969 L332.8984,337.7813 Z " fill="#000000"/><text fill="#000000" font-family="sans-serif" font-size="14" font-style="italic" lengthAdjust="spacing" textLength="75" x="345.9453" y="345.8467">ISwitchCtrl</text><line style="stroke:#181818;stroke-width:0.5;" x1="317.9453" x2="422.9453" y1="357" y2="357"/><line style="stroke:#181818;stroke-width:0.5;" x1="317.9453" x2="422.9453" y1="365" y2="365"/></g><!--MD5=[7e68ee526bacd5d3b5b4ed7f8a923c39]
class Switch--><g id="elem_Switch"><rect codeLine="10" fill="#F1F1F1" height="48" id="Switch" rx="2.5" ry="2.5" style="stroke:#181818;stroke-width:0.5;" width="80" x="158.4453" y="434"/><ellipse cx="173.4453" cy="450" fill="#ADD1B2" rx="11" ry="11" style="stroke:#181818;stroke-width:1.0;"/><path d="M175.789,445.6719 C174.8515,445.2344 174.2578,445.0938 173.3828,445.0938 C170.7578,445.0938 168.7578,447.1719 168.7578,449.8906 L168.7578,451.0156 C168.7578,453.5938 170.8672,455.4844 173.7578,455.4844 C174.9765,455.4844 176.1328,455.1875 176.8828,454.6406 C177.4609,454.2344 177.789,453.7813 177.789,453.3906 C177.789,452.9375 177.3984,452.5469 176.9297,452.5469 C176.7109,452.5469 176.5078,452.625 176.3203,452.8125 C175.8672,453.2969 175.8672,453.2969 175.6797,453.3906 C175.2578,453.6563 174.5703,453.7813 173.8047,453.7813 C171.7578,453.7813 170.4609,452.6875 170.4609,450.9844 L170.4609,449.8906 C170.4609,448.1094 171.7109,446.7969 173.4453,446.7969 C174.0234,446.7969 174.6328,446.9531 175.1015,447.2031 C175.5859,447.4844 175.7578,447.7031 175.8515,448.1094 C175.914,448.5156 175.9453,448.6406 176.0859,448.7656 C176.2265,448.9063 176.4609,449.0156 176.6797,449.0156 C176.9453,449.0156 177.2109,448.875 177.3828,448.6563 C177.4922,448.5 177.5234,448.3125 177.5234,447.8906 L177.5234,446.4688 C177.5234,446.0313 177.5078,445.9063 177.414,445.75 C177.2578,445.4844 176.9765,445.3438 176.6797,445.3438 C176.3828,445.3438 176.1797,445.4375 175.9609,445.75 L175.789,445.6719 Z " fill="#000000"/><text fill="#000000" font-family="sans-serif" font-size="14" lengthAdjust="spacing" textLength="48" x="187.4453" y="454.8467">Switch</text><line style="stroke:#181818;stroke-width:0.5;" x1="159.4453" x2="237.4453" y1="466" y2="466"/><line style="stroke:#181818;stroke-width:0.5;" x1="159.4453" x2="237.4453" y1="474" y2="474"/></g><!--MD5=[61a60af882245c41f57dcbf6b4c12ef7]
class IVote--><g id="elem_IVote"><rect codeLine="15" fill="#F1F1F1" height="48" id="IVote" rx="2.5" ry="2.5" style="stroke:#181818;stroke-width:0.5;" width="69" x="526.9453" y="325"/><ellipse cx="541.9453" cy="341" fill="#B4A7E5" rx="11" ry="11" style="stroke:#181818;stroke-width:1.0;"/><path d="M542.8984,337.7813 L544.6172,337.7813 C545.0078,337.7813 545.1953,337.75 545.3203,337.6719 C545.5859,337.5156 545.7265,337.2344 545.7265,336.9375 C545.7265,336.6719 545.6172,336.4063 545.3828,336.2344 C545.2109,336.125 545.0703,336.0938 544.6172,336.0938 L539.4765,336.0938 C539.039,336.0938 538.914,336.1094 538.7578,336.2031 C538.5078,336.3594 538.3515,336.6563 538.3515,336.9375 C538.3515,337.2188 538.4922,337.4688 538.7109,337.6406 C538.8672,337.75 539.0547,337.7813 539.4765,337.7813 L541.1953,337.7813 L541.1953,344.2969 L539.4765,344.2969 C539.039,344.2969 538.914,344.3125 538.7578,344.4219 C538.5078,344.5781 538.3515,344.8594 538.3515,345.1563 C538.3515,345.4063 538.4922,345.6719 538.7109,345.8281 C538.8672,345.9531 539.0703,346 539.4765,346 L544.6172,346 C545.3672,346 545.7265,345.7188 545.7265,345.1563 C545.7265,344.875 545.6172,344.625 545.3828,344.4531 C545.2109,344.3281 545.0703,344.2969 544.6172,344.2969 L542.8984,344.2969 L542.8984,337.7813 Z " fill="#000000"/><text fill="#000000" font-family="sans-serif" font-size="14" font-style="italic" lengthAdjust="spacing" textLength="37" x="555.9453" y="345.8467">IVote</text><line style="stroke:#181818;stroke-width:0.5;" x1="527.9453" x2="594.9453" y1="357" y2="357"/><line style="stroke:#181818;stroke-width:0.5;" x1="527.9453" x2="594.9453" y1="365" y2="365"/></g><!--MD5=[6987bc66bd8845192e2addfb47d98466]
class Vote--><g id="elem_Vote"><rect codeLine="16" fill="#F1F1F1" height="48" id="Vote" rx="2.5" ry="2.5" style="stroke:#181818;stroke-width:0.5;" width="67" x="528.9453" y="434"/><ellipse cx="543.9453" cy="450" fill="#ADD1B2" rx="11" ry="11" style="stroke:#181818;stroke-width:1.0;"/><path d="M546.289,445.6719 C545.3515,445.2344 544.7578,445.0938 543.8828,445.0938 C541.2578,445.0938 539.2578,447.1719 539.2578,449.8906 L539.2578,451.0156 C539.2578,453.5938 541.3672,455.4844 544.2578,455.4844 C545.4765,455.4844 546.6328,455.1875 547.3828,454.6406 C547.9609,454.2344 548.289,453.7813 548.289,453.3906 C548.289,452.9375 547.8984,452.5469 547.4297,452.5469 C547.2109,452.5469 547.0078,452.625 546.8203,452.8125 C546.3672,453.2969 546.3672,453.2969 546.1797,453.3906 C545.7578,453.6563 545.0703,453.7813 544.3047,453.7813 C542.2578,453.7813 540.9609,452.6875 540.9609,450.9844 L540.9609,449.8906 C540.9609,448.1094 542.2109,446.7969 543.9453,446.7969 C544.5234,446.7969 545.1328,446.9531 545.6015,447.2031 C546.0859,447.4844 546.2578,447.7031 546.3515,448.1094 C546.414,448.5156 546.4453,448.6406 546.5859,448.7656 C546.7265,448.9063 546.9609,449.0156 547.1797,449.0156 C547.4453,449.0156 547.7109,448.875 547.8828,448.6563 C547.9922,448.5 548.0234,448.3125 548.0234,447.8906 L548.0234,446.4688 C548.0234,446.0313 548.0078,445.9063 547.914,445.75 C547.7578,445.4844 547.4765,445.3438 547.1797,445.3438 C546.8828,445.3438 546.6797,445.4375 546.4609,445.75 L546.289,445.6719 Z " fill="#000000"/><text fill="#000000" font-family="sans-serif" font-size="14" lengthAdjust="spacing" textLength="35" x="557.9453" y="454.8467">Vote</text><line style="stroke:#181818;stroke-width:0.5;" x1="529.9453" x2="594.9453" y1="466" y2="466"/><line style="stroke:#181818;stroke-width:0.5;" x1="529.9453" x2="594.9453" y1="474" y2="474"/></g><!--MD5=[1fbaf200608dde259cbb1929ae15d83d]
class IDataManager--><g id="elem_IDataManager"><rect codeLine="19" fill="#F1F1F1" height="48" id="IDataManager" rx="2.5" ry="2.5" style="stroke:#181818;stroke-width:0.5;" width="133" x="462.9453" y="567"/><ellipse cx="477.9453" cy="583" fill="#B4A7E5" rx="11" ry="11" style="stroke:#181818;stroke-width:1.0;"/><path d="M478.8984,579.7813 L480.6172,579.7813 C481.0078,579.7813 481.1953,579.75 481.3203,579.6719 C481.5859,579.5156 481.7265,579.2344 481.7265,578.9375 C481.7265,578.6719 481.6172,578.4063 481.3828,578.2344 C481.2109,578.125 481.0703,578.0938 480.6172,578.0938 L475.4765,578.0938 C475.039,578.0938 474.914,578.1094 474.7578,578.2031 C474.5078,578.3594 474.3515,578.6563 474.3515,578.9375 C474.3515,579.2188 474.4922,579.4688 474.7109,579.6406 C474.8672,579.75 475.0547,579.7813 475.4765,579.7813 L477.1953,579.7813 L477.1953,586.2969 L475.4765,586.2969 C475.039,586.2969 474.914,586.3125 474.7578,586.4219 C474.5078,586.5781 474.3515,586.8594 474.3515,587.1563 C474.3515,587.4063 474.4922,587.6719 474.7109,587.8281 C474.8672,587.9531 475.0703,588 475.4765,588 L480.6172,588 C481.3672,588 481.7265,587.7188 481.7265,587.1563 C481.7265,586.875 481.6172,586.625 481.3828,586.4531 C481.2109,586.3281 481.0703,586.2969 480.6172,586.2969 L478.8984,586.2969 L478.8984,579.7813 Z " fill="#000000"/><text fill="#000000" font-family="sans-serif" font-size="14" font-style="italic" lengthAdjust="spacing" textLength="101" x="491.9453" y="587.8467">IDataManager</text><line style="stroke:#181818;stroke-width:0.5;" x1="463.9453" x2="594.9453" y1="599" y2="599"/><line style="stroke:#181818;stroke-width:0.5;" x1="463.9453" x2="594.9453" y1="607" y2="607"/></g><!--MD5=[50410012277a53ec9046333ebc973b07]
class DataManager--><g id="elem_DataManager"><rect codeLine="20" fill="#F1F1F1" height="48" id="DataManager" rx="2.5" ry="2.5" style="stroke:#181818;stroke-width:0.5;" width="127" x="468.9453" y="756.5"/><ellipse cx="483.9453" cy="772.5" fill="#ADD1B2" rx="11" ry="11" style="stroke:#181818;stroke-width:1.0;"/><path d="M486.289,768.1719 C485.3515,767.7344 484.7578,767.5938 483.8828,767.5938 C481.2578,767.5938 479.2578,769.6719 479.2578,772.3906 L479.2578,773.5156 C479.2578,776.0938 481.3672,777.9844 484.2578,777.9844 C485.4765,777.9844 486.6328,777.6875 487.3828,777.1406 C487.9609,776.7344 488.289,776.2813 488.289,775.8906 C488.289,775.4375 487.8984,775.0469 487.4297,775.0469 C487.2109,775.0469 487.0078,775.125 486.8203,775.3125 C486.3672,775.7969 486.3672,775.7969 486.1797,775.8906 C485.7578,776.1563 485.0703,776.2813 484.3047,776.2813 C482.2578,776.2813 480.9609,775.1875 480.9609,773.4844 L480.9609,772.3906 C480.9609,770.6094 482.2109,769.2969 483.9453,769.2969 C484.5234,769.2969 485.1328,769.4531 485.6015,769.7031 C486.0859,769.9844 486.2578,770.2031 486.3515,770.6094 C486.414,771.0156 486.4453,771.1406 486.5859,771.2656 C486.7265,771.4063 486.9609,771.5156 487.1797,771.5156 C487.4453,771.5156 487.7109,771.375 487.8828,771.1563 C487.9922,771 488.0234,770.8125 488.0234,770.3906 L488.0234,768.9688 C488.0234,768.5313 488.0078,768.4063 487.914,768.25 C487.7578,767.9844 487.4765,767.8438 487.1797,767.8438 C486.8828,767.8438 486.6797,767.9375 486.4609,768.25 L486.289,768.1719 Z " fill="#000000"/><text fill="#000000" font-family="sans-serif" font-size="14" lengthAdjust="spacing" textLength="95" x="497.9453" y="777.3467">DataManager</text><line style="stroke:#181818;stroke-width:0.5;" x1="469.9453" x2="594.9453" y1="788.5" y2="788.5"/><line style="stroke:#181818;stroke-width:0.5;" x1="469.9453" x2="594.9453" y1="796.5" y2="796.5"/></g><!--MD5=[97d11a91ee07d738b7adf4b7793e7bfd]
class Capteur--><g id="elem_Capteur"><rect codeLine="24" fill="#F1F1F1" height="145.7813" id="Capteur" rx="2.5" ry="2.5" style="stroke:#181818;stroke-width:0.5;" width="129" x="133.9453" y="60"/><ellipse cx="166.4953" cy="76" fill="#ADD1B2" rx="11" ry="11" style="stroke:#181818;stroke-width:1.0;"/><path d="M168.839,71.6719 C167.9015,71.2344 167.3078,71.0938 166.4328,71.0938 C163.8078,71.0938 161.8078,73.1719 161.8078,75.8906 L161.8078,77.0156 C161.8078,79.5938 163.9172,81.4844 166.8078,81.4844 C168.0265,81.4844 169.1828,81.1875 169.9328,80.6406 C170.5109,80.2344 170.839,79.7813 170.839,79.3906 C170.839,78.9375 170.4484,78.5469 169.9797,78.5469 C169.7609,78.5469 169.5578,78.625 169.3703,78.8125 C168.9172,79.2969 168.9172,79.2969 168.7297,79.3906 C168.3078,79.6563 167.6203,79.7813 166.8547,79.7813 C164.8078,79.7813 163.5109,78.6875 163.5109,76.9844 L163.5109,75.8906 C163.5109,74.1094 164.7609,72.7969 166.4953,72.7969 C167.0734,72.7969 167.6828,72.9531 168.1515,73.2031 C168.6359,73.4844 168.8078,73.7031 168.9015,74.1094 C168.964,74.5156 168.9953,74.6406 169.1359,74.7656 C169.2765,74.9063 169.5109,75.0156 169.7297,75.0156 C169.9953,75.0156 170.2609,74.875 170.4328,74.6563 C170.5422,74.5 170.5734,74.3125 170.5734,73.8906 L170.5734,72.4688 C170.5734,72.0313 170.5578,71.9063 170.464,71.75 C170.3078,71.4844 170.0265,71.3438 169.7297,71.3438 C169.4328,71.3438 169.2297,71.4375 169.0109,71.75 L168.839,71.6719 Z " fill="#000000"/><text fill="#000000" font-family="sans-serif" font-size="14" lengthAdjust="spacing" textLength="58" x="184.3953" y="80.8467">Capteur</text><line style="stroke:#181818;stroke-width:0.5;" x1="134.9453" x2="261.9453" y1="92" y2="92"/><text fill="#000000" font-family="sans-serif" font-size="14" lengthAdjust="spacing" textLength="71" x="139.9453" y="108.9951">id:integer</text><text fill="#000000" font-family="sans-serif" font-size="14" lengthAdjust="spacing" textLength="98" x="139.9453" y="125.292">frequence:int</text><text fill="#000000" font-family="sans-serif" font-size="14" lengthAdjust="spacing" textLength="87" x="139.9453" y="141.5889">name:string</text><text fill="#000000" font-family="sans-serif" font-size="14" lengthAdjust="spacing" textLength="76" x="139.9453" y="157.8857">value:float</text><text fill="#000000" font-family="sans-serif" font-size="14" lengthAdjust="spacing" textLength="117" x="139.9453" y="174.1826">urlSwitch: string</text><text fill="#000000" font-family="sans-serif" font-size="14" lengthAdjust="spacing" textLength="94" x="139.9453" y="190.4795">token: string</text><line style="stroke:#181818;stroke-width:0.5;" x1="134.9453" x2="261.9453" y1="197.7813" y2="197.7813"/></g><!--MD5=[e272dcede89ce1bcb6edb5d26ace07ce]
class ISommateur--><g id="elem_ISommateur"><rect codeLine="35" fill="#F1F1F1" height="48" id="ISommateur" rx="2.5" ry="2.5" style="stroke:#181818;stroke-width:0.5;" width="120" x="652.4453" y="898"/><ellipse cx="667.4453" cy="914" fill="#B4A7E5" rx="11" ry="11" style="stroke:#181818;stroke-width:1.0;"/><path d="M668.3984,910.7813 L670.1172,910.7813 C670.5078,910.7813 670.6953,910.75 670.8203,910.6719 C671.0859,910.5156 671.2265,910.2344 671.2265,909.9375 C671.2265,909.6719 671.1172,909.4063 670.8828,909.2344 C670.7109,909.125 670.5703,909.0938 670.1172,909.0938 L664.9765,909.0938 C664.539,909.0938 664.414,909.1094 664.2578,909.2031 C664.0078,909.3594 663.8515,909.6563 663.8515,909.9375 C663.8515,910.2188 663.9922,910.4688 664.2109,910.6406 C664.3672,910.75 664.5547,910.7813 664.9765,910.7813 L666.6953,910.7813 L666.6953,917.2969 L664.9765,917.2969 C664.539,917.2969 664.414,917.3125 664.2578,917.4219 C664.0078,917.5781 663.8515,917.8594 663.8515,918.1563 C663.8515,918.4063 663.9922,918.6719 664.2109,918.8281 C664.3672,918.9531 664.5703,919 664.9765,919 L670.1172,919 C670.8672,919 671.2265,918.7188 671.2265,918.1563 C671.2265,917.875 671.1172,917.625 670.8828,917.4531 C670.7109,917.3281 670.5703,917.2969 670.1172,917.2969 L668.3984,917.2969 L668.3984,910.7813 Z " fill="#000000"/><text fill="#000000" font-family="sans-serif" font-size="14" font-style="italic" lengthAdjust="spacing" textLength="88" x="681.4453" y="918.8467">ISommateur</text><line style="stroke:#181818;stroke-width:0.5;" x1="653.4453" x2="771.4453" y1="930" y2="930"/><line style="stroke:#181818;stroke-width:0.5;" x1="653.4453" x2="771.4453" y1="938" y2="938"/></g><!--MD5=[111dab797b91d0a7428dd3795ff28298]
class ISommateurCtrl--><g id="elem_ISommateurCtrl"><rect codeLine="36" fill="#F1F1F1" height="48" id="ISommateurCtrl" rx="2.5" ry="2.5" style="stroke:#181818;stroke-width:0.5;" width="145" x="807.9453" y="898"/><ellipse cx="822.9453" cy="914" fill="#B4A7E5" rx="11" ry="11" style="stroke:#181818;stroke-width:1.0;"/><path d="M823.8984,910.7813 L825.6172,910.7813 C826.0078,910.7813 826.1953,910.75 826.3203,910.6719 C826.5859,910.5156 826.7265,910.2344 826.7265,909.9375 C826.7265,909.6719 826.6172,909.4063 826.3828,909.2344 C826.2109,909.125 826.0703,909.0938 825.6172,909.0938 L820.4765,909.0938 C820.039,909.0938 819.914,909.1094 819.7578,909.2031 C819.5078,909.3594 819.3515,909.6563 819.3515,909.9375 C819.3515,910.2188 819.4922,910.4688 819.7109,910.6406 C819.8672,910.75 820.0547,910.7813 820.4765,910.7813 L822.1953,910.7813 L822.1953,917.2969 L820.4765,917.2969 C820.039,917.2969 819.914,917.3125 819.7578,917.4219 C819.5078,917.5781 819.3515,917.8594 819.3515,918.1563 C819.3515,918.4063 819.4922,918.6719 819.7109,918.8281 C819.8672,918.9531 820.0703,919 820.4765,919 L825.6172,919 C826.3672,919 826.7265,918.7188 826.7265,918.1563 C826.7265,917.875 826.6172,917.625 826.3828,917.4531 C826.2109,917.3281 826.0703,917.2969 825.6172,917.2969 L823.8984,917.2969 L823.8984,910.7813 Z " fill="#000000"/><text fill="#000000" font-family="sans-serif" font-size="14" font-style="italic" lengthAdjust="spacing" textLength="113" x="836.9453" y="918.8467">ISommateurCtrl</text><line style="stroke:#181818;stroke-width:0.5;" x1="808.9453" x2="951.9453" y1="930" y2="930"/><line style="stroke:#181818;stroke-width:0.5;" x1="808.9453" x2="951.9453" y1="938" y2="938"/></g><!--MD5=[d79a8ac812ea254e1580cfb6c96534e9]
class Sommateur--><g id="elem_Sommateur"><rect codeLine="37" fill="#F1F1F1" height="80.5938" id="Sommateur" rx="2.5" ry="2.5" style="stroke:#181818;stroke-width:0.5;" width="128" x="652.4453" y="740"/><ellipse cx="672.8453" cy="756" fill="#ADD1B2" rx="11" ry="11" style="stroke:#181818;stroke-width:1.0;"/><path d="M675.189,751.6719 C674.2515,751.2344 673.6578,751.0938 672.7828,751.0938 C670.1578,751.0938 668.1578,753.1719 668.1578,755.8906 L668.1578,757.0156 C668.1578,759.5938 670.2672,761.4844 673.1578,761.4844 C674.3765,761.4844 675.5328,761.1875 676.2828,760.6406 C676.8609,760.2344 677.189,759.7813 677.189,759.3906 C677.189,758.9375 676.7984,758.5469 676.3297,758.5469 C676.1109,758.5469 675.9078,758.625 675.7203,758.8125 C675.2672,759.2969 675.2672,759.2969 675.0797,759.3906 C674.6578,759.6563 673.9703,759.7813 673.2047,759.7813 C671.1578,759.7813 669.8609,758.6875 669.8609,756.9844 L669.8609,755.8906 C669.8609,754.1094 671.1109,752.7969 672.8453,752.7969 C673.4234,752.7969 674.0328,752.9531 674.5015,753.2031 C674.9859,753.4844 675.1578,753.7031 675.2515,754.1094 C675.314,754.5156 675.3453,754.6406 675.4859,754.7656 C675.6265,754.9063 675.8609,755.0156 676.0797,755.0156 C676.3453,755.0156 676.6109,754.875 676.7828,754.6563 C676.8922,754.5 676.9234,754.3125 676.9234,753.8906 L676.9234,752.4688 C676.9234,752.0313 676.9078,751.9063 676.814,751.75 C676.6578,751.4844 676.3765,751.3438 676.0797,751.3438 C675.7828,751.3438 675.5797,751.4375 675.3609,751.75 L675.189,751.6719 Z " fill="#000000"/><text fill="#000000" font-family="sans-serif" font-size="14" lengthAdjust="spacing" textLength="84" x="688.0453" y="760.8467">Sommateur</text><line style="stroke:#181818;stroke-width:0.5;" x1="653.4453" x2="779.4453" y1="772" y2="772"/><text fill="#000000" font-family="sans-serif" font-size="14" lengthAdjust="spacing" textLength="71" x="658.4453" y="788.9951">id:integer</text><text fill="#000000" font-family="sans-serif" font-size="14" lengthAdjust="spacing" textLength="116" x="658.4453" y="805.292">shadow:boolean</text><line style="stroke:#181818;stroke-width:0.5;" x1="653.4453" x2="779.4453" y1="812.5938" y2="812.5938"/></g><!--MD5=[0c2f242d4496637827b4a0e9b290ed44]
class AppClient--><g id="elem_AppClient"><rect codeLine="44" fill="#F1F1F1" height="48" id="AppClient" rx="2.5" ry="2.5" style="stroke:#181818;stroke-width:0.5;" width="105" x="985.9453" y="756.5"/><ellipse cx="1000.9453" cy="772.5" fill="#ADD1B2" rx="11" ry="11" style="stroke:#181818;stroke-width:1.0;"/><path d="M1003.289,768.1719 C1002.3515,767.7344 1001.7578,767.5938 1000.8828,767.5938 C998.2578,767.5938 996.2578,769.6719 996.2578,772.3906 L996.2578,773.5156 C996.2578,776.0938 998.3672,777.9844 1001.2578,777.9844 C1002.4765,777.9844 1003.6328,777.6875 1004.3828,777.1406 C1004.9609,776.7344 1005.289,776.2813 1005.289,775.8906 C1005.289,775.4375 1004.8984,775.0469 1004.4297,775.0469 C1004.2109,775.0469 1004.0078,775.125 1003.8203,775.3125 C1003.3672,775.7969 1003.3672,775.7969 1003.1797,775.8906 C1002.7578,776.1563 1002.0703,776.2813 1001.3047,776.2813 C999.2578,776.2813 997.9609,775.1875 997.9609,773.4844 L997.9609,772.3906 C997.9609,770.6094 999.2109,769.2969 1000.9453,769.2969 C1001.5234,769.2969 1002.1328,769.4531 1002.6015,769.7031 C1003.0859,769.9844 1003.2578,770.2031 1003.3515,770.6094 C1003.414,771.0156 1003.4453,771.1406 1003.5859,771.2656 C1003.7265,771.4063 1003.9609,771.5156 1004.1797,771.5156 C1004.4453,771.5156 1004.7109,771.375 1004.8828,771.1563 C1004.9922,771 1005.0234,770.8125 1005.0234,770.3906 L1005.0234,768.9688 C1005.0234,768.5313 1005.0078,768.4063 1004.914,768.25 C1004.7578,767.9844 1004.4765,767.8438 1004.1797,767.8438 C1003.8828,767.8438 1003.6797,767.9375 1003.4609,768.25 L1003.289,768.1719 Z " fill="#000000"/><text fill="#000000" font-family="sans-serif" font-size="14" lengthAdjust="spacing" textLength="73" x="1014.9453" y="777.3467">AppClient</text><line style="stroke:#181818;stroke-width:0.5;" x1="986.9453" x2="1089.9453" y1="788.5" y2="788.5"/><line style="stroke:#181818;stroke-width:0.5;" x1="986.9453" x2="1089.9453" y1="796.5" y2="796.5"/></g><!--MD5=[f7c25951d4dce8565a3a51a41a065097]
reverse link IOrchestrateurCtrl to Orchestrateur--><g id="link_IOrchestrateurCtrl_Orchestrateur"><path codeLine="6" d="M256.7423,639.252 C286.2513,676.636 326.1853,727.228 349.1443,756.315 " fill="none" id="IOrchestrateurCtrl-backto-Orchestrateur" style="stroke:#181818;stroke-width:1.0;stroke-dasharray:7.0,7.0;"/><polygon fill="none" points="251.1143,643.419,244.2173,623.383,262.1033,634.745,251.1143,643.419" style="stroke:#181818;stroke-width:1.0;"/></g><!--MD5=[7c2d21fb5a22c97913f152064dbb6b8b]
reverse link ISwitch to Switch--><g id="link_ISwitch_Switch"><path codeLine="13" d="M198.4453,393.578 C198.4453,407.362 198.4453,422.057 198.4453,433.828 " fill="none" id="ISwitch-backto-Switch" style="stroke:#181818;stroke-width:1.0;stroke-dasharray:7.0,7.0;"/><polygon fill="none" points="191.4453,393.217,198.4453,373.217,205.4453,393.217,191.4453,393.217" style="stroke:#181818;stroke-width:1.0;"/></g><!--MD5=[7af2e7b40c84c823f09759849dd3db9e]
reverse link ISwitchCtrl to Switch--><g id="link_ISwitchCtrl_Switch"><path codeLine="14" d="M315.8893,383.938 C289.7513,400.199 259.1193,419.255 235.6933,433.828 " fill="none" id="ISwitchCtrl-backto-Switch" style="stroke:#181818;stroke-width:1.0;stroke-dasharray:7.0,7.0;"/><polygon fill="none" points="312.4443,377.838,333.1233,373.217,319.8393,389.726,312.4443,377.838" style="stroke:#181818;stroke-width:1.0;"/></g><!--MD5=[d088b8657677b59ffa06de9c41c96783]
reverse link IVote to Vote--><g id="link_IVote_Vote"><path codeLine="17" d="M561.8523,393.578 C561.9813,407.362 562.1183,422.057 562.2283,433.828 " fill="none" id="IVote-backto-Vote" style="stroke:#181818;stroke-width:1.0;stroke-dasharray:7.0,7.0;"/><polygon fill="none" points="554.8493,393.282,561.6623,373.217,568.8483,393.151,554.8493,393.282" style="stroke:#181818;stroke-width:1.0;"/></g><!--MD5=[4c3c8df0934c21fdc1d5edf3e8b0dc1f]
reverse link IDataManager to DataManager--><g id="link_IDataManager_DataManager"><path codeLine="21" d="M530.1413,635.511 C530.7453,673.241 531.5953,726.377 532.0763,756.427 " fill="none" id="IDataManager-backto-DataManager" style="stroke:#181818;stroke-width:1.0;stroke-dasharray:7.0,7.0;"/><polygon fill="none" points="523.1403,635.477,529.8193,615.368,537.1383,635.253,523.1403,635.477" style="stroke:#181818;stroke-width:1.0;"/></g><!--MD5=[caee8eefd273555240c6fb4a2a375d16]
link Sommateur to ISommateur--><g id="link_Sommateur_ISommateur"><path codeLine="41" d="M715.3093,821.102 C714.8033,838.74 714.2063,859.563 713.6893,877.621 " fill="none" id="Sommateur-to-ISommateur" style="stroke:#181818;stroke-width:1.0;stroke-dasharray:7.0,7.0;"/><polygon fill="none" points="720.6783,878.0853,713.1083,897.8764,706.6843,877.684,720.6783,878.0853" style="stroke:#181818;stroke-width:1.0;"/></g><!--MD5=[74e941f36b952dfa7b3e52a09c7a87d5]
link Sommateur to ISommateurCtrl--><g id="link_Sommateur_ISommateurCtrl"><path codeLine="42" d="M763.0023,821.102 C786.5863,841.163 815.0143,865.344 837.9943,884.8907 " fill="none" id="Sommateur-to-ISommateurCtrl" style="stroke:#181818;stroke-width:1.0;stroke-dasharray:7.0,7.0;"/><polygon fill="none" points="842.5613,879.586,853.2603,897.8764,833.4903,890.25,842.5613,879.586" style="stroke:#181818;stroke-width:1.0;"/></g><!--MD5=[3733bbe4bec455a8082190da8d517299]
reverse link DataManager to AppClient--><g id="link_DataManager_AppClient"><path codeLine="45" d="M552.1223,752.121 C570.6903,728.059 600.9313,695.252 636.4453,681 C705.1213,653.439 903.8843,646.682 969.4453,681 C999.6163,696.793 1019.2363,732.443 1029.5763,756.494 " fill="none" id="DataManager-backto-AppClient" style="stroke:#181818;stroke-width:1.0;"/><polygon fill="#181818" points="549.0183,756.204,557.6494,751.4601,552.0443,752.2236,551.2808,746.6185,549.0183,756.204" style="stroke:#181818;stroke-width:1.0;"/><text fill="#000000" font-family="sans-serif" font-size="13" lengthAdjust="spacing" textLength="37" x="810.9453" y="666.0669">utilise</text></g><!--MD5=[bda5e9c0cb8ef2c5199e50ab06f1ec34]
link Switch to IOrchestrateurCtrl--><g id="link_Switch_IOrchestrateurCtrl"><path codeLine="47" d="M194.8043,482.207 C193.3063,495.929 192.5213,513.583 195.4453,529 C197.0083,537.241 199.6603,545.793 202.6453,553.794 " fill="none" id="Switch-to-IOrchestrateurCtrl" style="stroke:#181818;stroke-width:1.0;"/><polygon fill="#181818" points="204.5393,558.696,205.0271,548.8592,202.7374,554.032,197.5647,551.7422,204.5393,558.696" style="stroke:#181818;stroke-width:1.0;"/><polygon fill="#000000" points="200.9897,525.5367,202.9263,516.2254,197.0834,516.8654,200.9897,525.5367" style="stroke:#000000;stroke-width:1.0;"/><text fill="#000000" font-family="sans-serif" font-size="13" lengthAdjust="spacing" textLength="143" x="209.4453" y="525.0669">indique un problème à</text><text fill="#000000" font-family="sans-serif" font-size="13" lengthAdjust="spacing" textLength="8" x="184.9418" y="502.0187">1</text><text fill="#000000" font-family="sans-serif" font-size="13" lengthAdjust="spacing" textLength="8" x="192.8172" y="547.9103">1</text></g><!--MD5=[95065a208035a3772be273052e08ecd5]
link Switch to ISommateur--><g id="link_Switch_ISommateur"><path codeLine="48" d="M158.1183,470.212 C117.6783,483.85 57.621,511.198 30.445,559 C6,601.998 11.2321,628.698 38.445,670 C175.0303,877.302 505.9933,914.0019 647.0293,920.0539 " fill="none" id="Switch-to-ISommateur" style="stroke:#181818;stroke-width:1.0;"/><polygon fill="#181818" points="652.3743,920.2724,643.5452,915.908,647.3785,920.0681,643.2184,923.9013,652.3743,920.2724" style="stroke:#181818;stroke-width:1.0;"/><text fill="#000000" font-family="sans-serif" font-size="13" lengthAdjust="spacing" textLength="224" x="39.445" y="666.0669">envoie les données en redondance</text><text fill="#000000" font-family="sans-serif" font-size="13" lengthAdjust="spacing" textLength="8" x="142.4996" y="468.1002">1</text><text fill="#000000" font-family="sans-serif" font-size="13" lengthAdjust="spacing" textLength="7" x="637.6266" y="916.2228">*</text></g><!--MD5=[dd6dc1d86690785d3605646e5d92923f]
link Orchestrateur to ISommateurCtrl--><g id="link_Orchestrateur_ISommateurCtrl"><path codeLine="50" d="M403.0673,804.637 C417.5883,813.204 434.8433,822.324 451.4453,828.5 C595.5933,882.1281 640.5623,863.505 790.4453,898 C796.1033,899.3021 801.9493,900.6929 807.8193,902.1216 " fill="none" id="Orchestrateur-ISommateurCtrl" style="stroke:#181818;stroke-width:1.0;"/><polygon fill="#000000" points="606.3063,860.7372,598.2008,855.762,596.8245,861.4765,606.3063,860.7372" style="stroke:#000000;stroke-width:1.0;"/><text fill="#000000" font-family="sans-serif" font-size="13" lengthAdjust="spacing" textLength="29" x="610.4453" y="864.0669">gère</text><text fill="#000000" font-family="sans-serif" font-size="13" lengthAdjust="spacing" textLength="8" x="402.7751" y="824.4316">1</text><text fill="#000000" font-family="sans-serif" font-size="13" lengthAdjust="spacing" textLength="7" x="792.9688" y="896.3719">*</text></g><!--MD5=[81337f4e4a0f1c6d48185a3de5e94aa5]
reverse link IVote to Sommateur--><g id="link_IVote_Sommateur"><path codeLine="51" d="M581.1703,377.679 C591.8293,393.582 604.5833,414.263 613.4453,434 C661.1313,540.206 693.8963,674.468 708.2493,739.952 " fill="none" id="IVote-backto-Sommateur" style="stroke:#181818;stroke-width:1.0;"/><polygon fill="#181818" points="578.2253,373.325,579.9547,383.0208,581.0267,377.4665,586.5811,378.5385,578.2253,373.325" style="stroke:#181818;stroke-width:1.0;"/><polygon fill="#000000" points="656.1003,525.2845,655.8796,515.7765,650.3331,517.7222,656.1003,525.2845" style="stroke:#000000;stroke-width:1.0;"/><text fill="#000000" font-family="sans-serif" font-size="13" lengthAdjust="spacing" textLength="101" x="663.4453" y="525.0669">valide l'état des</text><text fill="#000000" font-family="sans-serif" font-size="13" lengthAdjust="spacing" textLength="8" x="573.3404" y="393.1654">1</text><text fill="#000000" font-family="sans-serif" font-size="13" lengthAdjust="spacing" textLength="7" x="699.239" y="728.807">*</text></g><!--MD5=[0be0158c73653f7c5705e95f9e7e8283]
link Capteur to ISwitch--><g id="link_Capteur_ISwitch"><path codeLine="52" d="M198.4453,206.152 C198.4453,244.991 198.4453,290.706 198.4453,319.521 " fill="none" id="Capteur-to-ISwitch" style="stroke:#181818;stroke-width:1.0;"/><polygon fill="#181818" points="198.4453,324.699,202.4453,315.699,198.4453,319.699,194.4453,315.699,198.4453,324.699" style="stroke:#181818;stroke-width:1.0;"/><text fill="#000000" font-family="sans-serif" font-size="13" lengthAdjust="spacing" textLength="143" x="199.4453" y="251.0669">envoie la température</text><text fill="#000000" font-family="sans-serif" font-size="13" lengthAdjust="spacing" textLength="7" x="191.1117" y="225.9228">*</text><text fill="#000000" font-family="sans-serif" font-size="13" lengthAdjust="spacing" textLength="8" x="189.4703" y="314.0306">1</text></g><!--MD5=[5bac93e2a9b2e350d9266437b83d8353]
link Vote to IDataManager--><g id="link_Vote_IDataManager"><path codeLine="53" d="M581.0513,482.072 C589.7463,495.748 596.9063,513.401 590.4453,529 C585.0343,542.063 575.3183,553.787 565.2083,563.383 " fill="none" id="Vote-to-IDataManager" style="stroke:#181818;stroke-width:1.0;"/><polygon fill="#181818" points="561.4733,566.821,570.8042,563.6693,565.1522,563.4349,565.3865,557.7829,561.4733,566.821" style="stroke:#181818;stroke-width:1.0;"/></g><!--MD5=[505335fb332858e11eed64a97eeec0e0]
link Orchestrateur to ISwitchCtrl--><g id="link_Orchestrateur_ISwitchCtrl"><path codeLine="55" d="M375.3383,756.257 C385.1583,725.999 401.3733,671.275 407.4453,623 C410.9943,594.778 415.0373,586.412 407.4453,559 C403.2943,544.015 394.3813,543.745 389.4453,529 C372.3283,477.877 369.6523,414.368 369.7283,378.382 " fill="none" id="Orchestrateur-to-ISwitchCtrl" style="stroke:#181818;stroke-width:1.0;"/><polygon fill="#181818" points="369.7573,373.278,365.7034,382.2538,369.7273,378.2779,373.7032,382.3018,369.7573,373.278" style="stroke:#181818;stroke-width:1.0;"/><text fill="#000000" font-family="sans-serif" font-size="13" lengthAdjust="spacing" textLength="191" x="390.4453" y="525.0669">ajout un nouveau sommateur</text></g><!--MD5=[8d9296d6eb716598c174e79319f2a839]
@startuml
package SystemeSommation{
  Interface IOrchestrateurCtrl {
      sommateurDefectueux(idSommateur:integer)
  }
  class Orchestrateur
  IOrchestrateurCtrl <|.. Orchestrateur

  interface "ISommateur" as ISwitch
  interface ISwitchCtrl
  class Switch{
  }

  Switch .u.|> ISwitch
  Switch .u.|> ISwitchCtrl
  interface IVote
  class Vote
  IVote <|.d. Vote

  interface IDataManager
  class DataManager
  IDataManager <|.. DataManager
}
package Capteur{
  class Capteur{
      id:integer
      frequence:int 
      name:string
      value:float
      urlSwitch: string
      token: string
  }
}

package Sommateur{
interface ISommateur
interface ISommateurCtrl
class Sommateur {
    id:integer
    shadow:boolean
}
Sommateur ..|> ISommateur
Sommateur ..|> ISommateurCtrl
}
class AppClient
AppClient - -l> DataManager: utilise

Switch "1" - -> "1" IOrchestrateurCtrl: indique un problème à >
Switch "1" - -> "*" ISommateur: envoie les données en redondance

Orchestrateur "1" - - "*" ISommateurCtrl: gère >
IVote "1" <- - "*" Sommateur: valide l'état des >
Capteur "*" - -> "1" ISwitch: envoie la température 
Vote - -> IDataManager
' Sommateur "1" *- -> "*" Capteur: calcul la somme de chaque
Orchestrateur - -> ISwitchCtrl: ajout un nouveau sommateur
@enduml

@startuml
package SystemeSommation{
  Interface IOrchestrateurCtrl {
      sommateurDefectueux(idSommateur:integer)
  }
  class Orchestrateur
  IOrchestrateurCtrl <|.. Orchestrateur

  interface "ISommateur" as ISwitch
  interface ISwitchCtrl
  class Switch{
  }

  Switch .u.|> ISwitch
  Switch .u.|> ISwitchCtrl
  interface IVote
  class Vote
  IVote <|.d. Vote

  interface IDataManager
  class DataManager
  IDataManager <|.. DataManager
}
package Capteur{
  class Capteur{
      id:integer
      frequence:int 
      name:string
      value:float
      urlSwitch: string
      token: string
  }
}

package Sommateur{
interface ISommateur
interface ISommateurCtrl
class Sommateur {
    id:integer
    shadow:boolean
}
Sommateur ..|> ISommateur
Sommateur ..|> ISommateurCtrl
}
class AppClient
AppClient - -l> DataManager: utilise

Switch "1" - -> "1" IOrchestrateurCtrl: indique un problème à >
Switch "1" - -> "*" ISommateur: envoie les données en redondance

Orchestrateur "1" - - "*" ISommateurCtrl: gère >
IVote "1" <- - "*" Sommateur: valide l'état des >
Capteur "*" - -> "1" ISwitch: envoie la température 
Vote - -> IDataManager
Orchestrateur - -> ISwitchCtrl: ajout un nouveau sommateur
@enduml

PlantUML version 1.2022.10beta2(Unknown compile time)
(GPL source distribution)
Java Runtime: Java(TM) SE Runtime Environment
JVM: Java HotSpot(TM) 64-Bit Server VM
Default Encoding: UTF-8
Language: en
Country: US
--></g></svg>