<?xml version="1.0" encoding="UTF-8" standalone="no"?><svg xmlns="http://www.w3.org/2000/svg" xmlns:xlink="http://www.w3.org/1999/xlink" contentScriptType="application/ecmascript" contentStyleType="text/css" height="1210px" preserveAspectRatio="none" style="width:1211px;height:1210px;background:#FFFFFF;" version="1.1" viewBox="0 0 1211 1210" width="1211px" zoomAndPan="magnify"><defs><filter height="300%" id="fhu8ebsuqceim" width="300%" x="-1" y="-1"><feGaussianBlur result="blurOut" stdDeviation="2.0"/><feColorMatrix in="blurOut" result="blurOut2" type="matrix" values="0 0 0 0 0 0 0 0 0 0 0 0 0 0 0 0 0 0 .4 0"/><feOffset dx="4.0" dy="4.0" in="blurOut2" result="blurOut3"/><feBlend in="SourceGraphic" in2="blurOut3" mode="normal"/></filter></defs><g><text fill="#000000" font-family="sans-serif" font-size="18" lengthAdjust="spacing" textLength="151" x="523.6356" y="16.708">Vue de contexte</text><!--MD5=[494bbab3d783cc15dd6eedeb91ae27c5]
cluster BureauScrutin--><path d="M49.5828,60.0607 C63.1035,32.7761 80.0397,34.5679 98.8186,54.5879 C116.4867,32.0112 133.7387,31.775 147.2507,58.6577 C155.8277,36.1385 177.6315,31.3786 192.2072,52.4744 C209.8425,31.6793 226.7055,35.8148 238.3491,58.7906 C252.7004,37.8514 272.8484,35.4995 286.9557,59.0571 C299.1539,37.3034 315.8238,31.4982 334.4215,51.8416 C351.0405,26.9531 367.9559,28.2957 381.7248,54.4813 C400.5466,31.9149 414.7414,33.6426 427.5811,60.0793 C438.3735,37.9274 455.9803,34.5929 472.6395,53.667 C490.83,34.377 506.4921,38.367 519.9619,59.2304 C533.8464,36.114 552.3078,36.1168 564.8218,60.5241 C579.1182,35.9283 604.0987,40.7081 617.0947,62.0053 C617.9563,60.3067 619.6622,60.2776 620.5236,62.0055 C648.8275,80.5007 644.5047,104.167 619.2036,121.4723 C638.8213,135.4471 638.5126,149.802 618.7652,163.365 C648.8576,183.2794 644.0413,200.2274 617.9717,219.3458 C642.3706,235.8047 641.7713,251.0814 619.5954,269.0615 C647.213,282.4432 650.5248,300.7803 624.6782,319.5449 C652.1571,336.3458 646.2297,362.8154 619.1908,374.1364 C640.4036,387.1429 644.0061,406.7978 621.7466,422.1199 C645.0759,436.4391 645.0837,460.1339 619.1913,471.928 C643.0632,490.3586 641.6776,507.1619 619.7673,526.0794 C641.3974,538.6077 637.9017,557.7527 619.2111,569.7676 C647.3956,579.9145 651.0037,606.8353 627.1187,624.5044 C646.3642,640.9979 647.0896,662.0518 620.2607,671.8751 C643.5611,687.5005 643.0999,715.4828 618.7676,729.8821 C641.8772,749.62 632.5739,766.8991 610.0947,778.5053 C610.826,777.6028 611.3827,777.6898 611.9247,778.6876 C603.5333,798.9342 584.4782,802.7201 570.5929,784.6071 C553.5657,802.9253 538.4623,803.6998 523.4418,782.2292 C509.6857,805.253 491.0232,802.811 477.355,782.1366 C464.3329,811.9981 439.3591,814.5854 422.0074,786.2546 C407.6026,806.2249 385.8203,804.4516 376.8404,780.656 C364.5522,807.4309 346.3958,803.4777 329.7538,785.207 C313.8364,807.0628 294.473,803.5063 281.5801,781.8579 C273.2849,803.5511 255.4264,806.3194 240.8086,788.3587 C223.5337,812.5831 207.4064,808.7866 191.6577,786.7375 C174.9475,806.1104 156.0184,802.0934 145.5307,779.842 C129.9587,800.7853 109.419,805.102 93.816,779.8767 C72.7428,800.0263 51.593,801.7764 38.0947,771.5053 C40.9377,771.1406 43.2478,773.0968 41.825,776.1547 C11.8257,761.1963 10.7642,741.7961 38.3421,723.0606 C14.5245,705.2517 19.0449,686.272 42.919,672.8066 C22.833,655.9479 21.8623,639.9558 43.9616,623.9982 C16.5755,611.8848 14.7784,594.0508 36.6798,574.6627 C15.4119,556.6272 15.2273,538.7313 42.9611,527.1777 C21.0276,513.753 17.6937,491.5608 41.1459,476.5102 C14.4576,460.5822 12.4676,437.7916 38.9663,419.8188 C20.0863,407.6287 20.6004,385.0147 39.849,373.5521 C17.3131,358.62 14.6741,335.902 40.4872,321.5634 C18.4488,306.9624 15.5253,286.2141 37.2744,268.9397 C16.876,252.4285 18.4898,232.122 43.3457,221.389 C20.5231,205.9996 13.9135,190.6188 38.3203,170.5599 C10.2538,156.8101 15.7793,131.5734 37.9014,117.4279 C6,95.0774 17.8663,70.542 45.0947,55.0053 C48.5685,54.8109 50.4081,56.4385 49.5828,60.0607 " fill="#FFFFFF" filter="url(#fhu8ebsuqceim)" style="stroke:#000000;stroke-width:1.5;"/><text fill="#000000" font-family="sans-serif" font-size="14" font-weight="bold" lengthAdjust="spacing" textLength="116" x="269.5947" y="73.0004">BureauScrutin</text><!--MD5=[96cc3d84c92aad90ce1ec766dab667d4]
cluster Kiosque--><polygon fill="#FFFFFF" filter="url(#fhu8ebsuqceim)" points="54.0947,345.0053,123.0947,345.0053,130.0947,367.3022,473.0947,367.3022,473.0947,459.0053,54.0947,459.0053,54.0947,345.0053" style="stroke:#000000;stroke-width:1.5;"/><line style="stroke:#000000;stroke-width:1.5;" x1="54.0947" x2="130.0947" y1="367.3022" y2="367.3022"/><text fill="#000000" font-family="sans-serif" font-size="14" font-weight="bold" lengthAdjust="spacing" textLength="63" x="58.0947" y="360.0004">Kiosque</text><!--MD5=[cab8bef333e8ad42894eb8f66cbcfb69]
cluster BureauDirecteurElection--><path d="M950.5386,509.014 C955.706,500.861 962.6058,501.0389 967.9783,508.7891 C971.7094,500.5009 979.5425,497.1613 985.778,506.2193 C991.2695,500.2777 997.1755,499.6577 1000.7842,508.1737 C1005.0174,500.1083 1012.4509,500.0562 1017.4617,507.3281 C1020.7136,497.9878 1029.2337,498.3249 1034.8371,504.7338 C1039.7077,495.3933 1048.132,495.1935 1054.2811,503.3096 C1060.2902,494.3606 1066.7579,496.3515 1071.9952,504.1271 C1076.89,495.3254 1082.8824,496.8352 1088.2388,503.6468 C1094.6805,497.5334 1099.8546,499.0801 1103.9076,506.4273 C1109.3614,498.4174 1116.9663,497.08 1122.5613,506.2742 C1128.3681,498.3682 1133.7398,499.0596 1139.026,506.8213 C1144.3099,497.789 1151.6614,499.1798 1156.0265,507.7108 C1161.551,498.7026 1166.7692,500.0226 1172.985,506.9764 C1179.0405,497.623 1185.9076,499.631 1191.1081,507.8578 C1201.4531,514.319 1204.2712,520.8173 1193.695,529.7504 C1202.3201,535.1272 1204.217,544.5382 1194.3977,550.5384 C1202.9191,558.1496 1202.4403,565.6296 1191.1075,569.8599 C1199.5584,574.7959 1200.2777,582.8633 1191.7311,588.3718 C1188.068,597.5359 1180.834,598.0782 1175.6847,589.7338 C1171.2727,599.6325 1162.5861,599.5713 1156.2233,591.8937 C1151.0008,600.4888 1145.5952,602.968 1138.2803,594.0358 C1134.6064,603.0816 1127.999,602.3738 1122.009,596.5744 C1117.1417,605.0866 1112.3103,605.692 1106.1373,597.8409 C1101.7587,606.3319 1094.7565,607.6962 1089.3142,598.8745 C1083.9751,607.3871 1077.5432,607.2171 1072.2424,598.8356 C1066.0102,607.2394 1060.47,607.5979 1054.1688,598.9086 C1047.7985,606.3411 1040.1038,605.6084 1035.906,596.5087 C1028.9859,605.269 1021.9372,603.3287 1017.6464,593.873 C1012.1604,601.8595 1004.4996,599.9888 1000.5527,592.2047 C995.2046,600.1372 989.3278,601.8144 982.9269,593.3353 C976.2586,601.0614 971.4181,600.0938 966.6844,591.4194 C961.3981,598.7204 955.0317,599.3072 950.5484,590.6096 C938.6352,583.2426 939.7689,575.8923 950.2316,568.209 C939.9402,562.9976 939.2413,556.8206 947.5535,549.0136 C938.092,541.5258 939.1715,533.5776 950.1786,528.7403 C941.3081,522.8421 940.5755,514.5685 950.5386,509.014 " fill="#FFFFFF" filter="url(#fhu8ebsuqceim)" style="stroke:#000000;stroke-width:1.5;"/><text fill="#000000" font-family="sans-serif" font-size="14" font-weight="bold" lengthAdjust="spacing" textLength="197" x="970.5947" y="525.0004">BureauDirecteurElection</text><!--MD5=[9e78c2194f148c90bb466c6f34c5a3d7]
entity IAdmin--><ellipse cx="270.0947" cy="730.0053" fill="#FEFECE" filter="url(#fhu8ebsuqceim)" rx="8" ry="8" style="stroke:#A80036;stroke-width:1.5;"/><text fill="#000000" font-family="sans-serif" font-size="14" lengthAdjust="spacing" textLength="50" x="245.0947" y="760.0004">IAdmin</text><!--MD5=[c2ca0dec4dd704caadc4eca7f9891f92]
entity IV--><ellipse cx="357.0947" cy="253.0053" fill="#FEFECE" filter="url(#fhu8ebsuqceim)" rx="8" ry="8" style="stroke:#A80036;stroke-width:1.5;"/><text fill="#000000" font-family="sans-serif" font-size="14" lengthAdjust="spacing" textLength="39" x="337.5947" y="283.0004">IVote</text><!--MD5=[532b49c01defb7bfd820ed77eed4b740]
entity IEV--><ellipse cx="296.0947" cy="557.0053" fill="#FEFECE" filter="url(#fhu8ebsuqceim)" rx="8" ry="8" style="stroke:#A80036;stroke-width:1.5;"/><text fill="#000000" font-family="sans-serif" font-size="14" lengthAdjust="spacing" textLength="153" x="219.5947" y="587.0004">IEnregistrementVote</text><!--MD5=[b9d6b2071fa9c2331781d48a42a0c12c]
entity AL--><ellipse cx="174.0947" cy="699.0053" fill="#FEFECE" filter="url(#fhu8ebsuqceim)" rx="8" ry="8" style="stroke:#A80036;stroke-width:1.5;"/><path d="M174.0947,707.0053 L174.0947,734.0053 M161.0947,715.0053 L187.0947,715.0053 M174.0947,734.0053 L161.0947,749.0053 M174.0947,734.0053 L187.0947,749.0053 " fill="none" filter="url(#fhu8ebsuqceim)" style="stroke:#A80036;stroke-width:1.5;"/><text fill="#000000" font-family="sans-serif" font-size="14" lengthAdjust="spacing" textLength="104" x="122.0947" y="767.5004">Adminstrateur</text><!--MD5=[c6cb293c19029cfc9273f4c2be658672]
entity SL--><polygon fill="#FEFECE" filter="url(#fhu8ebsuqceim)" points="389.0947,708.5053,399.0947,698.5053,521.0947,698.5053,521.0947,751.0991,511.0947,761.0991,389.0947,761.0991,389.0947,708.5053" style="stroke:#000000;stroke-width:1.5;"/><line style="stroke:#000000;stroke-width:1.5;" x1="511.0947" x2="521.0947" y1="708.5053" y2="698.5053"/><line style="stroke:#000000;stroke-width:1.5;" x1="389.0947" x2="511.0947" y1="708.5053" y2="708.5053"/><line style="stroke:#000000;stroke-width:1.5;" x1="511.0947" x2="511.0947" y1="708.5053" y2="761.0991"/><text fill="#000000" font-family="sans-serif" font-size="14" font-style="italic" lengthAdjust="spacing" textLength="74" x="413.0947" y="731.5004">«Serveur»</text><text fill="#000000" font-family="sans-serif" font-size="14" lengthAdjust="spacing" textLength="92" x="404.0947" y="747.7973">ServeurLocal</text><!--MD5=[626ad08abde0879284d52f51a0eb42aa]
entity P--><ellipse cx="550.0947" cy="380.5053" fill="#FEFECE" filter="url(#fhu8ebsuqceim)" rx="8" ry="8" style="stroke:#A80036;stroke-width:1.5;"/><path d="M550.0947,388.5053 L550.0947,415.5053 M537.0947,396.5053 L563.0947,396.5053 M550.0947,415.5053 L537.0947,430.5053 M550.0947,415.5053 L563.0947,430.5053 " fill="none" filter="url(#fhu8ebsuqceim)" style="stroke:#A80036;stroke-width:1.5;"/><text fill="#000000" font-family="sans-serif" font-size="14" lengthAdjust="spacing" textLength="117" x="491.5947" y="449.0004">PreposeAuTable</text><!--MD5=[68f82070d0aec4ff4b64d9b1102926da]
entity E--><ellipse cx="357.0947" cy="91.5053" fill="#FEFECE" filter="url(#fhu8ebsuqceim)" rx="8" ry="8" style="stroke:#A80036;stroke-width:1.5;"/><path d="M357.0947,99.5053 L357.0947,126.5053 M344.0947,107.5053 L370.0947,107.5053 M357.0947,126.5053 L344.0947,141.5053 M357.0947,126.5053 L370.0947,141.5053 " fill="none" filter="url(#fhu8ebsuqceim)" style="stroke:#A80036;stroke-width:1.5;"/><text fill="#000000" font-family="sans-serif" font-size="14" lengthAdjust="spacing" textLength="60" x="327.0947" y="160.0004">Electeur</text><!--MD5=[aea4458c28ade918e0c4cad638ff57f3]
entity ICE--><ellipse cx="506.0947" cy="557.0053" fill="#FEFECE" filter="url(#fhu8ebsuqceim)" rx="8" ry="8" style="stroke:#A80036;stroke-width:1.5;"/><text fill="#000000" font-family="sans-serif" font-size="14" lengthAdjust="spacing" textLength="131" x="440.5947" y="587.0004">IConfirmeElecteur</text><!--MD5=[5975f2ff0da05f57fc45c1b4f52e786f]
entity MAV--><polygon fill="#FEFECE" filter="url(#fhu8ebsuqceim)" points="257.5947,390.0053,267.5947,380.0053,456.5947,380.0053,456.5947,432.5991,446.5947,442.5991,257.5947,442.5991,257.5947,390.0053" style="stroke:#000000;stroke-width:1.5;"/><line style="stroke:#000000;stroke-width:1.5;" x1="446.5947" x2="456.5947" y1="390.0053" y2="380.0053"/><line style="stroke:#000000;stroke-width:1.5;" x1="257.5947" x2="446.5947" y1="390.0053" y2="390.0053"/><line style="stroke:#000000;stroke-width:1.5;" x1="446.5947" x2="446.5947" y1="390.0053" y2="442.5991"/><text fill="#000000" font-family="sans-serif" font-size="14" font-style="italic" lengthAdjust="spacing" textLength="159" x="272.5947" y="413.0004">«Tablette numérique»</text><text fill="#000000" font-family="sans-serif" font-size="14" lengthAdjust="spacing" textLength="110" x="297.0947" y="429.2973">MachineAVoter</text><!--MD5=[b5a3e0d84499baf40117fbfb57713ee1]
entity Imprimante--><polygon fill="#FEFECE" filter="url(#fhu8ebsuqceim)" points="70.5947,398.5053,80.5947,388.5053,195.5947,388.5053,195.5947,424.8022,185.5947,434.8022,70.5947,434.8022,70.5947,398.5053" style="stroke:#000000;stroke-width:1.5;"/><line style="stroke:#000000;stroke-width:1.5;" x1="185.5947" x2="195.5947" y1="398.5053" y2="388.5053"/><line style="stroke:#000000;stroke-width:1.5;" x1="70.5947" x2="185.5947" y1="398.5053" y2="398.5053"/><line style="stroke:#000000;stroke-width:1.5;" x1="185.5947" x2="185.5947" y1="398.5053" y2="434.8022"/><text fill="#000000" font-family="sans-serif" font-size="14" lengthAdjust="spacing" textLength="85" x="85.5947" y="421.5004">Imprimante</text><!--MD5=[083aa04434c2aca6ebfd31014d913489]
entity ARE--><polygon fill="#FEFECE" filter="url(#fhu8ebsuqceim)" points="956.5947,544.0053,966.5947,534.0053,1181.5947,534.0053,1181.5947,570.3022,1171.5947,580.3022,956.5947,580.3022,956.5947,544.0053" style="stroke:#000000;stroke-width:1.5;"/><line style="stroke:#000000;stroke-width:1.5;" x1="1171.5947" x2="1181.5947" y1="544.0053" y2="534.0053"/><line style="stroke:#000000;stroke-width:1.5;" x1="956.5947" x2="1171.5947" y1="544.0053" y2="544.0053"/><line style="stroke:#000000;stroke-width:1.5;" x1="1171.5947" x2="1171.5947" y1="544.0053" y2="580.3022"/><text fill="#000000" font-family="sans-serif" font-size="14" lengthAdjust="spacing" textLength="185" x="971.5947" y="567.0004">AfficheurResultatElection</text><!--MD5=[1036a1baae2dc6054378c04380493610]
entity IAdminC--><ellipse cx="700.0947" cy="730.0053" fill="#FEFECE" filter="url(#fhu8ebsuqceim)" rx="8" ry="8" style="stroke:#A80036;stroke-width:1.5;"/><text fill="#000000" font-family="sans-serif" font-size="14" lengthAdjust="spacing" textLength="103" x="648.5947" y="760.0004">IAdminCentral</text><!--MD5=[7ba72adcd8aa83c42fb3ac1b91b632f2]
entity IMOP--><ellipse cx="889.0947" cy="730.0053" fill="#FEFECE" filter="url(#fhu8ebsuqceim)" rx="8" ry="8" style="stroke:#A80036;stroke-width:1.5;"/><text fill="#000000" font-family="sans-serif" font-size="14" lengthAdjust="spacing" textLength="174" x="802.0947" y="760.0004">IManageOrganismePress</text><!--MD5=[da1e3a23cb8cd299bda9f7a0571ddf18]
entity IROP--><ellipse cx="782.0947" cy="1033.5053" fill="#FEFECE" filter="url(#fhu8ebsuqceim)" rx="8" ry="8" style="stroke:#A80036;stroke-width:1.5;"/><text fill="#000000" font-family="sans-serif" font-size="14" lengthAdjust="spacing" textLength="106" x="729.0947" y="1063.5004">IResultatVotes</text><!--MD5=[8b944653c655024075d894af29a33c78]
entity SC--><polygon fill="#FEFECE" filter="url(#fhu8ebsuqceim)" points="703.5947,874.5053,713.5947,864.5053,860.5947,864.5053,860.5947,917.0991,850.5947,927.0991,703.5947,927.0991,703.5947,874.5053" style="stroke:#000000;stroke-width:1.5;"/><line style="stroke:#000000;stroke-width:1.5;" x1="850.5947" x2="860.5947" y1="874.5053" y2="864.5053"/><line style="stroke:#000000;stroke-width:1.5;" x1="703.5947" x2="850.5947" y1="874.5053" y2="874.5053"/><line style="stroke:#000000;stroke-width:1.5;" x1="850.5947" x2="850.5947" y1="874.5053" y2="927.0991"/><text fill="#000000" font-family="sans-serif" font-size="14" font-style="italic" lengthAdjust="spacing" textLength="74" x="740.0947" y="897.5004">«Serveur»</text><text fill="#000000" font-family="sans-serif" font-size="14" lengthAdjust="spacing" textLength="117" x="718.5947" y="913.7973">ServeurCentrale</text><!--MD5=[8ad42e69c823d91e931492f14bc2a1bb]
entity S--><ellipse cx="884.0947" cy="526.0053" fill="#FEFECE" filter="url(#fhu8ebsuqceim)" rx="8" ry="8" style="stroke:#A80036;stroke-width:1.5;"/><path d="M884.0947,534.0053 L884.0947,561.0053 M871.0947,542.0053 L897.0947,542.0053 M884.0947,561.0053 L871.0947,576.0053 M884.0947,561.0053 L897.0947,576.0053 " fill="none" filter="url(#fhu8ebsuqceim)" style="stroke:#A80036;stroke-width:1.5;"/><text fill="#000000" font-family="sans-serif" font-size="14" lengthAdjust="spacing" textLength="75" x="846.5947" y="594.5004">Secretaire</text><!--MD5=[69d8d45188bfd87ac85d18be3b70c704]
entity OP--><ellipse cx="782.0947" cy="1133.0053" fill="#FEFECE" filter="url(#fhu8ebsuqceim)" rx="8" ry="8" style="stroke:#A80036;stroke-width:1.5;"/><path d="M782.0947,1141.0053 L782.0947,1168.0053 M769.0947,1149.0053 L795.0947,1149.0053 M782.0947,1168.0053 L769.0947,1183.0053 M782.0947,1168.0053 L795.0947,1183.0053 " fill="none" filter="url(#fhu8ebsuqceim)" style="stroke:#A80036;stroke-width:1.5;"/><text fill="#000000" font-family="sans-serif" font-size="14" lengthAdjust="spacing" textLength="144" x="710.0947" y="1201.5004">OrganismeDePresse</text><!--MD5=[0313ddc4f8ed0f4991a51edae0b1647c]
entity AC--><ellipse cx="700.0947" cy="526.0053" fill="#FEFECE" filter="url(#fhu8ebsuqceim)" rx="8" ry="8" style="stroke:#A80036;stroke-width:1.5;"/><path d="M700.0947,534.0053 L700.0947,561.0053 M687.0947,542.0053 L713.0947,542.0053 M700.0947,561.0053 L687.0947,576.0053 M700.0947,561.0053 L713.0947,576.0053 " fill="none" filter="url(#fhu8ebsuqceim)" style="stroke:#A80036;stroke-width:1.5;"/><text fill="#000000" font-family="sans-serif" font-size="14" lengthAdjust="spacing" textLength="108" x="646.0947" y="594.5004">Administrateur</text><!--MD5=[59f2bfdfdff193f20db275e50eb1c95e]
entity IARE--><ellipse cx="1066.0947" cy="730.0053" fill="#FEFECE" filter="url(#fhu8ebsuqceim)" rx="8" ry="8" style="stroke:#A80036;stroke-width:1.5;"/><text fill="#000000" font-family="sans-serif" font-size="14" lengthAdjust="spacing" textLength="70" x="1031.0947" y="760.0004">IAfficheur</text><!--MD5=[52df2b5c2611ba545e82db0e37c0821a]
link ARE to IARE--><path d="M1068.7047,580.0103 C1068.0747,615.8663 1066.8547,685.8533 1066.3347,715.3633 " fill="none" id="ARE-to-IARE" style="stroke:#A80036;stroke-width:1.0;"/><polygon fill="#A80036" points="1066.2447,720.7033,1070.4034,711.7756,1066.3332,715.7041,1062.4047,711.6339,1066.2447,720.7033" style="stroke:#A80036;stroke-width:1.0;"/><text fill="#000000" font-family="sans-serif" font-size="13" lengthAdjust="spacing" textLength="8" x="1059.5249" y="600.2534">1</text><text fill="#000000" font-family="sans-serif" font-size="13" lengthAdjust="spacing" textLength="8" x="1056.464" y="710.03">1</text><!--MD5=[4b04b783433748b3e438790d862af80c]
link IARE to SC--><path d="M1064.4147,739.1763 C1059.9347,758.7943 1045.8347,808.8323 1014.0947,834.5053 C970.8107,869.5193 909.4267,884.4603 860.6717,890.7463 " fill="none" id="IARE-SC" style="stroke:#A80036;stroke-width:1.0;"/><polygon fill="#000000" points="1040.083,821.5561,1049.0944,818.5153,1045.586,813.7993,1040.083,821.5561" style="stroke:#000000;stroke-width:1.0;"/><text fill="#000000" font-family="sans-serif" font-size="13" lengthAdjust="spacing" textLength="69" x="1053.0947" y="823.0722">notifié  par</text><!--MD5=[e8e379b513dc114b3e09200f61fa1ecc]
link AL to IAdmin--><path d="M226.2197,730.0053 C236.0467,730.0053 245.8737,730.0053 255.7007,730.0053 " fill="none" id="AL-to-IAdmin" style="stroke:#A80036;stroke-width:1.0;"/><polygon fill="#A80036" points="260.8397,730.0053,251.8397,726.0053,255.8397,730.0053,251.8397,734.0053,260.8397,730.0053" style="stroke:#A80036;stroke-width:1.0;"/><!--MD5=[0cdb2d23ad8c261eb5ce0510d62e0490]
link IAdmin to SL--><path d="M279.2687,730.0053 C299.1727,730.0053 347.8397,730.0053 388.9367,730.0053 " fill="none" id="IAdmin-SL" style="stroke:#A80036;stroke-width:1.0;"/><polygon fill="#000000" points="306.5947,718.5717,297.5496,715.6328,297.5496,721.5107,306.5947,718.5717" style="stroke:#000000;stroke-width:1.0;"/><text fill="#000000" font-family="sans-serif" font-size="13" lengthAdjust="spacing" textLength="60" x="310.5947" y="723.0722">configure</text><!--MD5=[5b7705ee93d8173b44e6bef9844cb767]
link Imprimante to MAV--><path d="M195.7887,411.5053 C214.9447,411.5053 236.5037,411.5053 257.4767,411.5053 " fill="none" id="Imprimante-MAV" style="stroke:#A80036;stroke-width:1.0;"/><text fill="#000000" font-family="sans-serif" font-size="13" lengthAdjust="spacing" textLength="25" x="214.0947" y="404.5722">USB</text><!--MD5=[b9054ceda0624a160488303b0e47dfe5]
link E to IV--><path d="M357.0947,163.1053 C357.0947,188.8153 357.0947,220.7253 357.0947,238.4753 " fill="none" id="E-to-IV" style="stroke:#A80036;stroke-width:1.0;"/><polygon fill="#A80036" points="357.0947,243.9233,361.0947,234.9233,357.0947,238.9233,353.0947,234.9233,357.0947,243.9233" style="stroke:#A80036;stroke-width:1.0;"/><!--MD5=[40c065a19c9ba7818696e0955370d989]
link IV to MAV--><path d="M357.0947,262.4193 C357.0947,284.1963 357.0947,343.2563 357.0947,379.8713 " fill="none" id="IV-MAV" style="stroke:#A80036;stroke-width:1.0;"/><polygon fill="#000000" points="362.0947,325.5717,365.0336,316.5266,359.1557,316.5266,362.0947,325.5717" style="stroke:#000000;stroke-width:1.0;"/><text fill="#000000" font-family="sans-serif" font-size="13" lengthAdjust="spacing" textLength="29" x="371.0947" y="325.0722">vote</text><!--MD5=[16dac5e63e1e4c2b3a2c1e210009808c]
link MAV to IEV--><path d="M344.0087,443.2893 C330.7947,474.3743 311.0237,520.8863 301.5447,543.1843 " fill="none" id="MAV-to-IEV" style="stroke:#A80036;stroke-width:1.0;"/><polygon fill="#A80036" points="299.5777,547.8113,306.7794,541.093,301.5335,543.2097,299.4168,537.9638,299.5777,547.8113" style="stroke:#A80036;stroke-width:1.0;"/><text fill="#000000" font-family="sans-serif" font-size="13" lengthAdjust="spacing" textLength="7" x="333.9506" y="462.6489">*</text><!--MD5=[ed5ef0db0752f3fbb4ff3e447d26ec90]
link IEV to SL--><path d="M297.7977,566.0213 C302.0557,584.4423 314.6947,630.4343 340.0947,659.5053 C353.6017,674.9643 371.4117,688.0073 388.9697,698.4693 " fill="none" id="IEV-SL" style="stroke:#A80036;stroke-width:1.0;"/><polygon fill="#000000" points="347.9297,647.6903,345.2219,638.5733,340.3802,641.9061,347.9297,647.6903" style="stroke:#000000;stroke-width:1.0;"/><text fill="#000000" font-family="sans-serif" font-size="13" lengthAdjust="spacing" textLength="113" x="354.0947" y="648.0722">enregistre le vote</text><!--MD5=[396a30e854d9a91ac68a7d778a3976ad]
link S to IMOP--><path d="M885.2547,597.6663 C886.3647,635.6403 887.9757,690.7423 888.7077,715.7613 " fill="none" id="S-to-IMOP" style="stroke:#A80036;stroke-width:1.0;"/><polygon fill="#A80036" points="888.8577,720.9013,892.5936,711.7886,888.7119,715.9034,884.597,712.0217,888.8577,720.9013" style="stroke:#A80036;stroke-width:1.0;"/><!--MD5=[2af70900209babf0c8cdb9bca724e973]
link IMOP to SC--><path d="M884.2897,739.1683 C873.8597,756.7973 848.2237,799.6503 825.0947,834.5053 C818.5397,844.3833 811.1427,854.9753 804.3557,864.4923 " fill="none" id="IMOP-SC" style="stroke:#A80036;stroke-width:1.0;"/><text fill="#000000" font-family="sans-serif" font-size="13" lengthAdjust="spacing" textLength="155" x="846.0947" y="815.5722">gère organismes presse</text><polygon fill="#000000" points="924.7834,821.989,917.4416,828.0346,922.3973,831.1954,924.7834,821.989" style="stroke:#000000;stroke-width:1.0;"/><text fill="#000000" font-family="sans-serif" font-size="13" lengthAdjust="spacing" textLength="0" x="934.0947" y="830.705"/><!--MD5=[c0d99f6252956f2f1afe3fe6b0aeafe3]
reverse link IROP to OP--><path d="M782.0947,1047.9853 C782.0947,1065.7233 782.0947,1097.6643 782.0947,1123.393 " fill="none" id="IROP-backto-OP" style="stroke:#A80036;stroke-width:1.0;"/><polygon fill="#A80036" points="782.0947,1042.5433,778.0947,1051.5433,782.0947,1047.5433,786.0947,1051.5433,782.0947,1042.5433" style="stroke:#A80036;stroke-width:1.0;"/><!--MD5=[58dc4e9ef8a9df2a26fb92fa9ba3fbb3]
link SC to IROP--><path d="M782.0947,927.7523 C782.0947,959.1413 782.0947,1005.8173 782.0947,1024.4243 " fill="none" id="SC-IROP" style="stroke:#A80036;stroke-width:1.0;"/><text fill="#000000" font-family="sans-serif" font-size="13" lengthAdjust="spacing" textLength="75" x="783.0947" y="970.5722">s'enregistre</text><!--MD5=[ebd22d556a4b0311e7f9e9283da2adcb]
link SL to SC--><path d="M476.6167,761.7003 C494.5177,784.9983 522.0237,816.0703 553.0947,834.5053 C598.9807,861.7303 657.1797,876.8993 703.4227,885.2393 " fill="none" id="SL-SC" style="stroke:#A80036;stroke-width:1.0;"/><polygon fill="#000000" points="562.4856,820.9634,555.9482,814.0559,553.1366,819.2177,562.4856,820.9634" style="stroke:#000000;stroke-width:1.0;"/><text fill="#000000" font-family="sans-serif" font-size="13" lengthAdjust="spacing" textLength="114" x="567.0947" y="823.0722">Compile les votes</text><text fill="#000000" font-family="sans-serif" font-size="13" lengthAdjust="spacing" textLength="7" x="472.9395" y="781.0435">*</text><!--MD5=[47f0837ce3100b4bf601ecd982b46bfc]
link P to ICE--><path d="M537.9547,452.0973 C528.6617,482.4063 516.4087,522.3693 510.1517,542.7743 " fill="none" id="P-to-ICE" style="stroke:#A80036;stroke-width:1.0;"/><polygon fill="#A80036" points="508.6237,547.7563,515.0864,540.3244,510.0895,542.976,507.4379,537.9791,508.6237,547.7563" style="stroke:#A80036;stroke-width:1.0;"/><!--MD5=[210d245279646d864dcca8084dfc90c2]
link ICE to SL--><path d="M503.6347,566.2533 C496.6107,589.8033 476.1987,658.2433 464.1987,698.4803 " fill="none" id="ICE-SL" style="stroke:#A80036;stroke-width:1.0;"/><text fill="#000000" font-family="sans-serif" font-size="13" lengthAdjust="spacing" textLength="148" x="487.0947" y="640.5722">confirme code electeur</text><polygon fill="#000000" points="561.0237,646.4131,555.6222,654.2409,561.2549,655.9209,561.0237,646.4131" style="stroke:#000000;stroke-width:1.0;"/><text fill="#000000" font-family="sans-serif" font-size="13" lengthAdjust="spacing" textLength="0" x="571.5947" y="655.705"/><!--MD5=[93d5c6eefc3d73702074b99f8c8da5eb]
link AC to IAdminC--><path d="M700.0947,597.6663 C700.0947,635.6403 700.0947,690.7423 700.0947,715.7613 " fill="none" id="AC-to-IAdminC" style="stroke:#A80036;stroke-width:1.0;"/><polygon fill="#A80036" points="700.0947,720.9013,704.0947,711.9013,700.0947,715.9013,696.0947,711.9013,700.0947,720.9013" style="stroke:#A80036;stroke-width:1.0;"/><!--MD5=[0266ceca922733e67a03289d2801a30a]
link IAdminC to SC--><path d="M697.4977,739.1033 C692.1467,757.3373 681.7097,802.5123 698.0947,834.5053 C704.0747,846.1823 713.4747,856.1193 723.8587,864.3593 " fill="none" id="IAdminC-SC" style="stroke:#A80036;stroke-width:1.0;"/><polygon fill="#000000" points="704.1244,823.4645,705.1375,814.0081,699.3857,815.2186,704.1244,823.4645" style="stroke:#000000;stroke-width:1.0;"/><text fill="#000000" font-family="sans-serif" font-size="13" lengthAdjust="spacing" textLength="108" x="712.0947" y="823.0722">configure reseau</text><!--MD5=[e128b955dd7da2b0dc3a5a29a00be6bd]
@startuml
title Vue de contexte
title Vue de contexte
cloud BureauScrutin{
  package Kiosque {
    node MachineAVoter <<Tablette numérique>> as MAV
    node Imprimante
    
  }
  interface "IAdmin" as IAdmin
  interface "IVote" as IV
  interface "IEnregistrementVote" as IEV
  Actor Adminstrateur as AL
  Node ServeurLocal <<Serveur>> as SL
  Actor PreposeAuTable as P
  Actor Electeur as E
  interface "IConfirmeElecteur" as ICE


}

interface "IAdminCentral" as IAdminC
interface "IManageOrganismePress" as IMOP 
interface "IResultatVotes" as IROP
Node ServeurCentrale <<Serveur>> as SC
Actor Secretaire as S
Actor OrganismeDePresse as OP
Actor Administrateur as AC
cloud BureauDirecteurElection{
  node AfficheurResultatElection as ARE 
}

interface "IAfficheur" as IARE
ARE "1" - -> "1" IARE
IARE - - SC: notifié  par > 

AL -r-> IAdmin
IAdmin -r- SL: configure >

MAV -l- Imprimante: USB >
E - -> IV 
IV - - MAV: vote >

MAV "*" - -> IEV 
IEV - -  SL: enregistre le vote >

S  - -> IMOP 
IMOP - -  SC: gère organismes presse \n <

OP -u-> IROP 
IROP -u- SC: s'enregistre >

SL "*" - - SC: Compile les votes >
P - -> ICE 
ICE - - SL: confirme code electeur \n <

AC - -> IAdminC 
IAdminC - - SC: configure reseau >
@enduml

PlantUML version 1.2021.15beta8(Unknown compile time)
(GPL source distribution)
Java Runtime: Java(TM) SE Runtime Environment
JVM: Java HotSpot(TM) 64-Bit Server VM
Default Encoding: UTF-8
Language: en
Country: US
--></g></svg>