<?xml version="1.0" encoding="UTF-8" standalone="no"?><svg xmlns="http://www.w3.org/2000/svg" xmlns:xlink="http://www.w3.org/1999/xlink" contentScriptType="application/ecmascript" contentStyleType="text/css" height="602px" preserveAspectRatio="none" style="width:1665px;height:602px;background:#FFFFFF;" version="1.1" viewBox="0 0 1665 602" width="1665px" zoomAndPan="magnify"><defs><filter height="300%" id="f19u3zfj5xz5m9" width="300%" x="-1" y="-1"><feGaussianBlur result="blurOut" stdDeviation="2.0"/><feColorMatrix in="blurOut" result="blurOut2" type="matrix" values="0 0 0 0 0 0 0 0 0 0 0 0 0 0 0 0 0 0 .4 0"/><feOffset dx="4.0" dy="4.0" in="blurOut2" result="blurOut3"/><feBlend in="SourceGraphic" in2="blurOut3" mode="normal"/></filter></defs><g><!--MD5=[9f7afe980c479737e08379884d00e75f]
cluster MAV--><polygon fill="#FFFFFF" filter="url(#f19u3zfj5xz5m9)" points="16,19,145,19,152,41.2969,170,41.2969,170,118,16,118,16,19" style="stroke:#000000;stroke-width:1.5;"/><line style="stroke:#000000;stroke-width:1.5;" x1="16" x2="152" y1="41.2969" y2="41.2969"/><text fill="#000000" font-family="sans-serif" font-size="14" font-weight="bold" lengthAdjust="spacing" textLength="123" x="20" y="33.9951">MachineAVoter</text><!--MD5=[3acab886ff7c6253e77e5894d15c1479]
cluster SL--><polygon fill="#FFFFFF" filter="url(#f19u3zfj5xz5m9)" points="194,6,304,6,311,28.2969,756,28.2969,756,275,194,275,194,6" style="stroke:#000000;stroke-width:1.5;"/><line style="stroke:#000000;stroke-width:1.5;" x1="194" x2="311" y1="28.2969" y2="28.2969"/><text fill="#000000" font-family="sans-serif" font-size="14" font-weight="bold" lengthAdjust="spacing" textLength="104" x="198" y="20.9951">ServeurLocal</text><!--MD5=[9fed1de97e249877c25a9114d002e760]
cluster SC--><polygon fill="#FFFFFF" filter="url(#f19u3zfj5xz5m9)" points="780,6,915,6,922,28.2969,1642,28.2969,1642,595,780,595,780,6" style="stroke:#000000;stroke-width:1.5;"/><line style="stroke:#000000;stroke-width:1.5;" x1="780" x2="922" y1="28.2969" y2="28.2969"/><text fill="#000000" font-family="sans-serif" font-size="14" font-weight="bold" lengthAdjust="spacing" textLength="129" x="784" y="20.9951">ServeurCentrale</text><!--MD5=[52e6941555e573b2bcbecf835dc5d0bf]
class controleurVote--><rect codeLine="2" fill="#FEFECE" filter="url(#f19u3zfj5xz5m9)" height="48" id="controleurVote" style="stroke:#A80036;stroke-width:1.5;" width="122" x="32" y="54"/><ellipse cx="47" cy="70" fill="#ADD1B2" rx="11" ry="11" style="stroke:#A80036;stroke-width:1.0;"/><path d="M49.3438,65.6719 C48.4063,65.2344 47.8125,65.0938 46.9375,65.0938 C44.3125,65.0938 42.3125,67.1719 42.3125,69.8906 L42.3125,71.0156 C42.3125,73.5938 44.4219,75.4844 47.3125,75.4844 C48.5313,75.4844 49.6875,75.1875 50.4375,74.6406 C51.0156,74.2344 51.3438,73.7813 51.3438,73.3906 C51.3438,72.9375 50.9531,72.5469 50.4844,72.5469 C50.2656,72.5469 50.0625,72.625 49.875,72.8125 C49.4219,73.2969 49.4219,73.2969 49.2344,73.3906 C48.8125,73.6563 48.125,73.7813 47.3594,73.7813 C45.3125,73.7813 44.0156,72.6875 44.0156,70.9844 L44.0156,69.8906 C44.0156,68.1094 45.2656,66.7969 47,66.7969 C47.5781,66.7969 48.1875,66.9531 48.6563,67.2031 C49.1406,67.4844 49.3125,67.7031 49.4063,68.1094 C49.4688,68.5156 49.5,68.6406 49.6406,68.7656 C49.7813,68.9063 50.0156,69.0156 50.2344,69.0156 C50.5,69.0156 50.7656,68.875 50.9375,68.6563 C51.0469,68.5 51.0781,68.3125 51.0781,67.8906 L51.0781,66.4688 C51.0781,66.0313 51.0625,65.9063 50.9688,65.75 C50.8125,65.4844 50.5313,65.3438 50.2344,65.3438 C49.9375,65.3438 49.7344,65.4375 49.5156,65.75 L49.3438,65.6719 Z " fill="#000000"/><text fill="#000000" font-family="sans-serif" font-size="12" lengthAdjust="spacing" textLength="90" x="61" y="74.1543">controleurVote</text><line style="stroke:#A80036;stroke-width:1.5;" x1="33" x2="153" y1="86" y2="86"/><line style="stroke:#A80036;stroke-width:1.5;" x1="33" x2="153" y1="94" y2="94"/><!--MD5=[6987bc66bd8845192e2addfb47d98466]
class Vote--><rect codeLine="5" fill="#FEFECE" filter="url(#f19u3zfj5xz5m9)" height="48" id="Vote" style="stroke:#A80036;stroke-width:1.5;" width="60" x="624" y="211"/><ellipse cx="639" cy="227" fill="#ADD1B2" rx="11" ry="11" style="stroke:#A80036;stroke-width:1.0;"/><path d="M641.3438,222.6719 C640.4063,222.2344 639.8125,222.0938 638.9375,222.0938 C636.3125,222.0938 634.3125,224.1719 634.3125,226.8906 L634.3125,228.0156 C634.3125,230.5938 636.4219,232.4844 639.3125,232.4844 C640.5313,232.4844 641.6875,232.1875 642.4375,231.6406 C643.0156,231.2344 643.3438,230.7813 643.3438,230.3906 C643.3438,229.9375 642.9531,229.5469 642.4844,229.5469 C642.2656,229.5469 642.0625,229.625 641.875,229.8125 C641.4219,230.2969 641.4219,230.2969 641.2344,230.3906 C640.8125,230.6563 640.125,230.7813 639.3594,230.7813 C637.3125,230.7813 636.0156,229.6875 636.0156,227.9844 L636.0156,226.8906 C636.0156,225.1094 637.2656,223.7969 639,223.7969 C639.5781,223.7969 640.1875,223.9531 640.6563,224.2031 C641.1406,224.4844 641.3125,224.7031 641.4063,225.1094 C641.4688,225.5156 641.5,225.6406 641.6406,225.7656 C641.7813,225.9063 642.0156,226.0156 642.2344,226.0156 C642.5,226.0156 642.7656,225.875 642.9375,225.6563 C643.0469,225.5 643.0781,225.3125 643.0781,224.8906 L643.0781,223.4688 C643.0781,223.0313 643.0625,222.9063 642.9688,222.75 C642.8125,222.4844 642.5313,222.3438 642.2344,222.3438 C641.9375,222.3438 641.7344,222.4375 641.5156,222.75 L641.3438,222.6719 Z " fill="#000000"/><text fill="#000000" font-family="sans-serif" font-size="12" lengthAdjust="spacing" textLength="28" x="653" y="231.1543">Vote</text><line style="stroke:#A80036;stroke-width:1.5;" x1="625" x2="683" y1="243" y2="243"/><line style="stroke:#A80036;stroke-width:1.5;" x1="625" x2="683" y1="251" y2="251"/><!--MD5=[f3891684c8ddb92ebf73c047fa385527]
class ServeurLocal::Candidat--><rect fill="#FEFECE" filter="url(#f19u3zfj5xz5m9)" height="48" id="ServeurLocal::Candidat" style="stroke:#A80036;stroke-width:1.5;" width="171" x="568.5" y="54"/><ellipse cx="583.5" cy="70" fill="#ADD1B2" rx="11" ry="11" style="stroke:#A80036;stroke-width:1.0;"/><path d="M585.8438,65.6719 C584.9063,65.2344 584.3125,65.0938 583.4375,65.0938 C580.8125,65.0938 578.8125,67.1719 578.8125,69.8906 L578.8125,71.0156 C578.8125,73.5938 580.9219,75.4844 583.8125,75.4844 C585.0313,75.4844 586.1875,75.1875 586.9375,74.6406 C587.5156,74.2344 587.8438,73.7813 587.8438,73.3906 C587.8438,72.9375 587.4531,72.5469 586.9844,72.5469 C586.7656,72.5469 586.5625,72.625 586.375,72.8125 C585.9219,73.2969 585.9219,73.2969 585.7344,73.3906 C585.3125,73.6563 584.625,73.7813 583.8594,73.7813 C581.8125,73.7813 580.5156,72.6875 580.5156,70.9844 L580.5156,69.8906 C580.5156,68.1094 581.7656,66.7969 583.5,66.7969 C584.0781,66.7969 584.6875,66.9531 585.1563,67.2031 C585.6406,67.4844 585.8125,67.7031 585.9063,68.1094 C585.9688,68.5156 586,68.6406 586.1406,68.7656 C586.2813,68.9063 586.5156,69.0156 586.7344,69.0156 C587,69.0156 587.2656,68.875 587.4375,68.6563 C587.5469,68.5 587.5781,68.3125 587.5781,67.8906 L587.5781,66.4688 C587.5781,66.0313 587.5625,65.9063 587.4688,65.75 C587.3125,65.4844 587.0313,65.3438 586.7344,65.3438 C586.4375,65.3438 586.2344,65.4375 586.0156,65.75 L585.8438,65.6719 Z " fill="#000000"/><text fill="#000000" font-family="sans-serif" font-size="12" lengthAdjust="spacing" textLength="139" x="597.5" y="74.1543">ServeurLocal::Candidat</text><line style="stroke:#A80036;stroke-width:1.5;" x1="569.5" x2="738.5" y1="86" y2="86"/><line style="stroke:#A80036;stroke-width:1.5;" x1="569.5" x2="738.5" y1="94" y2="94"/><!--MD5=[03cd18833b71fc52dcaba95229b563fe]
class ServeurLocal::Electeur--><rect codeLine="7" fill="#FEFECE" filter="url(#f19u3zfj5xz5m9)" height="73.6094" id="ServeurLocal::Electeur" style="stroke:#A80036;stroke-width:1.5;" width="173" x="360.5" y="41"/><ellipse cx="377.75" cy="57" fill="#ADD1B2" rx="11" ry="11" style="stroke:#A80036;stroke-width:1.0;"/><path d="M380.0938,52.6719 C379.1563,52.2344 378.5625,52.0938 377.6875,52.0938 C375.0625,52.0938 373.0625,54.1719 373.0625,56.8906 L373.0625,58.0156 C373.0625,60.5938 375.1719,62.4844 378.0625,62.4844 C379.2813,62.4844 380.4375,62.1875 381.1875,61.6406 C381.7656,61.2344 382.0938,60.7813 382.0938,60.3906 C382.0938,59.9375 381.7031,59.5469 381.2344,59.5469 C381.0156,59.5469 380.8125,59.625 380.625,59.8125 C380.1719,60.2969 380.1719,60.2969 379.9844,60.3906 C379.5625,60.6563 378.875,60.7813 378.1094,60.7813 C376.0625,60.7813 374.7656,59.6875 374.7656,57.9844 L374.7656,56.8906 C374.7656,55.1094 376.0156,53.7969 377.75,53.7969 C378.3281,53.7969 378.9375,53.9531 379.4063,54.2031 C379.8906,54.4844 380.0625,54.7031 380.1563,55.1094 C380.2188,55.5156 380.25,55.6406 380.3906,55.7656 C380.5313,55.9063 380.7656,56.0156 380.9844,56.0156 C381.25,56.0156 381.5156,55.875 381.6875,55.6563 C381.7969,55.5 381.8281,55.3125 381.8281,54.8906 L381.8281,53.4688 C381.8281,53.0313 381.8125,52.9063 381.7188,52.75 C381.5625,52.4844 381.2813,52.3438 380.9844,52.3438 C380.6875,52.3438 380.4844,52.4375 380.2656,52.75 L380.0938,52.6719 Z " fill="#000000"/><text fill="#000000" font-family="sans-serif" font-size="12" lengthAdjust="spacing" textLength="136" x="392.25" y="61.1543">ServeurLocal::Electeur</text><line style="stroke:#A80036;stroke-width:1.5;" x1="361.5" x2="532.5" y1="73" y2="73"/><text fill="#000000" font-family="sans-serif" font-size="11" lengthAdjust="spacing" textLength="111" x="366.5" y="87.2104">code:unsigned long</text><text fill="#000000" font-family="sans-serif" font-size="11" lengthAdjust="spacing" textLength="161" x="366.5" y="100.0151">confirmationVote: DateTime</text><line style="stroke:#A80036;stroke-width:1.5;" x1="361.5" x2="532.5" y1="106.6094" y2="106.6094"/><!--MD5=[7fb374fb88a8149b1f23d45c274a5297]
class PreposeTable--><rect codeLine="11" fill="#FEFECE" filter="url(#f19u3zfj5xz5m9)" height="48" id="PreposeTable" style="stroke:#A80036;stroke-width:1.5;" width="115" x="210.5" y="54"/><ellipse cx="225.5" cy="70" fill="#ADD1B2" rx="11" ry="11" style="stroke:#A80036;stroke-width:1.0;"/><path d="M227.8438,65.6719 C226.9063,65.2344 226.3125,65.0938 225.4375,65.0938 C222.8125,65.0938 220.8125,67.1719 220.8125,69.8906 L220.8125,71.0156 C220.8125,73.5938 222.9219,75.4844 225.8125,75.4844 C227.0313,75.4844 228.1875,75.1875 228.9375,74.6406 C229.5156,74.2344 229.8438,73.7813 229.8438,73.3906 C229.8438,72.9375 229.4531,72.5469 228.9844,72.5469 C228.7656,72.5469 228.5625,72.625 228.375,72.8125 C227.9219,73.2969 227.9219,73.2969 227.7344,73.3906 C227.3125,73.6563 226.625,73.7813 225.8594,73.7813 C223.8125,73.7813 222.5156,72.6875 222.5156,70.9844 L222.5156,69.8906 C222.5156,68.1094 223.7656,66.7969 225.5,66.7969 C226.0781,66.7969 226.6875,66.9531 227.1563,67.2031 C227.6406,67.4844 227.8125,67.7031 227.9063,68.1094 C227.9688,68.5156 228,68.6406 228.1406,68.7656 C228.2813,68.9063 228.5156,69.0156 228.7344,69.0156 C229,69.0156 229.2656,68.875 229.4375,68.6563 C229.5469,68.5 229.5781,68.3125 229.5781,67.8906 L229.5781,66.4688 C229.5781,66.0313 229.5625,65.9063 229.4688,65.75 C229.3125,65.4844 229.0313,65.3438 228.7344,65.3438 C228.4375,65.3438 228.2344,65.4375 228.0156,65.75 L227.8438,65.6719 Z " fill="#000000"/><text fill="#000000" font-family="sans-serif" font-size="12" lengthAdjust="spacing" textLength="83" x="239.5" y="74.1543">PreposeTable</text><line style="stroke:#A80036;stroke-width:1.5;" x1="211.5" x2="324.5" y1="86" y2="86"/><line style="stroke:#A80036;stroke-width:1.5;" x1="211.5" x2="324.5" y1="94" y2="94"/><!--MD5=[411098a42940388116551704cc8e8f89]
class OrganismePress--><rect codeLine="16" fill="#FEFECE" filter="url(#f19u3zfj5xz5m9)" height="99.2188" id="OrganismePress" style="stroke:#A80036;stroke-width:1.5;" width="146" x="1480" y="355"/><ellipse cx="1501.75" cy="371" fill="#ADD1B2" rx="11" ry="11" style="stroke:#A80036;stroke-width:1.0;"/><path d="M1504.0938,366.6719 C1503.1563,366.2344 1502.5625,366.0938 1501.6875,366.0938 C1499.0625,366.0938 1497.0625,368.1719 1497.0625,370.8906 L1497.0625,372.0156 C1497.0625,374.5938 1499.1719,376.4844 1502.0625,376.4844 C1503.2813,376.4844 1504.4375,376.1875 1505.1875,375.6406 C1505.7656,375.2344 1506.0938,374.7813 1506.0938,374.3906 C1506.0938,373.9375 1505.7031,373.5469 1505.2344,373.5469 C1505.0156,373.5469 1504.8125,373.625 1504.625,373.8125 C1504.1719,374.2969 1504.1719,374.2969 1503.9844,374.3906 C1503.5625,374.6563 1502.875,374.7813 1502.1094,374.7813 C1500.0625,374.7813 1498.7656,373.6875 1498.7656,371.9844 L1498.7656,370.8906 C1498.7656,369.1094 1500.0156,367.7969 1501.75,367.7969 C1502.3281,367.7969 1502.9375,367.9531 1503.4063,368.2031 C1503.8906,368.4844 1504.0625,368.7031 1504.1563,369.1094 C1504.2188,369.5156 1504.25,369.6406 1504.3906,369.7656 C1504.5313,369.9063 1504.7656,370.0156 1504.9844,370.0156 C1505.25,370.0156 1505.5156,369.875 1505.6875,369.6563 C1505.7969,369.5 1505.8281,369.3125 1505.8281,368.8906 L1505.8281,367.4688 C1505.8281,367.0313 1505.8125,366.9063 1505.7188,366.75 C1505.5625,366.4844 1505.2813,366.3438 1504.9844,366.3438 C1504.6875,366.3438 1504.4844,366.4375 1504.2656,366.75 L1504.0938,366.6719 Z " fill="#000000"/><text fill="#000000" font-family="sans-serif" font-size="12" lengthAdjust="spacing" textLength="99" x="1517.25" y="375.1543">OrganismePress</text><line style="stroke:#A80036;stroke-width:1.5;" x1="1481" x2="1625" y1="387" y2="387"/><text fill="#000000" font-family="sans-serif" font-size="11" lengthAdjust="spacing" textLength="61" x="1486" y="401.2104">nom:String</text><text fill="#000000" font-family="sans-serif" font-size="11" lengthAdjust="spacing" textLength="72" x="1486" y="414.0151">token: String</text><text fill="#000000" font-family="sans-serif" font-size="11" lengthAdjust="spacing" textLength="54" x="1486" y="426.8198">url: String</text><text fill="#000000" font-family="sans-serif" font-size="11" lengthAdjust="spacing" textLength="134" x="1486" y="439.6245">tokenOrganisme: String</text><line style="stroke:#A80036;stroke-width:1.5;" x1="1481" x2="1625" y1="446.2188" y2="446.2188"/><!--MD5=[dafc7cd2225f30ed5660721652306f69]
class Election--><rect codeLine="23" fill="#FEFECE" filter="url(#f19u3zfj5xz5m9)" height="48" id="Election" style="stroke:#A80036;stroke-width:1.5;" width="79" x="1203.5" y="531"/><ellipse cx="1218.5" cy="547" fill="#ADD1B2" rx="11" ry="11" style="stroke:#A80036;stroke-width:1.0;"/><path d="M1220.8438,542.6719 C1219.9063,542.2344 1219.3125,542.0938 1218.4375,542.0938 C1215.8125,542.0938 1213.8125,544.1719 1213.8125,546.8906 L1213.8125,548.0156 C1213.8125,550.5938 1215.9219,552.4844 1218.8125,552.4844 C1220.0313,552.4844 1221.1875,552.1875 1221.9375,551.6406 C1222.5156,551.2344 1222.8438,550.7813 1222.8438,550.3906 C1222.8438,549.9375 1222.4531,549.5469 1221.9844,549.5469 C1221.7656,549.5469 1221.5625,549.625 1221.375,549.8125 C1220.9219,550.2969 1220.9219,550.2969 1220.7344,550.3906 C1220.3125,550.6563 1219.625,550.7813 1218.8594,550.7813 C1216.8125,550.7813 1215.5156,549.6875 1215.5156,547.9844 L1215.5156,546.8906 C1215.5156,545.1094 1216.7656,543.7969 1218.5,543.7969 C1219.0781,543.7969 1219.6875,543.9531 1220.1563,544.2031 C1220.6406,544.4844 1220.8125,544.7031 1220.9063,545.1094 C1220.9688,545.5156 1221,545.6406 1221.1406,545.7656 C1221.2813,545.9063 1221.5156,546.0156 1221.7344,546.0156 C1222,546.0156 1222.2656,545.875 1222.4375,545.6563 C1222.5469,545.5 1222.5781,545.3125 1222.5781,544.8906 L1222.5781,543.4688 C1222.5781,543.0313 1222.5625,542.9063 1222.4688,542.75 C1222.3125,542.4844 1222.0313,542.3438 1221.7344,542.3438 C1221.4375,542.3438 1221.2344,542.4375 1221.0156,542.75 L1220.8438,542.6719 Z " fill="#000000"/><text fill="#000000" font-family="sans-serif" font-size="12" lengthAdjust="spacing" textLength="47" x="1232.5" y="551.1543">Election</text><line style="stroke:#A80036;stroke-width:1.5;" x1="1204.5" x2="1281.5" y1="563" y2="563"/><line style="stroke:#A80036;stroke-width:1.5;" x1="1204.5" x2="1281.5" y1="571" y2="571"/><!--MD5=[0530db4f5f05820e798c1600d185c71d]
class Candidat--><rect codeLine="26" fill="#FEFECE" filter="url(#f19u3zfj5xz5m9)" height="73.6094" id="Candidat" style="stroke:#A80036;stroke-width:1.5;" width="109" x="956.5" y="198"/><ellipse cx="982.75" cy="214" fill="#ADD1B2" rx="11" ry="11" style="stroke:#A80036;stroke-width:1.0;"/><path d="M985.0938,209.6719 C984.1563,209.2344 983.5625,209.0938 982.6875,209.0938 C980.0625,209.0938 978.0625,211.1719 978.0625,213.8906 L978.0625,215.0156 C978.0625,217.5938 980.1719,219.4844 983.0625,219.4844 C984.2813,219.4844 985.4375,219.1875 986.1875,218.6406 C986.7656,218.2344 987.0938,217.7813 987.0938,217.3906 C987.0938,216.9375 986.7031,216.5469 986.2344,216.5469 C986.0156,216.5469 985.8125,216.625 985.625,216.8125 C985.1719,217.2969 985.1719,217.2969 984.9844,217.3906 C984.5625,217.6563 983.875,217.7813 983.1094,217.7813 C981.0625,217.7813 979.7656,216.6875 979.7656,214.9844 L979.7656,213.8906 C979.7656,212.1094 981.0156,210.7969 982.75,210.7969 C983.3281,210.7969 983.9375,210.9531 984.4063,211.2031 C984.8906,211.4844 985.0625,211.7031 985.1563,212.1094 C985.2188,212.5156 985.25,212.6406 985.3906,212.7656 C985.5313,212.9063 985.7656,213.0156 985.9844,213.0156 C986.25,213.0156 986.5156,212.875 986.6875,212.6563 C986.7969,212.5 986.8281,212.3125 986.8281,211.8906 L986.8281,210.4688 C986.8281,210.0313 986.8125,209.9063 986.7188,209.75 C986.5625,209.4844 986.2813,209.3438 985.9844,209.3438 C985.6875,209.3438 985.4844,209.4375 985.2656,209.75 L985.0938,209.6719 Z " fill="#000000"/><text fill="#000000" font-family="sans-serif" font-size="12" lengthAdjust="spacing" textLength="52" x="999.25" y="218.1543">Candidat</text><line style="stroke:#A80036;stroke-width:1.5;" x1="957.5" x2="1064.5" y1="230" y2="230"/><text fill="#000000" font-family="sans-serif" font-size="11" lengthAdjust="spacing" textLength="97" x="962.5" y="244.2104">id: unsigned long</text><text fill="#000000" font-family="sans-serif" font-size="11" lengthAdjust="spacing" textLength="61" x="962.5" y="257.0151">nom:String</text><line style="stroke:#A80036;stroke-width:1.5;" x1="957.5" x2="1064.5" y1="263.6094" y2="263.6094"/><!--MD5=[fc45ad660f87b1bb25e99a8f0360474e]
class Circonscription--><rect codeLine="31" fill="#FEFECE" filter="url(#f19u3zfj5xz5m9)" height="60.8047" id="Circonscription" style="stroke:#A80036;stroke-width:1.5;" width="122" x="796" y="374"/><ellipse cx="811" cy="390" fill="#ADD1B2" rx="11" ry="11" style="stroke:#A80036;stroke-width:1.0;"/><path d="M813.3438,385.6719 C812.4063,385.2344 811.8125,385.0938 810.9375,385.0938 C808.3125,385.0938 806.3125,387.1719 806.3125,389.8906 L806.3125,391.0156 C806.3125,393.5938 808.4219,395.4844 811.3125,395.4844 C812.5313,395.4844 813.6875,395.1875 814.4375,394.6406 C815.0156,394.2344 815.3438,393.7813 815.3438,393.3906 C815.3438,392.9375 814.9531,392.5469 814.4844,392.5469 C814.2656,392.5469 814.0625,392.625 813.875,392.8125 C813.4219,393.2969 813.4219,393.2969 813.2344,393.3906 C812.8125,393.6563 812.125,393.7813 811.3594,393.7813 C809.3125,393.7813 808.0156,392.6875 808.0156,390.9844 L808.0156,389.8906 C808.0156,388.1094 809.2656,386.7969 811,386.7969 C811.5781,386.7969 812.1875,386.9531 812.6563,387.2031 C813.1406,387.4844 813.3125,387.7031 813.4063,388.1094 C813.4688,388.5156 813.5,388.6406 813.6406,388.7656 C813.7813,388.9063 814.0156,389.0156 814.2344,389.0156 C814.5,389.0156 814.7656,388.875 814.9375,388.6563 C815.0469,388.5 815.0781,388.3125 815.0781,387.8906 L815.0781,386.4688 C815.0781,386.0313 815.0625,385.9063 814.9688,385.75 C814.8125,385.4844 814.5313,385.3438 814.2344,385.3438 C813.9375,385.3438 813.7344,385.4375 813.5156,385.75 L813.3438,385.6719 Z " fill="#000000"/><text fill="#000000" font-family="sans-serif" font-size="12" lengthAdjust="spacing" textLength="90" x="825" y="394.1543">Circonscription</text><line style="stroke:#A80036;stroke-width:1.5;" x1="797" x2="917" y1="406" y2="406"/><text fill="#000000" font-family="sans-serif" font-size="11" lengthAdjust="spacing" textLength="61" x="802" y="420.2104">nom:String</text><line style="stroke:#A80036;stroke-width:1.5;" x1="797" x2="917" y1="426.8047" y2="426.8047"/><!--MD5=[b406a7bb41714e67c103205048d48697]
class PartiePolitique--><rect codeLine="35" fill="#FEFECE" filter="url(#f19u3zfj5xz5m9)" height="60.8047" id="PartiePolitique" style="stroke:#A80036;stroke-width:1.5;" width="115" x="953.5" y="374"/><ellipse cx="968.5" cy="390" fill="#ADD1B2" rx="11" ry="11" style="stroke:#A80036;stroke-width:1.0;"/><path d="M970.8438,385.6719 C969.9063,385.2344 969.3125,385.0938 968.4375,385.0938 C965.8125,385.0938 963.8125,387.1719 963.8125,389.8906 L963.8125,391.0156 C963.8125,393.5938 965.9219,395.4844 968.8125,395.4844 C970.0313,395.4844 971.1875,395.1875 971.9375,394.6406 C972.5156,394.2344 972.8438,393.7813 972.8438,393.3906 C972.8438,392.9375 972.4531,392.5469 971.9844,392.5469 C971.7656,392.5469 971.5625,392.625 971.375,392.8125 C970.9219,393.2969 970.9219,393.2969 970.7344,393.3906 C970.3125,393.6563 969.625,393.7813 968.8594,393.7813 C966.8125,393.7813 965.5156,392.6875 965.5156,390.9844 L965.5156,389.8906 C965.5156,388.1094 966.7656,386.7969 968.5,386.7969 C969.0781,386.7969 969.6875,386.9531 970.1563,387.2031 C970.6406,387.4844 970.8125,387.7031 970.9063,388.1094 C970.9688,388.5156 971,388.6406 971.1406,388.7656 C971.2813,388.9063 971.5156,389.0156 971.7344,389.0156 C972,389.0156 972.2656,388.875 972.4375,388.6563 C972.5469,388.5 972.5781,388.3125 972.5781,387.8906 L972.5781,386.4688 C972.5781,386.0313 972.5625,385.9063 972.4688,385.75 C972.3125,385.4844 972.0313,385.3438 971.7344,385.3438 C971.4375,385.3438 971.2344,385.4375 971.0156,385.75 L970.8438,385.6719 Z " fill="#000000"/><text fill="#000000" font-family="sans-serif" font-size="12" lengthAdjust="spacing" textLength="83" x="982.5" y="394.1543">PartiePolitique</text><line style="stroke:#A80036;stroke-width:1.5;" x1="954.5" x2="1067.5" y1="406" y2="406"/><text fill="#000000" font-family="sans-serif" font-size="11" lengthAdjust="spacing" textLength="61" x="959.5" y="420.2104">nom:String</text><line style="stroke:#A80036;stroke-width:1.5;" x1="954.5" x2="1067.5" y1="426.8047" y2="426.8047"/><!--MD5=[7dac1f2aceb1de07cf040e48c49585fd]
class ElecteurVote--><rect codeLine="41" fill="#FEFECE" filter="url(#f19u3zfj5xz5m9)" height="60.8047" id="ElecteurVote" style="stroke:#A80036;stroke-width:1.5;" width="167" x="1277.5" y="374"/><ellipse cx="1318.6" cy="390" fill="#ADD1B2" rx="11" ry="11" style="stroke:#A80036;stroke-width:1.0;"/><path d="M1320.9438,385.6719 C1320.0063,385.2344 1319.4125,385.0938 1318.5375,385.0938 C1315.9125,385.0938 1313.9125,387.1719 1313.9125,389.8906 L1313.9125,391.0156 C1313.9125,393.5938 1316.0219,395.4844 1318.9125,395.4844 C1320.1313,395.4844 1321.2875,395.1875 1322.0375,394.6406 C1322.6156,394.2344 1322.9438,393.7813 1322.9438,393.3906 C1322.9438,392.9375 1322.5531,392.5469 1322.0844,392.5469 C1321.8656,392.5469 1321.6625,392.625 1321.475,392.8125 C1321.0219,393.2969 1321.0219,393.2969 1320.8344,393.3906 C1320.4125,393.6563 1319.725,393.7813 1318.9594,393.7813 C1316.9125,393.7813 1315.6156,392.6875 1315.6156,390.9844 L1315.6156,389.8906 C1315.6156,388.1094 1316.8656,386.7969 1318.6,386.7969 C1319.1781,386.7969 1319.7875,386.9531 1320.2563,387.2031 C1320.7406,387.4844 1320.9125,387.7031 1321.0063,388.1094 C1321.0688,388.5156 1321.1,388.6406 1321.2406,388.7656 C1321.3813,388.9063 1321.6156,389.0156 1321.8344,389.0156 C1322.1,389.0156 1322.3656,388.875 1322.5375,388.6563 C1322.6469,388.5 1322.6781,388.3125 1322.6781,387.8906 L1322.6781,386.4688 C1322.6781,386.0313 1322.6625,385.9063 1322.5688,385.75 C1322.4125,385.4844 1322.1313,385.3438 1321.8344,385.3438 C1321.5375,385.3438 1321.3344,385.4375 1321.1156,385.75 L1320.9438,385.6719 Z " fill="#000000"/><text fill="#000000" font-family="sans-serif" font-size="12" lengthAdjust="spacing" textLength="77" x="1338.4" y="394.1543">ElecteurVote</text><line style="stroke:#A80036;stroke-width:1.5;" x1="1278.5" x2="1443.5" y1="406" y2="406"/><text fill="#000000" font-family="sans-serif" font-size="11" lengthAdjust="spacing" textLength="155" x="1283.5" y="420.2104">confirmationVote:dateTime</text><line style="stroke:#A80036;stroke-width:1.5;" x1="1278.5" x2="1443.5" y1="426.8047" y2="426.8047"/><!--MD5=[bb7b6e72211488945cb3000ba6194bb6]
class Electeur--><rect codeLine="45" fill="#FEFECE" filter="url(#f19u3zfj5xz5m9)" height="86.4141" id="Electeur" style="stroke:#A80036;stroke-width:1.5;" width="88" x="1223" y="192"/><ellipse cx="1241.15" cy="208" fill="#ADD1B2" rx="11" ry="11" style="stroke:#A80036;stroke-width:1.0;"/><path d="M1243.4938,203.6719 C1242.5563,203.2344 1241.9625,203.0938 1241.0875,203.0938 C1238.4625,203.0938 1236.4625,205.1719 1236.4625,207.8906 L1236.4625,209.0156 C1236.4625,211.5938 1238.5719,213.4844 1241.4625,213.4844 C1242.6813,213.4844 1243.8375,213.1875 1244.5875,212.6406 C1245.1656,212.2344 1245.4938,211.7813 1245.4938,211.3906 C1245.4938,210.9375 1245.1031,210.5469 1244.6344,210.5469 C1244.4156,210.5469 1244.2125,210.625 1244.025,210.8125 C1243.5719,211.2969 1243.5719,211.2969 1243.3844,211.3906 C1242.9625,211.6563 1242.275,211.7813 1241.5094,211.7813 C1239.4625,211.7813 1238.1656,210.6875 1238.1656,208.9844 L1238.1656,207.8906 C1238.1656,206.1094 1239.4156,204.7969 1241.15,204.7969 C1241.7281,204.7969 1242.3375,204.9531 1242.8063,205.2031 C1243.2906,205.4844 1243.4625,205.7031 1243.5563,206.1094 C1243.6188,206.5156 1243.65,206.6406 1243.7906,206.7656 C1243.9313,206.9063 1244.1656,207.0156 1244.3844,207.0156 C1244.65,207.0156 1244.9156,206.875 1245.0875,206.6563 C1245.1969,206.5 1245.2281,206.3125 1245.2281,205.8906 L1245.2281,204.4688 C1245.2281,204.0313 1245.2125,203.9063 1245.1188,203.75 C1244.9625,203.4844 1244.6813,203.3438 1244.3844,203.3438 C1244.0875,203.3438 1243.8844,203.4375 1243.6656,203.75 L1243.4938,203.6719 Z " fill="#000000"/><text fill="#000000" font-family="sans-serif" font-size="12" lengthAdjust="spacing" textLength="49" x="1255.85" y="212.1543">Electeur</text><line style="stroke:#A80036;stroke-width:1.5;" x1="1224" x2="1310" y1="224" y2="224"/><text fill="#000000" font-family="sans-serif" font-size="11" lengthAdjust="spacing" textLength="76" x="1229" y="238.2104">prenon:String</text><text fill="#000000" font-family="sans-serif" font-size="11" lengthAdjust="spacing" textLength="61" x="1229" y="251.0151">nom:String</text><text fill="#000000" font-family="sans-serif" font-size="11" lengthAdjust="spacing" textLength="50" x="1229" y="263.8198">no:String</text><line style="stroke:#A80036;stroke-width:1.5;" x1="1224" x2="1310" y1="270.4141" y2="270.4141"/><!--MD5=[357dc57fa131182bbe91fc1f8004916c]
class CandidatVotes--><rect codeLine="50" fill="#FEFECE" filter="url(#f19u3zfj5xz5m9)" height="60.8047" id="CandidatVotes" style="stroke:#A80036;stroke-width:1.5;" width="139" x="1103.5" y="374"/><ellipse cx="1127.5" cy="390" fill="#ADD1B2" rx="11" ry="11" style="stroke:#A80036;stroke-width:1.0;"/><path d="M1129.8438,385.6719 C1128.9063,385.2344 1128.3125,385.0938 1127.4375,385.0938 C1124.8125,385.0938 1122.8125,387.1719 1122.8125,389.8906 L1122.8125,391.0156 C1122.8125,393.5938 1124.9219,395.4844 1127.8125,395.4844 C1129.0313,395.4844 1130.1875,395.1875 1130.9375,394.6406 C1131.5156,394.2344 1131.8438,393.7813 1131.8438,393.3906 C1131.8438,392.9375 1131.4531,392.5469 1130.9844,392.5469 C1130.7656,392.5469 1130.5625,392.625 1130.375,392.8125 C1129.9219,393.2969 1129.9219,393.2969 1129.7344,393.3906 C1129.3125,393.6563 1128.625,393.7813 1127.8594,393.7813 C1125.8125,393.7813 1124.5156,392.6875 1124.5156,390.9844 L1124.5156,389.8906 C1124.5156,388.1094 1125.7656,386.7969 1127.5,386.7969 C1128.0781,386.7969 1128.6875,386.9531 1129.1563,387.2031 C1129.6406,387.4844 1129.8125,387.7031 1129.9063,388.1094 C1129.9688,388.5156 1130,388.6406 1130.1406,388.7656 C1130.2813,388.9063 1130.5156,389.0156 1130.7344,389.0156 C1131,389.0156 1131.2656,388.875 1131.4375,388.6563 C1131.5469,388.5 1131.5781,388.3125 1131.5781,387.8906 L1131.5781,386.4688 C1131.5781,386.0313 1131.5625,385.9063 1131.4688,385.75 C1131.3125,385.4844 1131.0313,385.3438 1130.7344,385.3438 C1130.4375,385.3438 1130.2344,385.4375 1130.0156,385.75 L1129.8438,385.6719 Z " fill="#000000"/><text fill="#000000" font-family="sans-serif" font-size="12" lengthAdjust="spacing" textLength="87" x="1143.5" y="394.1543">CandidatVotes</text><line style="stroke:#A80036;stroke-width:1.5;" x1="1104.5" x2="1241.5" y1="406" y2="406"/><text fill="#000000" font-family="sans-serif" font-size="11" lengthAdjust="spacing" textLength="127" x="1109.5" y="420.2104">nombre:unsigned long</text><line style="stroke:#A80036;stroke-width:1.5;" x1="1104.5" x2="1241.5" y1="426.8047" y2="426.8047"/><!--MD5=[60ae0492841f67b63cfeabc6b596b865]
class Administrateur--><rect codeLine="53" fill="#FEFECE" filter="url(#f19u3zfj5xz5m9)" height="48" id="Administrateur" style="stroke:#A80036;stroke-width:1.5;" width="119" x="1346.5" y="211"/><ellipse cx="1361.5" cy="227" fill="#ADD1B2" rx="11" ry="11" style="stroke:#A80036;stroke-width:1.0;"/><path d="M1363.8438,222.6719 C1362.9063,222.2344 1362.3125,222.0938 1361.4375,222.0938 C1358.8125,222.0938 1356.8125,224.1719 1356.8125,226.8906 L1356.8125,228.0156 C1356.8125,230.5938 1358.9219,232.4844 1361.8125,232.4844 C1363.0313,232.4844 1364.1875,232.1875 1364.9375,231.6406 C1365.5156,231.2344 1365.8438,230.7813 1365.8438,230.3906 C1365.8438,229.9375 1365.4531,229.5469 1364.9844,229.5469 C1364.7656,229.5469 1364.5625,229.625 1364.375,229.8125 C1363.9219,230.2969 1363.9219,230.2969 1363.7344,230.3906 C1363.3125,230.6563 1362.625,230.7813 1361.8594,230.7813 C1359.8125,230.7813 1358.5156,229.6875 1358.5156,227.9844 L1358.5156,226.8906 C1358.5156,225.1094 1359.7656,223.7969 1361.5,223.7969 C1362.0781,223.7969 1362.6875,223.9531 1363.1563,224.2031 C1363.6406,224.4844 1363.8125,224.7031 1363.9063,225.1094 C1363.9688,225.5156 1364,225.6406 1364.1406,225.7656 C1364.2813,225.9063 1364.5156,226.0156 1364.7344,226.0156 C1365,226.0156 1365.2656,225.875 1365.4375,225.6563 C1365.5469,225.5 1365.5781,225.3125 1365.5781,224.8906 L1365.5781,223.4688 C1365.5781,223.0313 1365.5625,222.9063 1365.4688,222.75 C1365.3125,222.4844 1365.0313,222.3438 1364.7344,222.3438 C1364.4375,222.3438 1364.2344,222.4375 1364.0156,222.75 L1363.8438,222.6719 Z " fill="#000000"/><text fill="#000000" font-family="sans-serif" font-size="12" lengthAdjust="spacing" textLength="87" x="1375.5" y="231.1543">Administrateur</text><line style="stroke:#A80036;stroke-width:1.5;" x1="1347.5" x2="1464.5" y1="243" y2="243"/><line style="stroke:#A80036;stroke-width:1.5;" x1="1347.5" x2="1464.5" y1="251" y2="251"/><!--MD5=[d74497786751f99cf086603a7ee8a29e]
class AfficherresultatElection--><rect codeLine="54" fill="#FEFECE" filter="url(#f19u3zfj5xz5m9)" height="48" id="AfficherresultatElection" style="stroke:#A80036;stroke-width:1.5;" width="170" x="985" y="54"/><ellipse cx="1000" cy="70" fill="#ADD1B2" rx="11" ry="11" style="stroke:#A80036;stroke-width:1.0;"/><path d="M1002.3438,65.6719 C1001.4063,65.2344 1000.8125,65.0938 999.9375,65.0938 C997.3125,65.0938 995.3125,67.1719 995.3125,69.8906 L995.3125,71.0156 C995.3125,73.5938 997.4219,75.4844 1000.3125,75.4844 C1001.5313,75.4844 1002.6875,75.1875 1003.4375,74.6406 C1004.0156,74.2344 1004.3438,73.7813 1004.3438,73.3906 C1004.3438,72.9375 1003.9531,72.5469 1003.4844,72.5469 C1003.2656,72.5469 1003.0625,72.625 1002.875,72.8125 C1002.4219,73.2969 1002.4219,73.2969 1002.2344,73.3906 C1001.8125,73.6563 1001.125,73.7813 1000.3594,73.7813 C998.3125,73.7813 997.0156,72.6875 997.0156,70.9844 L997.0156,69.8906 C997.0156,68.1094 998.2656,66.7969 1000,66.7969 C1000.5781,66.7969 1001.1875,66.9531 1001.6563,67.2031 C1002.1406,67.4844 1002.3125,67.7031 1002.4063,68.1094 C1002.4688,68.5156 1002.5,68.6406 1002.6406,68.7656 C1002.7813,68.9063 1003.0156,69.0156 1003.2344,69.0156 C1003.5,69.0156 1003.7656,68.875 1003.9375,68.6563 C1004.0469,68.5 1004.0781,68.3125 1004.0781,67.8906 L1004.0781,66.4688 C1004.0781,66.0313 1004.0625,65.9063 1003.9688,65.75 C1003.8125,65.4844 1003.5313,65.3438 1003.2344,65.3438 C1002.9375,65.3438 1002.7344,65.4375 1002.5156,65.75 L1002.3438,65.6719 Z " fill="#000000"/><text fill="#000000" font-family="sans-serif" font-size="12" lengthAdjust="spacing" textLength="138" x="1014" y="74.1543">AfficherresultatElection</text><line style="stroke:#A80036;stroke-width:1.5;" x1="986" x2="1154" y1="86" y2="86"/><line style="stroke:#A80036;stroke-width:1.5;" x1="986" x2="1154" y1="94" y2="94"/><!--MD5=[ffe49301365913940c985a645681e007]
class Usager--><rect codeLine="55" fill="#FEFECE" filter="url(#f19u3zfj5xz5m9)" height="73.6094" id="Usager" style="stroke:#A80036;stroke-width:1.5;" width="116" x="1348" y="41"/><ellipse cx="1381" cy="57" fill="#ADD1B2" rx="11" ry="11" style="stroke:#A80036;stroke-width:1.0;"/><path d="M1383.3438,52.6719 C1382.4063,52.2344 1381.8125,52.0938 1380.9375,52.0938 C1378.3125,52.0938 1376.3125,54.1719 1376.3125,56.8906 L1376.3125,58.0156 C1376.3125,60.5938 1378.4219,62.4844 1381.3125,62.4844 C1382.5313,62.4844 1383.6875,62.1875 1384.4375,61.6406 C1385.0156,61.2344 1385.3438,60.7813 1385.3438,60.3906 C1385.3438,59.9375 1384.9531,59.5469 1384.4844,59.5469 C1384.2656,59.5469 1384.0625,59.625 1383.875,59.8125 C1383.4219,60.2969 1383.4219,60.2969 1383.2344,60.3906 C1382.8125,60.6563 1382.125,60.7813 1381.3594,60.7813 C1379.3125,60.7813 1378.0156,59.6875 1378.0156,57.9844 L1378.0156,56.8906 C1378.0156,55.1094 1379.2656,53.7969 1381,53.7969 C1381.5781,53.7969 1382.1875,53.9531 1382.6563,54.2031 C1383.1406,54.4844 1383.3125,54.7031 1383.4063,55.1094 C1383.4688,55.5156 1383.5,55.6406 1383.6406,55.7656 C1383.7813,55.9063 1384.0156,56.0156 1384.2344,56.0156 C1384.5,56.0156 1384.7656,55.875 1384.9375,55.6563 C1385.0469,55.5 1385.0781,55.3125 1385.0781,54.8906 L1385.0781,53.4688 C1385.0781,53.0313 1385.0625,52.9063 1384.9688,52.75 C1384.8125,52.4844 1384.5313,52.3438 1384.2344,52.3438 C1383.9375,52.3438 1383.7344,52.4375 1383.5156,52.75 L1383.3438,52.6719 Z " fill="#000000"/><text fill="#000000" font-family="sans-serif" font-size="12" lengthAdjust="spacing" textLength="44" x="1399" y="61.1543">Usager</text><line style="stroke:#A80036;stroke-width:1.5;" x1="1349" x2="1463" y1="73" y2="73"/><text fill="#000000" font-family="sans-serif" font-size="11" lengthAdjust="spacing" textLength="104" x="1354" y="87.2104">username: String?</text><text fill="#000000" font-family="sans-serif" font-size="11" lengthAdjust="spacing" textLength="99" x="1354" y="100.0151">password: String?</text><line style="stroke:#A80036;stroke-width:1.5;" x1="1349" x2="1463" y1="106.6094" y2="106.6094"/><!--MD5=[398b911733b41b14ad5cdaaad61799a4]
class Secretaire--><rect codeLine="68" fill="#FEFECE" filter="url(#f19u3zfj5xz5m9)" height="48" id="Secretaire" style="stroke:#A80036;stroke-width:1.5;" width="95" x="1500.5" y="211"/><ellipse cx="1515.5" cy="227" fill="#ADD1B2" rx="11" ry="11" style="stroke:#A80036;stroke-width:1.0;"/><path d="M1517.8438,222.6719 C1516.9063,222.2344 1516.3125,222.0938 1515.4375,222.0938 C1512.8125,222.0938 1510.8125,224.1719 1510.8125,226.8906 L1510.8125,228.0156 C1510.8125,230.5938 1512.9219,232.4844 1515.8125,232.4844 C1517.0313,232.4844 1518.1875,232.1875 1518.9375,231.6406 C1519.5156,231.2344 1519.8438,230.7813 1519.8438,230.3906 C1519.8438,229.9375 1519.4531,229.5469 1518.9844,229.5469 C1518.7656,229.5469 1518.5625,229.625 1518.375,229.8125 C1517.9219,230.2969 1517.9219,230.2969 1517.7344,230.3906 C1517.3125,230.6563 1516.625,230.7813 1515.8594,230.7813 C1513.8125,230.7813 1512.5156,229.6875 1512.5156,227.9844 L1512.5156,226.8906 C1512.5156,225.1094 1513.7656,223.7969 1515.5,223.7969 C1516.0781,223.7969 1516.6875,223.9531 1517.1563,224.2031 C1517.6406,224.4844 1517.8125,224.7031 1517.9063,225.1094 C1517.9688,225.5156 1518,225.6406 1518.1406,225.7656 C1518.2813,225.9063 1518.5156,226.0156 1518.7344,226.0156 C1519,226.0156 1519.2656,225.875 1519.4375,225.6563 C1519.5469,225.5 1519.5781,225.3125 1519.5781,224.8906 L1519.5781,223.4688 C1519.5781,223.0313 1519.5625,222.9063 1519.4688,222.75 C1519.3125,222.4844 1519.0313,222.3438 1518.7344,222.3438 C1518.4375,222.3438 1518.2344,222.4375 1518.0156,222.75 L1517.8438,222.6719 Z " fill="#000000"/><text fill="#000000" font-family="sans-serif" font-size="12" lengthAdjust="spacing" textLength="63" x="1529.5" y="231.1543">Secretaire</text><line style="stroke:#A80036;stroke-width:1.5;" x1="1501.5" x2="1594.5" y1="243" y2="243"/><line style="stroke:#A80036;stroke-width:1.5;" x1="1501.5" x2="1594.5" y1="251" y2="251"/><!--MD5=[cfd1087bc728fd72eaacf9ac37a86c66]
link ServeurLocal::Candidat to Vote--><path codeLine="6" d="M654,102.205 C654,131.51 654,181.63 654,210.89 " fill="none" id="ServeurLocal::Candidat-Vote" style="stroke:#A80036;stroke-width:1.0;"/><text fill="#000000" font-family="sans-serif" font-size="13" lengthAdjust="spacing" textLength="36" x="655" y="158.0669">recoit</text><text fill="#000000" font-family="sans-serif" font-size="13" lengthAdjust="spacing" textLength="8" x="645.025" y="122.0162">1</text><text fill="#000000" font-family="sans-serif" font-size="13" lengthAdjust="spacing" textLength="7" x="646.1031" y="199.8738">*</text><!--MD5=[b002c79d778a33ecec1deb881e53ce91]
link Candidat to Circonscription--><path codeLine="38" d="M968.149,272.019 C955.732,283.123 942.446,295.679 931,308 C911.585,328.899 891.914,354.546 877.738,373.997 " fill="none" id="Candidat-Circonscription" style="stroke:#A80036;stroke-width:1.0;"/><text fill="#000000" font-family="sans-serif" font-size="13" lengthAdjust="spacing" textLength="70" x="932" y="321.0669">représente</text><!--MD5=[c5b01de4229cc690bbf2383003418988]
link Candidat to PartiePolitique--><path codeLine="39" d="M1011,272.345 C1011,302.75 1011,345.583 1011,373.922 " fill="none" id="Candidat-PartiePolitique" style="stroke:#A80036;stroke-width:1.0;"/><text fill="#000000" font-family="sans-serif" font-size="13" lengthAdjust="spacing" textLength="84" x="1012" y="321.0669">travaille pour</text><!--MD5=[a700ae3907a1635ee21111edd30dd5b9]
link Electeur to ElecteurVote--><path codeLine="60" d="M1290.72,278.267 C1307.47,308.117 1329.5,347.373 1344.4,373.916 " fill="none" id="Electeur-ElecteurVote" style="stroke:#A80036;stroke-width:1.0;"/><text fill="#000000" font-family="sans-serif" font-size="13" lengthAdjust="spacing" textLength="29" x="1317" y="321.0669">vote</text><text fill="#000000" font-family="sans-serif" font-size="13" lengthAdjust="spacing" textLength="8" x="1285.8629" y="298.4025">1</text><text fill="#000000" font-family="sans-serif" font-size="13" lengthAdjust="spacing" textLength="7" x="1333.2544" y="363.1619">*</text><!--MD5=[430c70e482d6d66c20969d6b30278fee]
link ElecteurVote to Election--><path codeLine="61" d="M1337.4,435.194 C1315.08,463.295 1282.01,504.907 1261.52,530.6923 " fill="none" id="ElecteurVote-Election" style="stroke:#A80036;stroke-width:1.0;"/><text fill="#000000" font-family="sans-serif" font-size="13" lengthAdjust="spacing" textLength="135" x="1299" y="497.0669">est pour une élection</text><text fill="#000000" font-family="sans-serif" font-size="13" lengthAdjust="spacing" textLength="7" x="1325.0647" y="454.8126">*</text><text fill="#000000" font-family="sans-serif" font-size="13" lengthAdjust="spacing" textLength="8" x="1257.0593" y="520.0223">1</text><!--MD5=[84fde2835093329922f54c59b67813c6]
link Candidat to CandidatVotes--><path codeLine="62" d="M1064.06,272.259 C1078.08,282.985 1092.72,295.283 1105,308 C1124.37,328.058 1142.48,353.998 1155.14,373.78 " fill="none" id="Candidat-CandidatVotes" style="stroke:#A80036;stroke-width:1.0;"/><text fill="#000000" font-family="sans-serif" font-size="13" lengthAdjust="spacing" textLength="63" x="1121" y="321.0669">recoit des</text><text fill="#000000" font-family="sans-serif" font-size="13" lengthAdjust="spacing" textLength="8" x="1064.1856" y="291.7825">1</text><text fill="#000000" font-family="sans-serif" font-size="13" lengthAdjust="spacing" textLength="7" x="1143.7345" y="362.9979">*</text><!--MD5=[b0f0d197be3f6b24d3c14c4b0381afd2]
link CandidatVotes to Election--><path codeLine="63" d="M1187,435.194 C1200.24,463.295 1219.86,504.907 1232.01,530.6923 " fill="none" id="CandidatVotes-Election" style="stroke:#A80036;stroke-width:1.0;"/><text fill="#000000" font-family="sans-serif" font-size="13" lengthAdjust="spacing" textLength="53" x="1218" y="497.0669">est pour</text><text fill="#000000" font-family="sans-serif" font-size="13" lengthAdjust="spacing" textLength="8" x="1220.3562" y="520.0223">1</text><!--MD5=[a53b79963020223687484f7e75419a9e]
link Secretaire to OrganismePress--><path codeLine="69" d="M1548.7,259.29 C1549.43,283.92 1550.61,323.489 1551.55,354.954 " fill="none" id="Secretaire-OrganismePress" style="stroke:#A80036;stroke-width:1.0;"/><polygon fill="#000000" points="1555.1489,321.5642,1557.8172,312.4356,1551.9419,312.6106,1555.1489,321.5642" style="stroke:#000000;stroke-width:1.0;"/><text fill="#000000" font-family="sans-serif" font-size="13" lengthAdjust="spacing" textLength="93" x="1564" y="321.0669">donne accès à</text><!--MD5=[781c9ac837d68226cf6964a38b86f074]
reverse link Usager to Secretaire--><path codeLine="71" d="M1452.98,130.282 C1477.94,157.526 1507.39,189.67 1526.81,210.872 " fill="none" id="Usager-backto-Secretaire" style="stroke:#A80036;stroke-width:1.0;"/><polygon fill="none" points="1447.64,134.816,1439.29,115.341,1457.96,125.359,1447.64,134.816" style="stroke:#A80036;stroke-width:1.0;"/><!--MD5=[0842f059ffa29b782ea40d84abf13f70]
reverse link Usager to Electeur--><path codeLine="72" d="M1359.97,130.326 C1342.07,150.285 1321.82,172.868 1304.8,191.85 " fill="none" id="Usager-backto-Electeur" style="stroke:#A80036;stroke-width:1.0;"/><polygon fill="none" points="1354.85,125.557,1373.41,115.341,1365.27,134.904,1354.85,125.557" style="stroke:#A80036;stroke-width:1.0;"/><!--MD5=[1827acc3dfc2119c2ee986715a09eff9]
reverse link Usager to Administrateur--><path codeLine="73" d="M1406,135.662 C1406,161.666 1406,191.051 1406,210.872 " fill="none" id="Usager-backto-Administrateur" style="stroke:#A80036;stroke-width:1.0;"/><polygon fill="none" points="1399,135.341,1406,115.341,1413,135.341,1399,135.341" style="stroke:#A80036;stroke-width:1.0;"/><!--MD5=[fc3b8b009bfd6f4c110ae657cae8dfd4]
@startuml
package MachineAVoter as MAV {
  class controleurVote
}
package ServeurLocal as SL{
  class Vote 
  ServeurLocal::Candidat "1" - - "*" Vote: recoit
  class ServeurLocal::Electeur {
    code:unsigned long
    confirmationVote: DateTime
  }
  class PreposeTable
}

package ServeurCentrale as SC {

  class OrganismePress {
  nom:String 
  token: String
  url: String
  tokenOrganisme: String
}

class Election


class Candidat {
  id: unsigned long
  nom:String
}

class Circonscription {
  nom:String
}

class PartiePolitique {
  nom:String
}
Candidat - - Circonscription: représente 
Candidat - - PartiePolitique: travaille pour 

class ElecteurVote{
  confirmationVote:dateTime
}

class Electeur{
  prenon:String
  nom:String
  no:String
}
class CandidatVotes {
  nombre:unsigned long
}
class Administrateur
class AfficherresultatElection
class Usager {
  username: String?
  password: String?
}

Electeur "1" - - "*" ElecteurVote: vote 
ElecteurVote "*" - - "1" Election: est pour une élection
Candidat "1" - - "*" CandidatVotes: recoit des 
CandidatVotes - - "1" Election : est pour 




class Secretaire
Secretaire - - OrganismePress: donne accès à >

Secretaire -u-|> Usager
Electeur -u-|> Usager
Administrateur -u-|> Usager

}
@enduml

PlantUML version 1.2021.15beta8(Unknown compile time)
(GPL source distribution)
Java Runtime: Java(TM) SE Runtime Environment
JVM: Java HotSpot(TM) 64-Bit Server VM
Default Encoding: UTF-8
Language: en
Country: US
--></g></svg>