<?xml version="1.0" encoding="UTF-8" standalone="no"?><svg xmlns="http://www.w3.org/2000/svg" xmlns:xlink="http://www.w3.org/1999/xlink" contentScriptType="application/ecmascript" contentStyleType="text/css" height="368px" preserveAspectRatio="none" style="width:757px;height:368px;background:#FFFFFF;" version="1.1" viewBox="0 0 757 368" width="757px" zoomAndPan="magnify"><defs/><g><text fill="#000000" font-family="sans-serif" font-size="18" lengthAdjust="spacing" textLength="239" x="258.75" y="28.708">Un voteur realise un vote</text><rect fill="#FFFFFF" height="34.1328" style="stroke:#A80036;stroke-width:1.0;" width="10" x="339" y="309.3438"/><line style="stroke:#A80036;stroke-width:1.0;stroke-dasharray:5.0,5.0;" x1="67" x2="67" y1="71.25" y2="361.4766"/><line style="stroke:#A80036;stroke-width:1.0;stroke-dasharray:5.0,5.0;" x1="344" x2="344" y1="71.25" y2="361.4766"/><line style="stroke:#A80036;stroke-width:1.0;stroke-dasharray:5.0,5.0;" x1="549.5" x2="549.5" y1="71.25" y2="361.4766"/><line style="stroke:#A80036;stroke-width:1.0;stroke-dasharray:5.0,5.0;" x1="658.5" x2="658.5" y1="71.25" y2="361.4766"/><line style="stroke:#A80036;stroke-width:1.0;stroke-dasharray:5.0,5.0;" x1="726.5" x2="726.5" y1="205.2969" y2="361.4766"/><rect fill="#FEFECE" height="30.2969" style="stroke:#A80036;stroke-width:1.5;" width="124" x="5" y="39.9531"/><text fill="#000000" font-family="sans-serif" font-size="14" lengthAdjust="spacing" textLength="110" x="12" y="59.9482">MachineAVoter</text><rect fill="#FEFECE" height="30.2969" style="stroke:#A80036;stroke-width:1.5;" width="106" x="291" y="39.9531"/><text fill="#000000" font-family="sans-serif" font-size="14" lengthAdjust="spacing" textLength="92" x="298" y="59.9482">ServeurLocal</text><rect fill="#FEFECE" height="30.2969" style="stroke:#A80036;stroke-width:1.5;" width="131" x="484.5" y="39.9531"/><text fill="#000000" font-family="sans-serif" font-size="14" lengthAdjust="spacing" textLength="117" x="491.5" y="59.9482">ServeurCentrale</text><rect fill="#FEFECE" height="30.2969" style="stroke:#A80036;stroke-width:1.5;" width="67" x="625.5" y="39.9531"/><text fill="#000000" font-family="sans-serif" font-size="14" lengthAdjust="spacing" textLength="53" x="632.5" y="59.9482">:List&lt;&gt;</text><rect fill="#FFFFFF" height="34.1328" style="stroke:#A80036;stroke-width:1.0;" width="10" x="339" y="309.3438"/><path d="M72,86.25 L72,111.25 L594,111.25 L594,96.25 L584,86.25 L72,86.25 " fill="#FBFB77" style="stroke:#A80036;stroke-width:1.0;"/><path d="M584,86.25 L584,96.25 L594,96.25 L584,86.25 " fill="#FBFB77" style="stroke:#A80036;stroke-width:1.0;"/><text fill="#000000" font-family="sans-serif" font-size="13" lengthAdjust="spacing" textLength="501" x="78" y="103.3169">la liste des candidats est conservé en mémoire cache dans la Machine à voter</text><polygon fill="#A80036" points="332,133.5156,342,137.5156,332,141.5156" style="stroke:#A80036;stroke-width:1.0;"/><line style="stroke:#A80036;stroke-width:1.0;stroke-dasharray:2.0,2.0;" x1="67" x2="338" y1="137.5156" y2="137.5156"/><text fill="#000000" font-family="sans-serif" font-size="13" lengthAdjust="spacing" textLength="211" x="74" y="132.4497">candidats:JSON = getCandidats()</text><polygon fill="#A80036" points="332,162.6484,342,166.6484,332,170.6484" style="stroke:#A80036;stroke-width:1.0;"/><line style="stroke:#A80036;stroke-width:1.0;stroke-dasharray:2.0,2.0;" x1="67" x2="338" y1="166.6484" y2="166.6484"/><text fill="#000000" font-family="sans-serif" font-size="13" lengthAdjust="spacing" textLength="253" x="74" y="161.5825">v:Vote =  vote(candidat:unsigned long)</text><polygon fill="#A80036" points="690.5,191.7813,700.5,195.7813,690.5,199.7813" style="stroke:#A80036;stroke-width:1.0;"/><line style="stroke:#A80036;stroke-width:1.0;stroke-dasharray:2.0,2.0;" x1="344" x2="696.5" y1="195.7813" y2="195.7813"/><text fill="#000000" font-family="sans-serif" font-size="13" lengthAdjust="spacing" textLength="200" x="351" y="190.7153">create(candidat:unsigned long)</text><rect fill="#FEFECE" height="30.2969" style="stroke:#A80036;stroke-width:1.5;" width="49" x="702.5" y="174.6484"/><text fill="#000000" font-family="sans-serif" font-size="14" lengthAdjust="spacing" textLength="35" x="709.5" y="194.6436">Vote</text><polygon fill="#A80036" points="647,233.0781,657,237.0781,647,241.0781" style="stroke:#A80036;stroke-width:1.0;"/><line style="stroke:#A80036;stroke-width:1.0;stroke-dasharray:2.0,2.0;" x1="344" x2="653" y1="237.0781" y2="237.0781"/><text fill="#000000" font-family="sans-serif" font-size="13" lengthAdjust="spacing" textLength="77" x="351" y="232.0122">add(v:Vote)</text><path d="M349,250.0781 L349,275.0781 L505,275.0781 L505,260.0781 L495,250.0781 L349,250.0781 " fill="#FBFB77" style="stroke:#A80036;stroke-width:1.0;"/><path d="M495,250.0781 L495,260.0781 L505,260.0781 L495,250.0781 " fill="#FBFB77" style="stroke:#A80036;stroke-width:1.0;"/><text fill="#000000" font-family="sans-serif" font-size="13" lengthAdjust="spacing" textLength="135" x="355" y="267.145">à chaque 15 minutes</text><line style="stroke:#A80036;stroke-width:1.0;" x1="344" x2="391" y1="296.3438" y2="296.3438"/><line style="stroke:#A80036;stroke-width:1.0;" x1="391" x2="391" y1="296.3438" y2="309.3438"/><line style="stroke:#A80036;stroke-width:1.0;" x1="350" x2="391" y1="309.3438" y2="309.3438"/><polygon fill="#A80036" points="360,305.3438,350,309.3438,360,313.3438" style="stroke:#A80036;stroke-width:1.0;"/><text fill="#000000" font-family="sans-serif" font-size="13" lengthAdjust="spacing" textLength="192" x="356" y="291.2778">votes:JSON = compilerVotes()</text><polygon fill="#A80036" points="538,339.4766,548,343.4766,538,347.4766" style="stroke:#A80036;stroke-width:1.0;"/><line style="stroke:#A80036;stroke-width:1.0;" x1="344" x2="544" y1="343.4766" y2="343.4766"/><text fill="#000000" font-family="sans-serif" font-size="13" lengthAdjust="spacing" textLength="164" x="351" y="338.4106">ajouterVotes(votes:JSON)</text><!--MD5=[d1a0d948ab2ec59eee8ad11b516d3d71]
@startuml
title Un voteur realise un vote
  skinparam style strictuml
  participant MachineAVoter as MAV
  participant ServeurLocal as SL
  participant ServeurCentrale as SC

  participant ":List<>" as LV
  note right of MAV: la liste des candidats est conservé en mémoire cache dans la Machine à voter
  MAV - -> SL: candidats:JSON = getCandidats()
  MAV - -> SL: v:Vote =  vote(candidat:unsigned long)
  SL - -> Vote**:create(candidat:unsigned long)
  SL  - -> LV: add(v:Vote)
  
  note right of SL: à chaque 15 minutes
  SL -> SL: votes:JSON = compilerVotes()
  
  activate SL
  SL -> SC: ajouterVotes(votes:JSON)
  deactivate SL
@enduml

PlantUML version 1.2021.15beta8(Unknown compile time)
(GPL source distribution)
Java Runtime: Java(TM) SE Runtime Environment
JVM: Java HotSpot(TM) 64-Bit Server VM
Default Encoding: UTF-8
Language: en
Country: US
--></g></svg>