<?xml version="1.0" encoding="UTF-8" standalone="no"?><svg xmlns="http://www.w3.org/2000/svg" xmlns:xlink="http://www.w3.org/1999/xlink" contentScriptType="application/ecmascript" contentStyleType="text/css" height="285px" preserveAspectRatio="none" style="width:546px;height:285px;background:#FFFFFF;" version="1.1" viewBox="0 0 546 285" width="546px" zoomAndPan="magnify"><defs/><g><text fill="#000000" font-family="sans-serif" font-size="18" lengthAdjust="spacing" textLength="515" x="15.25" y="28.708">Un organisme de presse récupére les résultats de vote</text><line style="stroke:#A80036;stroke-width:1.0;stroke-dasharray:5.0,5.0;" x1="74" x2="74" y1="71.25" y2="278.0469"/><line style="stroke:#A80036;stroke-width:1.0;stroke-dasharray:5.0,5.0;" x1="474.5" x2="474.5" y1="71.25" y2="278.0469"/><rect fill="#FEFECE" height="30.2969" style="stroke:#A80036;stroke-width:1.5;" width="138" x="5" y="39.9531"/><text fill="#000000" font-family="sans-serif" font-size="14" lengthAdjust="spacing" textLength="124" x="12" y="59.9482">OrganismePresse</text><rect fill="#FEFECE" height="30.2969" style="stroke:#A80036;stroke-width:1.5;" width="131" x="409.5" y="39.9531"/><text fill="#000000" font-family="sans-serif" font-size="14" lengthAdjust="spacing" textLength="117" x="416.5" y="59.9482">ServeurCentrale</text><polygon fill="#A80036" points="463,98.3828,473,102.3828,463,106.3828" style="stroke:#A80036;stroke-width:1.0;"/><line style="stroke:#A80036;stroke-width:1.0;" x1="74" x2="469" y1="102.3828" y2="102.3828"/><text fill="#000000" font-family="sans-serif" font-size="13" lengthAdjust="spacing" textLength="360" x="81" y="97.3169">tokenOrganisme:string = login(nom:string, token:string)</text><path d="M79,115.3828 L79,140.3828 L261,140.3828 L261,125.3828 L251,115.3828 L79,115.3828 " fill="#FBFB77" style="stroke:#A80036;stroke-width:1.0;"/><path d="M251,115.3828 L251,125.3828 L261,125.3828 L251,115.3828 " fill="#FBFB77" style="stroke:#A80036;stroke-width:1.0;"/><text fill="#000000" font-family="sans-serif" font-size="13" lengthAdjust="spacing" textLength="161" x="85" y="132.4497">si le mode est synchrone</text><polygon fill="#A80036" points="463,162.6484,473,166.6484,463,170.6484" style="stroke:#A80036;stroke-width:1.0;"/><line style="stroke:#A80036;stroke-width:1.0;" x1="74" x2="469" y1="166.6484" y2="166.6484"/><text fill="#000000" font-family="sans-serif" font-size="13" lengthAdjust="spacing" textLength="353" x="81" y="161.5825">json:string = getResultatsVote(tokenOrganisme:string)</text><path d="M79,179.6484 L79,204.6484 L269,204.6484 L269,189.6484 L259,179.6484 L79,179.6484 " fill="#FBFB77" style="stroke:#A80036;stroke-width:1.0;"/><path d="M259,179.6484 L259,189.6484 L269,189.6484 L259,179.6484 " fill="#FBFB77" style="stroke:#A80036;stroke-width:1.0;"/><text fill="#000000" font-family="sans-serif" font-size="13" lengthAdjust="spacing" textLength="169" x="85" y="196.7153">si le mode est asynchrone</text><polygon fill="#A80036" points="463,226.9141,473,230.9141,463,234.9141" style="stroke:#A80036;stroke-width:1.0;"/><line style="stroke:#A80036;stroke-width:1.0;" x1="74" x2="469" y1="230.9141" y2="230.9141"/><text fill="#000000" font-family="sans-serif" font-size="13" lengthAdjust="spacing" textLength="377" x="81" y="225.8481">json:string = registerCallbackServer(url:string,token:string)</text><line style="stroke:#A80036;stroke-width:1.0;" x1="74" x2="84" y1="260.0469" y2="256.0469"/><line style="stroke:#A80036;stroke-width:1.0;" x1="74" x2="84" y1="260.0469" y2="264.0469"/><line style="stroke:#A80036;stroke-width:1.0;stroke-dasharray:2.0,2.0;" x1="74" x2="474" y1="260.0469" y2="260.0469"/><text fill="#000000" font-family="sans-serif" font-size="13" lengthAdjust="spacing" textLength="145" x="91" y="254.981">updateResultatsVote()</text><!--MD5=[1f157ddb901ac339b7bc7c462b93dbb1]
@startuml
title Un organisme de presse récupére les résultats de vote
  skinparam style strictuml
  participant OrganismePresse as OP
  participant ServeurCentrale as SC
  OP -> SC: tokenOrganisme:string = login(nom:string, token:string)

  note right of OP: si le mode est synchrone
  OP -> SC: json:string = getResultatsVote(tokenOrganisme:string)

  note right of OP: si le mode est asynchrone
  OP -> SC: json:string = registerCallbackServer(url:string,token:string)
  OP <<- - SC: updateResultatsVote()
@enduml

PlantUML version 1.2021.15beta8(Unknown compile time)
(GPL source distribution)
Java Runtime: Java(TM) SE Runtime Environment
JVM: Java HotSpot(TM) 64-Bit Server VM
Default Encoding: UTF-8
Language: en
Country: US
--></g></svg>