<?xml version="1.0" encoding="UTF-8" standalone="no"?><svg xmlns="http://www.w3.org/2000/svg" xmlns:xlink="http://www.w3.org/1999/xlink" contentScriptType="application/ecmascript" contentStyleType="text/css" height="809px" preserveAspectRatio="none" style="width:1011px;height:809px;background:#FFFFFF;" version="1.1" viewBox="0 0 1011 809" width="1011px" zoomAndPan="magnify"><defs><filter height="300%" id="fmlp31t885mu2" width="300%" x="-1" y="-1"><feGaussianBlur result="blurOut" stdDeviation="2.0"/><feColorMatrix in="blurOut" result="blurOut2" type="matrix" values="0 0 0 0 0 0 0 0 0 0 0 0 0 0 0 0 0 0 .4 0"/><feOffset dx="4.0" dy="4.0" in="blurOut2" result="blurOut3"/><feBlend in="SourceGraphic" in2="blurOut3" mode="normal"/></filter></defs><g><text fill="#000000" font-family="sans-serif" font-size="18" lengthAdjust="spacing" textLength="151" x="423.8014" y="16.708">Vue de contexte</text><!--MD5=[494bbab3d783cc15dd6eedeb91ae27c5]
cluster BureauScrutin--><path d="M52.3348,61.4813 C61.7557,38.7287 78.6866,35.4596 94.8496,54.6467 C111.1739,29.7147 133.9133,26.9531 149.3497,55.5507 C162.7049,35.9801 179.7846,38.1561 190.1647,58.5863 C205.0844,39.5747 221.4523,32.6905 236.9631,57.9617 C250.141,32.8599 272.6399,33.4228 287.9154,55.7061 C299.2159,33.2956 316.2217,27.4489 333.9853,48.9206 C347.1167,27.3324 364.8917,27.7941 378.6422,48.2634 C394.826,30.4973 413.1362,30.4362 425.431,52.798 C438.2064,31.4823 462.2152,28.9148 473.8788,53.96 C489.1291,35.9448 502.9144,37.1178 515.64,56.7598 C531.1191,31.2116 549.1882,27.7944 567.028,54.4354 C582.869,31.5752 597.4558,34.9294 612.3685,55.4066 C629.2967,33.6619 642.1281,38.2005 654.8986,59.5133 C670.418,32.9467 693.7268,37.4642 708.4263,60.3999 C712.2152,57.8646 714.9829,59.3672 715.5271,63.7367 C741.7693,80.5576 738.1439,101.9715 713.9054,117.263 C737.9154,131.1842 737.8482,151.0801 717.501,168.1363 C748.5351,185.1344 739.5209,213.9567 714.4049,228.0533 C735.6527,242.3857 741.5705,257.9285 717.255,275.0255 C739.8826,293.0187 741.2249,314.0438 714.1229,329.1597 C741.3893,344.1936 741.0562,365.6337 714.399,380.9551 C742.5715,400.7043 739.6394,419.6687 715.3703,440.2766 C738.5992,463.2384 731.624,484.8308 701.4263,493.8999 C704.4474,491.5306 707.1146,492.4207 707.8155,496.2799 C694.7241,522.1735 677.1559,520.8547 660.7773,499.5563 C648.4402,522.6496 630.3645,523.3698 614.065,503.9055 C600.2187,525.8324 578.444,524.4024 569.696,499.1146 C556.2303,520.269 539.6269,523.0411 522.8262,502.8996 C510.555,528.6992 486.3801,526.8042 472.7354,504.3246 C459.5037,525.1859 440.2878,525.4158 427.9948,503.3464 C411.5875,526.5124 394.5333,525.8958 376.8711,504.7958 C362.6469,524.0915 347.0471,522.522 333.0945,504.4773 C322.1855,529.4819 300.0109,528.7169 287.7195,505.7859 C274.0405,532.8752 248.7639,531.6665 234.5711,506.3066 C222.4603,529.3466 203.2503,527.3255 191.8157,505.6599 C175.6905,530.6689 160.161,524.2287 145.248,504.4008 C130.7998,523.7105 110.2175,518.5034 102.1388,497.5766 C78.5184,528.3053 52.6998,521.757 40.4263,486.8999 C40.9006,487.0747 41.0869,487.3548 40.7498,487.8161 C20.3256,473.3265 19.3453,450.6233 42.4556,437.613 C12.6362,424.0546 18.0536,399.3246 40.1282,383.5329 C14.962,370.0418 11.4433,351.8157 34.7069,333.1168 C10.979,314.5528 8.4731,292.9302 38.6956,278.2911 C9.2725,263.8047 15.8171,235.2746 38.8922,220.9683 C16.3823,203.947 17.8675,186.6465 40.8576,171.4303 C14.7802,155.4012 14.8853,137.6727 38.1807,119.1171 C6,97.4885 12.3144,65.5611 47.4263,53.3999 C52.7733,53.3863 54.7433,56.7845 52.3348,61.4813 " fill="#FFFFFF" filter="url(#fmlp31t885mu2)" style="stroke:#000000;stroke-width:1.5;"/><text fill="#000000" font-family="sans-serif" font-size="14" font-weight="bold" lengthAdjust="spacing" textLength="116" x="316.4263" y="71.395">BureauScrutin</text><!--MD5=[96cc3d84c92aad90ce1ec766dab667d4]
cluster Kiosque--><polygon fill="#FFFFFF" filter="url(#fmlp31t885mu2)" points="56.4263,224.3999,125.4263,224.3999,132.4263,246.6967,475.4263,246.6967,475.4263,338.3999,56.4263,338.3999,56.4263,224.3999" style="stroke:#000000;stroke-width:1.5;"/><line style="stroke:#000000;stroke-width:1.5;" x1="56.4263" x2="132.4263" y1="246.6967" y2="246.6967"/><text fill="#000000" font-family="sans-serif" font-size="14" font-weight="bold" lengthAdjust="spacing" textLength="63" x="60.4263" y="239.395">Kiosque</text><!--MD5=[cab8bef333e8ad42894eb8f66cbcfb69]
cluster BureauDirecteurElection--><path d="M750.8702,397.4085 C756.0376,389.2556 762.9375,389.4335 768.31,397.1837 C772.0411,388.8955 779.8742,385.5559 786.1096,394.6139 C791.6012,388.6722 797.5072,388.0523 801.1159,396.5682 C805.3491,388.5029 812.7825,388.4507 817.7934,395.7227 C821.0453,386.3823 829.5653,386.7194 835.1688,393.1283 C840.0393,383.7878 848.4637,383.588 854.6128,391.7042 C860.6219,382.7551 867.0896,384.746 872.3269,392.5216 C877.2216,383.7199 883.2141,385.2298 888.5705,392.0413 C895.0122,385.928 900.1863,387.4746 904.2393,394.8219 C909.6931,386.812 917.298,385.4745 922.893,394.6688 C928.6998,386.7628 934.0715,387.4542 939.3577,395.2159 C944.6416,386.1836 951.9931,387.5743 956.3581,396.1053 C961.8826,387.0972 967.1009,388.4172 973.3167,395.3709 C979.3722,386.0176 986.2393,388.0255 991.4398,396.2524 C1001.7847,402.7135 1004.6029,409.2118 994.0266,418.145 C1002.6518,423.5218 1004.5487,432.9327 994.7294,438.933 C1003.2508,446.5442 1002.772,454.0242 991.4392,458.2545 C999.89,463.1905 1000.6094,471.2578 992.0628,476.7664 C988.3996,485.9304 981.1656,486.4728 976.0164,478.1284 C971.6044,488.0271 962.9177,487.9658 956.555,480.2883 C951.3325,488.8833 945.9269,491.3625 938.612,482.4304 C934.938,491.4761 928.3307,490.7684 922.3407,484.9689 C917.4734,493.4811 912.642,494.0866 906.469,486.2354 C902.0904,494.7264 895.0882,496.0908 889.6459,487.269 C884.3067,495.7817 877.8748,495.6117 872.5741,487.2302 C866.3419,495.6339 860.8017,495.9924 854.5005,487.3032 C848.1301,494.7356 840.4355,494.003 836.2376,484.9032 C829.3175,493.6636 822.2688,491.7233 817.9781,482.2675 C812.4921,490.2541 804.8313,488.3834 800.8844,480.5993 C795.5363,488.5318 789.6595,490.209 783.2586,481.7299 C776.5903,489.456 771.7498,488.4884 767.0161,479.8139 C761.7298,487.1149 755.3634,487.7018 750.88,479.0041 C738.9669,471.6372 740.1006,464.2868 750.5633,456.6035 C740.2719,451.3921 739.573,445.2151 747.8852,437.4082 C738.4237,429.9204 739.5032,421.9722 750.5103,417.1348 C741.6398,411.2367 740.9072,402.9631 750.8702,397.4085 " fill="#FFFFFF" filter="url(#fmlp31t885mu2)" style="stroke:#000000;stroke-width:1.5;"/><text fill="#000000" font-family="sans-serif" font-size="14" font-weight="bold" lengthAdjust="spacing" textLength="197" x="770.9263" y="413.395">BureauDirecteurElection</text><!--MD5=[b9d6b2071fa9c2331781d48a42a0c12c]
entity AL--><ellipse cx="100.4263" cy="414.3999" fill="#FEFECE" filter="url(#fmlp31t885mu2)" rx="8" ry="8" style="stroke:#A80036;stroke-width:1.5;"/><path d="M100.4263,422.3999 L100.4263,449.3999 M87.4263,430.3999 L113.4263,430.3999 M100.4263,449.3999 L87.4263,464.3999 M100.4263,449.3999 L113.4263,464.3999 " fill="none" filter="url(#fmlp31t885mu2)" style="stroke:#A80036;stroke-width:1.5;"/><text fill="#000000" font-family="sans-serif" font-size="14" lengthAdjust="spacing" textLength="104" x="48.4263" y="482.895">Adminstrateur</text><!--MD5=[c6cb293c19029cfc9273f4c2be658672]
entity SL--><polygon fill="#FEFECE" filter="url(#fmlp31t885mu2)" points="262.4263,423.8999,272.4263,413.8999,394.4263,413.8999,394.4263,466.4936,384.4263,476.4936,262.4263,476.4936,262.4263,423.8999" style="stroke:#000000;stroke-width:1.5;"/><line style="stroke:#000000;stroke-width:1.5;" x1="384.4263" x2="394.4263" y1="423.8999" y2="413.8999"/><line style="stroke:#000000;stroke-width:1.5;" x1="262.4263" x2="384.4263" y1="423.8999" y2="423.8999"/><line style="stroke:#000000;stroke-width:1.5;" x1="384.4263" x2="384.4263" y1="423.8999" y2="476.4936"/><text fill="#000000" font-family="sans-serif" font-size="14" font-style="italic" lengthAdjust="spacing" textLength="74" x="286.4263" y="446.895">«Serveur»</text><text fill="#000000" font-family="sans-serif" font-size="14" lengthAdjust="spacing" textLength="92" x="277.4263" y="463.1919">ServeurLocal</text><!--MD5=[626ad08abde0879284d52f51a0eb42aa]
entity P--><ellipse cx="641.4263" cy="414.3999" fill="#FEFECE" filter="url(#fmlp31t885mu2)" rx="8" ry="8" style="stroke:#A80036;stroke-width:1.5;"/><path d="M641.4263,422.3999 L641.4263,449.3999 M628.4263,430.3999 L654.4263,430.3999 M641.4263,449.3999 L628.4263,464.3999 M641.4263,449.3999 L654.4263,464.3999 " fill="none" filter="url(#fmlp31t885mu2)" style="stroke:#A80036;stroke-width:1.5;"/><text fill="#000000" font-family="sans-serif" font-size="14" lengthAdjust="spacing" textLength="117" x="582.9263" y="482.895">PreposeAuTable</text><!--MD5=[68f82070d0aec4ff4b64d9b1102926da]
entity E--><ellipse cx="359.4263" cy="89.8999" fill="#FEFECE" filter="url(#fmlp31t885mu2)" rx="8" ry="8" style="stroke:#A80036;stroke-width:1.5;"/><path d="M359.4263,97.8999 L359.4263,124.8999 M346.4263,105.8999 L372.4263,105.8999 M359.4263,124.8999 L346.4263,139.8999 M359.4263,124.8999 L372.4263,139.8999 " fill="none" filter="url(#fmlp31t885mu2)" style="stroke:#A80036;stroke-width:1.5;"/><text fill="#000000" font-family="sans-serif" font-size="14" lengthAdjust="spacing" textLength="60" x="329.4263" y="158.395">Electeur</text><!--MD5=[5975f2ff0da05f57fc45c1b4f52e786f]
entity MAV--><polygon fill="#FEFECE" filter="url(#fmlp31t885mu2)" points="259.9263,269.3999,269.9263,259.3999,458.9263,259.3999,458.9263,311.9936,448.9263,321.9936,259.9263,321.9936,259.9263,269.3999" style="stroke:#000000;stroke-width:1.5;"/><line style="stroke:#000000;stroke-width:1.5;" x1="448.9263" x2="458.9263" y1="269.3999" y2="259.3999"/><line style="stroke:#000000;stroke-width:1.5;" x1="259.9263" x2="448.9263" y1="269.3999" y2="269.3999"/><line style="stroke:#000000;stroke-width:1.5;" x1="448.9263" x2="448.9263" y1="269.3999" y2="321.9936"/><text fill="#000000" font-family="sans-serif" font-size="14" font-style="italic" lengthAdjust="spacing" textLength="159" x="274.9263" y="292.395">«Tablette numérique»</text><text fill="#000000" font-family="sans-serif" font-size="14" lengthAdjust="spacing" textLength="110" x="299.4263" y="308.6919">MachineAVoter</text><!--MD5=[b5a3e0d84499baf40117fbfb57713ee1]
entity Imprimante--><polygon fill="#FEFECE" filter="url(#fmlp31t885mu2)" points="72.9263,277.8999,82.9263,267.8999,197.9263,267.8999,197.9263,304.1967,187.9263,314.1967,72.9263,314.1967,72.9263,277.8999" style="stroke:#000000;stroke-width:1.5;"/><line style="stroke:#000000;stroke-width:1.5;" x1="187.9263" x2="197.9263" y1="277.8999" y2="267.8999"/><line style="stroke:#000000;stroke-width:1.5;" x1="72.9263" x2="187.9263" y1="277.8999" y2="277.8999"/><line style="stroke:#000000;stroke-width:1.5;" x1="187.9263" x2="187.9263" y1="277.8999" y2="314.1967"/><text fill="#000000" font-family="sans-serif" font-size="14" lengthAdjust="spacing" textLength="85" x="87.9263" y="300.895">Imprimante</text><!--MD5=[083aa04434c2aca6ebfd31014d913489]
entity ARE--><polygon fill="#FEFECE" filter="url(#fmlp31t885mu2)" points="756.9263,432.3999,766.9263,422.3999,981.9263,422.3999,981.9263,458.6967,971.9263,468.6967,756.9263,468.6967,756.9263,432.3999" style="stroke:#000000;stroke-width:1.5;"/><line style="stroke:#000000;stroke-width:1.5;" x1="971.9263" x2="981.9263" y1="432.3999" y2="422.3999"/><line style="stroke:#000000;stroke-width:1.5;" x1="756.9263" x2="971.9263" y1="432.3999" y2="432.3999"/><line style="stroke:#000000;stroke-width:1.5;" x1="971.9263" x2="971.9263" y1="432.3999" y2="468.6967"/><text fill="#000000" font-family="sans-serif" font-size="14" lengthAdjust="spacing" textLength="185" x="771.9263" y="455.395">AfficheurResultatElection</text><!--MD5=[8b944653c655024075d894af29a33c78]
entity SC--><polygon fill="#FEFECE" filter="url(#fmlp31t885mu2)" points="566.9263,583.8999,576.9263,573.8999,723.9263,573.8999,723.9263,626.4936,713.9263,636.4936,566.9263,636.4936,566.9263,583.8999" style="stroke:#000000;stroke-width:1.5;"/><line style="stroke:#000000;stroke-width:1.5;" x1="713.9263" x2="723.9263" y1="583.8999" y2="573.8999"/><line style="stroke:#000000;stroke-width:1.5;" x1="566.9263" x2="713.9263" y1="583.8999" y2="583.8999"/><line style="stroke:#000000;stroke-width:1.5;" x1="713.9263" x2="713.9263" y1="583.8999" y2="636.4936"/><text fill="#000000" font-family="sans-serif" font-size="14" font-style="italic" lengthAdjust="spacing" textLength="74" x="603.4263" y="606.895">«Serveur»</text><text fill="#000000" font-family="sans-serif" font-size="14" lengthAdjust="spacing" textLength="117" x="581.9263" y="623.1919">ServeurCentrale</text><!--MD5=[8ad42e69c823d91e931492f14bc2a1bb]
entity S--><ellipse cx="957.4263" cy="574.3999" fill="#FEFECE" filter="url(#fmlp31t885mu2)" rx="8" ry="8" style="stroke:#A80036;stroke-width:1.5;"/><path d="M957.4263,582.3999 L957.4263,609.3999 M944.4263,590.3999 L970.4263,590.3999 M957.4263,609.3999 L944.4263,624.3999 M957.4263,609.3999 L970.4263,624.3999 " fill="none" filter="url(#fmlp31t885mu2)" style="stroke:#A80036;stroke-width:1.5;"/><text fill="#000000" font-family="sans-serif" font-size="14" lengthAdjust="spacing" textLength="75" x="919.9263" y="642.895">Secretaire</text><!--MD5=[69d8d45188bfd87ac85d18be3b70c704]
entity OP--><ellipse cx="645.4263" cy="732.3999" fill="#FEFECE" filter="url(#fmlp31t885mu2)" rx="8" ry="8" style="stroke:#A80036;stroke-width:1.5;"/><path d="M645.4263,740.3999 L645.4263,767.3999 M632.4263,748.3999 L658.4263,748.3999 M645.4263,767.3999 L632.4263,782.3999 M645.4263,767.3999 L658.4263,782.3999 " fill="none" filter="url(#fmlp31t885mu2)" style="stroke:#A80036;stroke-width:1.5;"/><text fill="#000000" font-family="sans-serif" font-size="14" lengthAdjust="spacing" textLength="144" x="573.4263" y="800.895">OrganismeDePresse</text><!--MD5=[0313ddc4f8ed0f4991a51edae0b1647c]
entity AC--><ellipse cx="355.4263" cy="574.3999" fill="#FEFECE" filter="url(#fmlp31t885mu2)" rx="8" ry="8" style="stroke:#A80036;stroke-width:1.5;"/><path d="M355.4263,582.3999 L355.4263,609.3999 M342.4263,590.3999 L368.4263,590.3999 M355.4263,609.3999 L342.4263,624.3999 M355.4263,609.3999 L368.4263,624.3999 " fill="none" filter="url(#fmlp31t885mu2)" style="stroke:#A80036;stroke-width:1.5;"/><text fill="#000000" font-family="sans-serif" font-size="14" lengthAdjust="spacing" textLength="108" x="301.4263" y="642.895">Administrateur</text><!--MD5=[dae07da79a4b592a6ece1209d6d2cdb2]
link ARE to SC--><path d="M837.8073,468.7019 C798.8543,496.1779 732.4853,542.9929 688.7933,573.8109 " fill="none" id="ARE-SC" style="stroke:#A80036;stroke-width:1.0;"/><polygon fill="#000000" points="764.3405,529.3483,773.4259,526.5363,770.0379,521.7331,764.3405,529.3483" style="stroke:#000000;stroke-width:1.0;"/><text fill="#000000" font-family="sans-serif" font-size="13" lengthAdjust="spacing" textLength="69" x="777.4263" y="530.9668">notifié  par</text><text fill="#000000" font-family="sans-serif" font-size="13" lengthAdjust="spacing" textLength="8" x="820.68" y="488.6408">1</text><text fill="#000000" font-family="sans-serif" font-size="13" lengthAdjust="spacing" textLength="8" x="688.9128" y="562.8713">1</text><!--MD5=[c4d34a8ecfd655bb50b94f72bab7b771]
link AL to SL--><path d="M152.4483,445.3999 C185.0433,445.3999 227.3493,445.3999 262.3123,445.3999 " fill="none" id="AL-SL" style="stroke:#A80036;stroke-width:1.0;"/><polygon fill="#000000" points="179.9263,433.9663,170.8813,431.0274,170.8813,436.9052,179.9263,433.9663" style="stroke:#000000;stroke-width:1.0;"/><text fill="#000000" font-family="sans-serif" font-size="13" lengthAdjust="spacing" textLength="60" x="183.9263" y="438.4668">configure</text><!--MD5=[5b7705ee93d8173b44e6bef9844cb767]
link Imprimante to MAV--><path d="M198.1203,290.8999 C217.2763,290.8999 238.8353,290.8999 259.8083,290.8999 " fill="none" id="Imprimante-MAV" style="stroke:#A80036;stroke-width:1.0;"/><text fill="#000000" font-family="sans-serif" font-size="13" lengthAdjust="spacing" textLength="25" x="216.4263" y="283.9668">USB</text><!--MD5=[75e7387c541acf15e0a613a17e33c3ad]
link E to MAV--><path d="M359.4263,161.7139 C359.4263,191.5989 359.4263,231.9159 359.4263,259.2999 " fill="none" id="E-MAV" style="stroke:#A80036;stroke-width:1.0;"/><polygon fill="#000000" points="364.4263,204.9663,367.3653,195.9212,361.4874,195.9212,364.4263,204.9663" style="stroke:#000000;stroke-width:1.0;"/><text fill="#000000" font-family="sans-serif" font-size="13" lengthAdjust="spacing" textLength="29" x="373.4263" y="204.4668">vote</text><!--MD5=[e2df316f513f72335aa2b415784cb9d5]
link MAV to SL--><path d="M353.1533,322.7609 C347.7573,349.3059 340.0153,387.3899 334.6373,413.8459 " fill="none" id="MAV-SL" style="stroke:#A80036;stroke-width:1.0;"/><polygon fill="#000000" points="351.4303,367.8661,356.1122,359.5877,350.3521,358.4168,351.4303,367.8661" style="stroke:#000000;stroke-width:1.0;"/><text fill="#000000" font-family="sans-serif" font-size="13" lengthAdjust="spacing" textLength="113" x="361.4263" y="367.4668">enregistre le vote</text><text fill="#000000" font-family="sans-serif" font-size="13" lengthAdjust="spacing" textLength="7" x="344.3515" y="342.1346">*</text><!--MD5=[efb38a7614ee04debe35f097ad6161da]
link SC to S--><path d="M724.1573,605.3999 C786.7983,605.3999 871.6773,605.3999 919.8793,605.3999 " fill="none" id="SC-S" style="stroke:#A80036;stroke-width:1.0;"/><text fill="#000000" font-family="sans-serif" font-size="13" lengthAdjust="spacing" textLength="155" x="742.4263" y="583.4668">gère organismes presse</text><polygon fill="#000000" points="813.4263,594.0991,822.4714,597.038,822.4714,591.1602,813.4263,594.0991" style="stroke:#000000;stroke-width:1.0;"/><text fill="#000000" font-family="sans-serif" font-size="13" lengthAdjust="spacing" textLength="0" x="830.4263" y="598.5996"/><!--MD5=[ce80a3944f717ef393a3d6f466cb1d6f]
link SC to OP--><path d="M645.4263,637.2209 C645.4263,661.7279 645.4263,696.1889 645.4263,722.7508 " fill="none" id="SC-OP" style="stroke:#A80036;stroke-width:1.0;"/><text fill="#000000" font-family="sans-serif" font-size="13" lengthAdjust="spacing" textLength="75" x="646.4263" y="688.9668">s'enregistre</text><!--MD5=[ebd22d556a4b0311e7f9e9283da2adcb]
link SL to SC--><path d="M389.9233,477.0509 C445.9183,504.9609 528.1593,545.9509 584.1003,573.8339 " fill="none" id="SL-SC" style="stroke:#A80036;stroke-width:1.0;"/><polygon fill="#000000" points="514.9013,528.6967,508.1171,522.0315,505.495,527.2921,514.9013,528.6967" style="stroke:#000000;stroke-width:1.0;"/><text fill="#000000" font-family="sans-serif" font-size="13" lengthAdjust="spacing" textLength="114" x="519.4263" y="530.9668">Compile les votes</text><text fill="#000000" font-family="sans-serif" font-size="13" lengthAdjust="spacing" textLength="7" x="393.979" y="496.6323">*</text><!--MD5=[beff5c0b7c570eca3e195d714ac74938]
link SL to P--><path d="M394.8053,445.3999 C450.5243,445.3999 529.3643,445.3999 582.7883,445.3999 " fill="none" id="SL-P" style="stroke:#A80036;stroke-width:1.0;"/><text fill="#000000" font-family="sans-serif" font-size="13" lengthAdjust="spacing" textLength="148" x="412.6763" y="423.4668">confirme code electeur</text><polygon fill="#000000" points="480.1763,434.0991,489.2214,437.038,489.2214,431.1602,480.1763,434.0991" style="stroke:#000000;stroke-width:1.0;"/><text fill="#000000" font-family="sans-serif" font-size="13" lengthAdjust="spacing" textLength="0" x="497.1763" y="438.5996"/><!--MD5=[1caf9f9c11fad6fb3e7d7b6a1c89adb4]
link AC to SC--><path d="M409.6333,605.3999 C453.8963,605.3999 517.0473,605.3999 566.8573,605.3999 " fill="none" id="AC-SC" style="stroke:#A80036;stroke-width:1.0;"/><polygon fill="#000000" points="436.6763,593.9663,427.6313,591.0274,427.6313,596.9052,436.6763,593.9663" style="stroke:#000000;stroke-width:1.0;"/><text fill="#000000" font-family="sans-serif" font-size="13" lengthAdjust="spacing" textLength="108" x="440.6763" y="598.4668">configure reseau</text><!--MD5=[e9cbf09518d57fb8dd48d1e022c24642]
@startuml
title Vue de contexte
cloud BureauScrutin{
  package Kiosque {
    node MachineAVoter <<Tablette numérique>> as MAV
    node Imprimante
  }
  Actor Adminstrateur as AL
  Node ServeurLocal <<Serveur>> as SL
  Actor PreposeAuTable as P
  Actor Electeur as E

}

Node ServeurCentrale <<Serveur>> as SC
Actor Secretaire as S
Actor OrganismeDePresse as OP
Actor Administrateur as AC
cloud BureauDirecteurElection{
  node AfficheurResultatElection as ARE 
}
ARE "1" - - "1" SC: notifié  par > 
AL -r- SL: configure >
MAV -l- Imprimante: USB >
E - - MAV: vote >
MAV "*" - -  SL: enregistre le vote >
S  -l- SC: gère organismes presse \n <
OP -u-  SC: s'enregistre >
SL "*" - - SC: Compile les votes >
P -l- SL: confirme code electeur \n <
AC -r- SC: configure reseau >
@enduml

PlantUML version 1.2021.15beta8(Unknown compile time)
(GPL source distribution)
Java Runtime: Java(TM) SE Runtime Environment
JVM: Java HotSpot(TM) 64-Bit Server VM
Default Encoding: UTF-8
Language: en
Country: US
--></g></svg>