<svg contentStyleType="text/css" height="414" preserveAspectRatio="none" viewBox="0 0 425 414" width="425" xmlns="http://www.w3.org/2000/svg" zoomAndPan="magnify"><path d="m78.5 5h254v26.2969h-254z" fill="none"/><text font-family="sans-serif" font-size="14" font-weight="bold" lengthAdjust="spacing" textLength="244" x="83.5" y="22.9951">Vue composant et connecteur</text><rect fill="#f1f1f1" height="46.2969" rx="2.5" stroke="#181818" stroke-width=".5" width="94" x="25" y="44.2969"/><path d="m99 49.2969h15v10h-15z" fill="#f1f1f1" stroke="#181818" stroke-width=".5"/><path d="m97 51.2969h4v2h-4z" fill="#f1f1f1" stroke="#181818" stroke-width=".5"/><path d="m97 55.2969h4v2h-4z" fill="#f1f1f1" stroke="#181818" stroke-width=".5"/><text font-family="sans-serif" font-size="14" lengthAdjust="spacing" textLength="54" x="40" y="77.292">client 1</text><rect fill="#f1f1f1" height="46.2969" rx="2.5" stroke="#181818" stroke-width=".5" width="93" x="154.5" y="44.2969"/><path d="m227.5 49.2969h15v10h-15z" fill="#f1f1f1" stroke="#181818" stroke-width=".5"/><path d="m225.5 51.2969h4v2h-4z" fill="#f1f1f1" stroke="#181818" stroke-width=".5"/><path d="m225.5 55.2969h4v2h-4z" fill="#f1f1f1" stroke="#181818" stroke-width=".5"/><text font-family="sans-serif" font-size="14" lengthAdjust="spacing" textLength="53" x="169.5" y="77.292">client 2</text><rect fill="#f1f1f1" height="46.2969" rx="2.5" stroke="#181818" stroke-width=".5" width="136" x="283" y="44.2969"/><path d="m399 49.2969h15v10h-15z" fill="#f1f1f1" stroke="#181818" stroke-width=".5"/><path d="m397 51.2969h4v2h-4z" fill="#f1f1f1" stroke="#181818" stroke-width=".5"/><path d="m397 55.2969h4v2h-4z" fill="#f1f1f1" stroke="#181818" stroke-width=".5"/><text font-family="sans-serif" font-size="14" lengthAdjust="spacing" textLength="96" x="298" y="77.292">client ...3000</text><rect fill="#f1f1f1" height="46.2969" rx="2.5" stroke="#181818" stroke-width=".5" width="132" x="135" y="150.2969"/><path d="m247 155.2969h15v10h-15z" fill="#f1f1f1" stroke="#181818" stroke-width=".5"/><path d="m245 157.2969h4v2h-4z" fill="#f1f1f1" stroke="#181818" stroke-width=".5"/><path d="m245 161.2969h4v2h-4z" fill="#f1f1f1" stroke="#181818" stroke-width=".5"/><text font-family="sans-serif" font-size="14" lengthAdjust="spacing" textLength="92" x="150" y="183.292">loadBalancer</text><rect fill="#f1f1f1" height="46.2969" rx="2.5" stroke="#181818" stroke-width=".5" width="106" x="7" y="256.2969"/><path d="m93 261.2969h15v10h-15z" fill="#f1f1f1" stroke="#181818" stroke-width=".5"/><path d="m91 263.2969h4v2h-4z" fill="#f1f1f1" stroke="#181818" stroke-width=".5"/><path d="m91 267.2969h4v2h-4z" fill="#f1f1f1" stroke="#181818" stroke-width=".5"/><text font-family="sans-serif" font-size="14" lengthAdjust="spacing" textLength="66" x="22" y="289.292">Service 1</text><rect fill="#f1f1f1" height="46.2969" rx="2.5" stroke="#181818" stroke-width=".5" width="105" x="148.5" y="256.2969"/><path d="m233.5 261.2969h15v10h-15z" fill="#f1f1f1" stroke="#181818" stroke-width=".5"/><path d="m231.5 263.2969h4v2h-4z" fill="#f1f1f1" stroke="#181818" stroke-width=".5"/><path d="m231.5 267.2969h4v2h-4z" fill="#f1f1f1" stroke="#181818" stroke-width=".5"/><text font-family="sans-serif" font-size="14" lengthAdjust="spacing" textLength="65" x="163.5" y="289.292">Service 2</text><rect fill="#f1f1f1" height="46.2969" rx="2.5" stroke="#181818" stroke-width=".5" width="106" x="289" y="256.2969"/><path d="m375 261.2969h15v10h-15z" fill="#f1f1f1" stroke="#181818" stroke-width=".5"/><path d="m373 263.2969h4v2h-4z" fill="#f1f1f1" stroke="#181818" stroke-width=".5"/><path d="m373 267.2969h4v2h-4z" fill="#f1f1f1" stroke="#181818" stroke-width=".5"/><text font-family="sans-serif" font-size="14" lengthAdjust="spacing" textLength="66" x="304" y="289.292">Service 3</text><rect fill="#f1f1f1" height="46.2969" rx="2.5" stroke="#181818" stroke-width=".5" width="154" x="124" y="362.2969"/><path d="m258 367.2969h15v10h-15z" fill="#f1f1f1" stroke="#181818" stroke-width=".5"/><path d="m256 369.2969h4v2h-4z" fill="#f1f1f1" stroke="#181818" stroke-width=".5"/><path d="m256 373.2969h4v2h-4z" fill="#f1f1f1" stroke="#181818" stroke-width=".5"/><text font-family="sans-serif" font-size="14" lengthAdjust="spacing" textLength="114" x="139" y="395.292">Base de donnée</text><g stroke="#181818"><path d="m99.3576 90.3529c20.6094 16.615 48.8924 39.417 70.3924 56.75" fill="none"/><path d="m173.682 150.2729-4.4958-8.7629.6033 5.6246-5.6246.6034z" fill="#181818"/><path d="m201 90.3529v54.786" fill="none"/><path d="m201 150.2729 4-9-4 4-4-4z" fill="#181818"/><path d="m319.189 90.3529c-24.064 16.684-57.125 39.606-82.162 56.965" fill="none"/><path d="m232.765 150.2729 9.6753-1.8408-5.5663-1.0081 1.0081-5.5663z" fill="#181818"/><path d="m171.098 196.3529c-22.527 16.615-53.441 39.417-76.9407 56.75" fill="none"/><path d="m89.8594 256.2729 9.617-2.1245-5.5935-.844.844-5.5935z" fill="#181818"/><path d="m201 196.3529v54.786" fill="none"/><path d="m201 256.2729 4-9-4 4-4-4z" fill="#181818"/><path d="m230.902 196.3529c22.527 16.615 53.441 39.417 76.941 56.75" fill="none"/><path d="m312.141 256.2729-4.8667-8.5625.8435 5.5937-5.5936.8435z" fill="#181818"/><path d="m89.9025 302.3529c22.5265 16.6147 53.4405 39.4169 76.9405 56.75" fill="none"/><path d="m171.141 362.273-4.8677-8.5619.8442 5.5935-5.5936.8442z" fill="#181818"/><path d="m201 302.3529v54.7858" fill="none"/><path d="m201 362.273 4-9-4 4-4-4z" fill="#181818"/><path d="m312.098 302.3529c-22.527 16.6147-53.441 39.4169-76.941 56.75" fill="none"/><path d="m230.859 362.273 9.6171-2.1242-5.5936-.8442.8442-5.5935z" fill="#181818"/></g></svg>