<svg contentStyleType="text/css" height="96" preserveAspectRatio="none" viewBox="0 0 467 96" width="467" xmlns="http://www.w3.org/2000/svg" zoomAndPan="magnify"><path d="m125 5h203v26.2969h-203z" fill="none"/><text font-family="sans-serif" font-size="14" font-weight="bold" lengthAdjust="spacing" textLength="193" x="130" y="22.9951">Diagramme de contexte</text><g fill="#f1f1f1" stroke="#181818" stroke-width=".5"><rect height="46.2969" rx="2.5" width="136" x="7" y="44.2969"/><path d="m123 49.2969h15v10h-15z"/><path d="m121 51.2969h4v2h-4z"/><path d="m121 55.2969h4v2h-4z"/></g><text font-family="sans-serif" font-size="14" lengthAdjust="spacing" textLength="96" x="22" y="77.292">client ...3000</text><rect fill="#f1f1f1" height="46.2969" rx="2.5" stroke="#181818" stroke-width=".5" width="93" x="178.5" y="44.2969"/><path d="m251.5 49.2969h15v10h-15z" fill="#f1f1f1" stroke="#181818" stroke-width=".5"/><path d="m249.5 51.2969h4v2h-4z" fill="#f1f1f1" stroke="#181818" stroke-width=".5"/><path d="m249.5 55.2969h4v2h-4z" fill="#f1f1f1" stroke="#181818" stroke-width=".5"/><text font-family="sans-serif" font-size="14" lengthAdjust="spacing" textLength="53" x="193.5" y="77.292">Service</text><rect fill="#f1f1f1" height="46.2969" rx="2.5" stroke="#181818" stroke-width=".5" width="154" x="307" y="44.2969"/><path d="m441 49.2969h15v10h-15z" fill="#f1f1f1" stroke="#181818" stroke-width=".5"/><path d="m439 51.2969h4v2h-4z" fill="#f1f1f1" stroke="#181818" stroke-width=".5"/><path d="m439 55.2969h4v2h-4z" fill="#f1f1f1" stroke="#181818" stroke-width=".5"/><text font-family="sans-serif" font-size="14" lengthAdjust="spacing" textLength="114" x="322" y="77.292">Base de donnée</text><path d="m143.262 67.2969h29.908" fill="none" stroke="#181818"/><path d="m178.384 67.2969-9-4 4 4-4 4z" fill="#181818" stroke="#181818"/><text font-family="sans-serif" font-size="13" lengthAdjust="spacing" textLength="48" x="122.7226" y="59.1178">1..3000</text><text font-family="sans-serif" font-size="13" lengthAdjust="spacing" textLength="8" x="162.6334" y="80.4996">1</text><path d="m271.582 67.2969h29.916" fill="none" stroke="#181818"/><path d="m306.713 67.2969-9-4 4 4-4 4z" fill="#181818" stroke="#181818"/><text font-family="sans-serif" font-size="13" lengthAdjust="spacing" textLength="8" x="279.6435" y="63.1554">1</text><text font-family="sans-serif" font-size="13" lengthAdjust="spacing" textLength="8" x="290.9653" y="63.6411">1</text></svg>