<?xml version="1.0" encoding="UTF-8" standalone="no"?><svg xmlns="http://www.w3.org/2000/svg" xmlns:xlink="http://www.w3.org/1999/xlink" contentScriptType="application/ecmascript" contentStyleType="text/css" height="801px" preserveAspectRatio="none" style="width:2460px;height:801px;background:#FFFFFF;" version="1.1" viewBox="0 0 2460 801" width="2460px" zoomAndPan="magnify"><defs><filter height="300%" id="f1mq9f3xacpo4b" width="300%" x="-1" y="-1"><feGaussianBlur result="blurOut" stdDeviation="2.0"/><feColorMatrix in="blurOut" result="blurOut2" type="matrix" values="0 0 0 0 0 0 0 0 0 0 0 0 0 0 0 0 0 0 .4 0"/><feOffset dx="4.0" dy="4.0" in="blurOut2" result="blurOut3"/><feBlend in="SourceGraphic" in2="blurOut3" mode="normal"/></filter></defs><g><!--MD5=[2cf2e1e980f27329110bfe76e62137bf]
cluster SACB--><polygon fill="#FFFFFF" filter="url(#f1mq9f3xacpo4b)" points="1150.5,446.2422,1193.5,446.2422,1200.5,468.7305,2443,468.7305,2443,794.2422,1150.5,794.2422,1150.5,446.2422" style="stroke:#000000;stroke-width:1.5;"/><line style="stroke:#000000;stroke-width:1.5;" x1="1150.5" x2="1200.5" y1="468.7305" y2="468.7305"/><text fill="#000000" font-family="sans-serif" font-size="14" font-weight="bold" lengthAdjust="spacing" textLength="37" x="1154.5" y="461.7773">SACB</text><!--MD5=[7cf50b9a2c4930234a543a293fb20c9e]
cluster Acteurs--><polygon fill="#FFFFFF" filter="url(#f1mq9f3xacpo4b)" points="231,194.2422,291,194.2422,298,216.7305,432,216.7305,432,566.2422,231,566.2422,231,194.2422" style="stroke:#000000;stroke-width:1.5;"/><line style="stroke:#000000;stroke-width:1.5;" x1="231" x2="298" y1="216.7305" y2="216.7305"/><text fill="#000000" font-family="sans-serif" font-size="14" font-weight="bold" lengthAdjust="spacing" textLength="54" x="235" y="209.7773">Acteurs</text><!--MD5=[2f6a6a2faaf4a3bdd465999fbfd2533c]
cluster Bagages--><polygon fill="#FFFFFF" filter="url(#f1mq9f3xacpo4b)" points="840,74.2422,905,74.2422,912,96.7305,1323,96.7305,1323,422.2422,840,422.2422,840,74.2422" style="stroke:#000000;stroke-width:1.5;"/><line style="stroke:#000000;stroke-width:1.5;" x1="840" x2="912" y1="96.7305" y2="96.7305"/><text fill="#000000" font-family="sans-serif" font-size="14" font-weight="bold" lengthAdjust="spacing" textLength="59" x="844" y="89.7773">Bagages</text><!--MD5=[7826dec7ee3ca224fe4da467ab4fbf1f]
class ControleurChariot--><rect codeLine="6" fill="#FEFECE" filter="url(#f1mq9f3xacpo4b)" height="48" id="ControleurChariot" style="stroke:#A80036;stroke-width:1.5;" width="133" x="1166.5" y="481.2422"/><ellipse cx="1181.5" cy="497.2422" fill="#ADD1B2" rx="11" ry="11" style="stroke:#A80036;stroke-width:1.0;"/><path d="M1183.9731,503.3853 Q1183.3921,503.6841 1182.7529,503.8335 Q1182.1138,503.9829 1181.4082,503.9829 Q1178.9014,503.9829 1177.5815,502.3311 Q1176.2617,500.6792 1176.2617,497.5581 Q1176.2617,494.4287 1177.5815,492.7769 Q1178.9014,491.125 1181.4082,491.125 Q1182.1138,491.125 1182.7612,491.2744 Q1183.4087,491.4238 1183.9731,491.7227 L1183.9731,494.4453 Q1183.3423,493.8643 1182.7488,493.5945 Q1182.1553,493.3247 1181.5244,493.3247 Q1180.1797,493.3247 1179.4949,494.3914 Q1178.8101,495.458 1178.8101,497.5581 Q1178.8101,499.6499 1179.4949,500.7166 Q1180.1797,501.7832 1181.5244,501.7832 Q1182.1553,501.7832 1182.7488,501.5134 Q1183.3423,501.2437 1183.9731,500.6626 Z " fill="#000000"/><text fill="#000000" font-family="sans-serif" font-size="12" lengthAdjust="spacing" textLength="101" x="1195.5" y="501.7773">ControleurChariot</text><line style="stroke:#A80036;stroke-width:1.5;" x1="1167.5" x2="1298.5" y1="513.2422" y2="513.2422"/><line style="stroke:#A80036;stroke-width:1.5;" x1="1167.5" x2="1298.5" y1="521.2422" y2="521.2422"/><!--MD5=[7b9c69475033013649bbd3181ea93773]
class CapteursPresence--><rect codeLine="7" fill="#FEFECE" filter="url(#f1mq9f3xacpo4b)" height="48" id="CapteursPresence" style="stroke:#A80036;stroke-width:1.5;" width="136" x="2291" y="730.2422"/><ellipse cx="2306" cy="746.2422" fill="#ADD1B2" rx="11" ry="11" style="stroke:#A80036;stroke-width:1.0;"/><path d="M2308.4731,752.3853 Q2307.8921,752.6841 2307.2529,752.8335 Q2306.6138,752.9829 2305.9082,752.9829 Q2303.4014,752.9829 2302.0815,751.3311 Q2300.7617,749.6792 2300.7617,746.5581 Q2300.7617,743.4287 2302.0815,741.7769 Q2303.4014,740.125 2305.9082,740.125 Q2306.6138,740.125 2307.2612,740.2744 Q2307.9087,740.4238 2308.4731,740.7227 L2308.4731,743.4453 Q2307.8423,742.8643 2307.2488,742.5945 Q2306.6553,742.3247 2306.0244,742.3247 Q2304.6797,742.3247 2303.9949,743.3914 Q2303.3101,744.458 2303.3101,746.5581 Q2303.3101,748.6499 2303.9949,749.7166 Q2304.6797,750.7832 2306.0244,750.7832 Q2306.6553,750.7832 2307.2488,750.5134 Q2307.8423,750.2437 2308.4731,749.6626 Z " fill="#000000"/><text fill="#000000" font-family="sans-serif" font-size="12" lengthAdjust="spacing" textLength="104" x="2320" y="750.7773">CapteursPresence</text><line style="stroke:#A80036;stroke-width:1.5;" x1="2292" x2="2426" y1="762.2422" y2="762.2422"/><line style="stroke:#A80036;stroke-width:1.5;" x1="2292" x2="2426" y1="770.2422" y2="770.2422"/><!--MD5=[2377b4ad2a19f23cf580fd0e90c49075]
class Convoyeur--><rect codeLine="8" fill="#FEFECE" filter="url(#f1mq9f3xacpo4b)" height="48" id="Convoyeur" style="stroke:#A80036;stroke-width:1.5;" width="92" x="2313" y="564.2422"/><ellipse cx="2328" cy="580.2422" fill="#ADD1B2" rx="11" ry="11" style="stroke:#A80036;stroke-width:1.0;"/><path d="M2330.4731,586.3853 Q2329.8921,586.6841 2329.2529,586.8335 Q2328.6138,586.9829 2327.9082,586.9829 Q2325.4014,586.9829 2324.0815,585.3311 Q2322.7617,583.6792 2322.7617,580.5581 Q2322.7617,577.4287 2324.0815,575.7769 Q2325.4014,574.125 2327.9082,574.125 Q2328.6138,574.125 2329.2612,574.2744 Q2329.9087,574.4238 2330.4731,574.7227 L2330.4731,577.4453 Q2329.8423,576.8643 2329.2488,576.5945 Q2328.6553,576.3247 2328.0244,576.3247 Q2326.6797,576.3247 2325.9949,577.3914 Q2325.3101,578.458 2325.3101,580.5581 Q2325.3101,582.6499 2325.9949,583.7166 Q2326.6797,584.7832 2328.0244,584.7832 Q2328.6553,584.7832 2329.2488,584.5134 Q2329.8423,584.2437 2330.4731,583.6626 Z " fill="#000000"/><text fill="#000000" font-family="sans-serif" font-size="12" lengthAdjust="spacing" textLength="60" x="2342" y="584.7773">Convoyeur</text><line style="stroke:#A80036;stroke-width:1.5;" x1="2314" x2="2404" y1="596.2422" y2="596.2422"/><line style="stroke:#A80036;stroke-width:1.5;" x1="2314" x2="2404" y1="604.2422" y2="604.2422"/><!--MD5=[d091be7bd2de2295d5161dee09f8c209]
class Caroussel--><rect codeLine="9" fill="#FEFECE" filter="url(#f1mq9f3xacpo4b)" height="48" id="Caroussel" style="stroke:#A80036;stroke-width:1.5;" width="88" x="2315" y="481.2422"/><ellipse cx="2330" cy="497.2422" fill="#ADD1B2" rx="11" ry="11" style="stroke:#A80036;stroke-width:1.0;"/><path d="M2332.4731,503.3853 Q2331.8921,503.6841 2331.2529,503.8335 Q2330.6138,503.9829 2329.9082,503.9829 Q2327.4014,503.9829 2326.0815,502.3311 Q2324.7617,500.6792 2324.7617,497.5581 Q2324.7617,494.4287 2326.0815,492.7769 Q2327.4014,491.125 2329.9082,491.125 Q2330.6138,491.125 2331.2612,491.2744 Q2331.9087,491.4238 2332.4731,491.7227 L2332.4731,494.4453 Q2331.8423,493.8643 2331.2488,493.5945 Q2330.6553,493.3247 2330.0244,493.3247 Q2328.6797,493.3247 2327.9949,494.3914 Q2327.3101,495.458 2327.3101,497.5581 Q2327.3101,499.6499 2327.9949,500.7166 Q2328.6797,501.7832 2330.0244,501.7832 Q2330.6553,501.7832 2331.2488,501.5134 Q2331.8423,501.2437 2332.4731,500.6626 Z " fill="#000000"/><text fill="#000000" font-family="sans-serif" font-size="12" lengthAdjust="spacing" textLength="56" x="2344" y="501.7773">Caroussel</text><line style="stroke:#A80036;stroke-width:1.5;" x1="2316" x2="2402" y1="513.2422" y2="513.2422"/><line style="stroke:#A80036;stroke-width:1.5;" x1="2316" x2="2402" y1="521.2422" y2="521.2422"/><!--MD5=[da149e59b4fada292cffb47bd80c4c5f]
class ChariotTeleguide--><rect codeLine="10" fill="#FEFECE" filter="url(#f1mq9f3xacpo4b)" height="48" id="ChariotTeleguide" style="stroke:#A80036;stroke-width:1.5;" width="130" x="1436" y="481.2422"/><ellipse cx="1451" cy="497.2422" fill="#ADD1B2" rx="11" ry="11" style="stroke:#A80036;stroke-width:1.0;"/><path d="M1453.4731,503.3853 Q1452.8921,503.6841 1452.2529,503.8335 Q1451.6138,503.9829 1450.9082,503.9829 Q1448.4014,503.9829 1447.0815,502.3311 Q1445.7617,500.6792 1445.7617,497.5581 Q1445.7617,494.4287 1447.0815,492.7769 Q1448.4014,491.125 1450.9082,491.125 Q1451.6138,491.125 1452.2612,491.2744 Q1452.9087,491.4238 1453.4731,491.7227 L1453.4731,494.4453 Q1452.8423,493.8643 1452.2488,493.5945 Q1451.6553,493.3247 1451.0244,493.3247 Q1449.6797,493.3247 1448.9949,494.3914 Q1448.3101,495.458 1448.3101,497.5581 Q1448.3101,499.6499 1448.9949,500.7166 Q1449.6797,501.7832 1451.0244,501.7832 Q1451.6553,501.7832 1452.2488,501.5134 Q1452.8423,501.2437 1453.4731,500.6626 Z " fill="#000000"/><text fill="#000000" font-family="sans-serif" font-size="12" lengthAdjust="spacing" textLength="98" x="1465" y="501.7773">ChariotTeleguide</text><line style="stroke:#A80036;stroke-width:1.5;" x1="1437" x2="1565" y1="513.2422" y2="513.2422"/><line style="stroke:#A80036;stroke-width:1.5;" x1="1437" x2="1565" y1="521.2422" y2="521.2422"/><!--MD5=[b69b8b1bd2c6492dc8381b68cc1f680b]
class ControleurConvoyeur--><rect codeLine="11" fill="#FEFECE" filter="url(#f1mq9f3xacpo4b)" height="48" id="ControleurConvoyeur" style="stroke:#A80036;stroke-width:1.5;" width="152" x="1840" y="653.2422"/><ellipse cx="1855" cy="669.2422" fill="#ADD1B2" rx="11" ry="11" style="stroke:#A80036;stroke-width:1.0;"/><path d="M1857.4731,675.3853 Q1856.8921,675.6841 1856.2529,675.8335 Q1855.6138,675.9829 1854.9082,675.9829 Q1852.4014,675.9829 1851.0815,674.3311 Q1849.7617,672.6792 1849.7617,669.5581 Q1849.7617,666.4287 1851.0815,664.7769 Q1852.4014,663.125 1854.9082,663.125 Q1855.6138,663.125 1856.2612,663.2744 Q1856.9087,663.4238 1857.4731,663.7227 L1857.4731,666.4453 Q1856.8423,665.8643 1856.2488,665.5945 Q1855.6553,665.3247 1855.0244,665.3247 Q1853.6797,665.3247 1852.9949,666.3914 Q1852.3101,667.458 1852.3101,669.5581 Q1852.3101,671.6499 1852.9949,672.7166 Q1853.6797,673.7832 1855.0244,673.7832 Q1855.6553,673.7832 1856.2488,673.5134 Q1856.8423,673.2437 1857.4731,672.6626 Z " fill="#000000"/><text fill="#000000" font-family="sans-serif" font-size="12" lengthAdjust="spacing" textLength="120" x="1869" y="673.7773">ControleurConvoyeur</text><line style="stroke:#A80036;stroke-width:1.5;" x1="1841" x2="1991" y1="685.2422" y2="685.2422"/><line style="stroke:#A80036;stroke-width:1.5;" x1="1841" x2="1991" y1="693.2422" y2="693.2422"/><!--MD5=[247d14a7513b6a4e342ed0a24fb2362b]
class Terminal--><rect codeLine="12" fill="#FEFECE" filter="url(#f1mq9f3xacpo4b)" height="48" id="Terminal" style="stroke:#A80036;stroke-width:1.5;" width="83" x="1874.5" y="564.2422"/><ellipse cx="1889.5" cy="580.2422" fill="#ADD1B2" rx="11" ry="11" style="stroke:#A80036;stroke-width:1.0;"/><path d="M1891.9731,586.3853 Q1891.3921,586.6841 1890.7529,586.8335 Q1890.1138,586.9829 1889.4082,586.9829 Q1886.9014,586.9829 1885.5815,585.3311 Q1884.2617,583.6792 1884.2617,580.5581 Q1884.2617,577.4287 1885.5815,575.7769 Q1886.9014,574.125 1889.4082,574.125 Q1890.1138,574.125 1890.7612,574.2744 Q1891.4087,574.4238 1891.9731,574.7227 L1891.9731,577.4453 Q1891.3423,576.8643 1890.7488,576.5945 Q1890.1553,576.3247 1889.5244,576.3247 Q1888.1797,576.3247 1887.4949,577.3914 Q1886.8101,578.458 1886.8101,580.5581 Q1886.8101,582.6499 1887.4949,583.7166 Q1888.1797,584.7832 1889.5244,584.7832 Q1890.1553,584.7832 1890.7488,584.5134 Q1891.3423,584.2437 1891.9731,583.6626 Z " fill="#000000"/><text fill="#000000" font-family="sans-serif" font-size="12" lengthAdjust="spacing" textLength="51" x="1903.5" y="584.7773">Terminal</text><line style="stroke:#A80036;stroke-width:1.5;" x1="1875.5" x2="1956.5" y1="596.2422" y2="596.2422"/><line style="stroke:#A80036;stroke-width:1.5;" x1="1875.5" x2="1956.5" y1="604.2422" y2="604.2422"/><!--MD5=[e51345a1c47f22211dec615d51d20fd2]
class LecteurCodeBar--><rect codeLine="13" fill="#FEFECE" filter="url(#f1mq9f3xacpo4b)" height="48" id="LecteurCodeBar" style="stroke:#A80036;stroke-width:1.5;" width="123" x="2297.5" y="647.2422"/><ellipse cx="2312.5" cy="663.2422" fill="#ADD1B2" rx="11" ry="11" style="stroke:#A80036;stroke-width:1.0;"/><path d="M2314.9731,669.3853 Q2314.3921,669.6841 2313.7529,669.8335 Q2313.1138,669.9829 2312.4082,669.9829 Q2309.9014,669.9829 2308.5815,668.3311 Q2307.2617,666.6792 2307.2617,663.5581 Q2307.2617,660.4287 2308.5815,658.7769 Q2309.9014,657.125 2312.4082,657.125 Q2313.1138,657.125 2313.7612,657.2744 Q2314.4087,657.4238 2314.9731,657.7227 L2314.9731,660.4453 Q2314.3423,659.8643 2313.7488,659.5945 Q2313.1553,659.3247 2312.5244,659.3247 Q2311.1797,659.3247 2310.4949,660.3914 Q2309.8101,661.458 2309.8101,663.5581 Q2309.8101,665.6499 2310.4949,666.7166 Q2311.1797,667.7832 2312.5244,667.7832 Q2313.1553,667.7832 2313.7488,667.5134 Q2314.3423,667.2437 2314.9731,666.6626 Z " fill="#000000"/><text fill="#000000" font-family="sans-serif" font-size="12" lengthAdjust="spacing" textLength="91" x="2326.5" y="667.7773">LecteurCodeBar</text><line style="stroke:#A80036;stroke-width:1.5;" x1="2298.5" x2="2419.5" y1="679.2422" y2="679.2422"/><line style="stroke:#A80036;stroke-width:1.5;" x1="2298.5" x2="2419.5" y1="687.2422" y2="687.2422"/><!--MD5=[01f9a401cf506495089c678bd476f389]
class Avion--><rect codeLine="14" fill="#FEFECE" filter="url(#f1mq9f3xacpo4b)" height="48" id="Avion" style="stroke:#A80036;stroke-width:1.5;" width="63" x="1884.5" y="481.2422"/><ellipse cx="1899.5" cy="497.2422" fill="#ADD1B2" rx="11" ry="11" style="stroke:#A80036;stroke-width:1.0;"/><path d="M1901.9731,503.3853 Q1901.3921,503.6841 1900.7529,503.8335 Q1900.1138,503.9829 1899.4082,503.9829 Q1896.9014,503.9829 1895.5815,502.3311 Q1894.2617,500.6792 1894.2617,497.5581 Q1894.2617,494.4287 1895.5815,492.7769 Q1896.9014,491.125 1899.4082,491.125 Q1900.1138,491.125 1900.7612,491.2744 Q1901.4087,491.4238 1901.9731,491.7227 L1901.9731,494.4453 Q1901.3423,493.8643 1900.7488,493.5945 Q1900.1553,493.3247 1899.5244,493.3247 Q1898.1797,493.3247 1897.4949,494.3914 Q1896.8101,495.458 1896.8101,497.5581 Q1896.8101,499.6499 1897.4949,500.7166 Q1898.1797,501.7832 1899.5244,501.7832 Q1900.1553,501.7832 1900.7488,501.5134 Q1901.3423,501.2437 1901.9731,500.6626 Z " fill="#000000"/><text fill="#000000" font-family="sans-serif" font-size="12" lengthAdjust="spacing" textLength="31" x="1913.5" y="501.7773">Avion</text><line style="stroke:#A80036;stroke-width:1.5;" x1="1885.5" x2="1946.5" y1="513.2422" y2="513.2422"/><line style="stroke:#A80036;stroke-width:1.5;" x1="1885.5" x2="1946.5" y1="521.2422" y2="521.2422"/><!--MD5=[e3f869ba33f5fccc9753f06a2a272d60]
class Douanier--><rect codeLine="18" fill="#FEFECE" filter="url(#f1mq9f3xacpo4b)" height="54.2656" id="Douanier" style="stroke:#A80036;stroke-width:1.5;" width="93" x="285" y="407.2422"/><ellipse cx="300" cy="426.375" fill="#ADD1B2" rx="11" ry="11" style="stroke:#A80036;stroke-width:1.0;"/><path d="M302.4731,432.5181 Q301.8921,432.8169 301.2529,432.9663 Q300.6138,433.1157 299.9082,433.1157 Q297.4014,433.1157 296.0815,431.4639 Q294.7617,429.812 294.7617,426.6909 Q294.7617,423.5615 296.0815,421.9097 Q297.4014,420.2578 299.9082,420.2578 Q300.6138,420.2578 301.2612,420.4072 Q301.9087,420.5566 302.4731,420.8555 L302.4731,423.5781 Q301.8423,422.9971 301.2488,422.7273 Q300.6553,422.4575 300.0244,422.4575 Q298.6797,422.4575 297.9949,423.5242 Q297.3101,424.5908 297.3101,426.6909 Q297.3101,428.7827 297.9949,429.8494 Q298.6797,430.916 300.0244,430.916 Q300.6553,430.916 301.2488,430.6462 Q301.8423,430.3765 302.4731,429.7954 Z " fill="#000000"/><text fill="#000000" font-family="sans-serif" font-size="12" font-style="italic" lengthAdjust="spacing" textLength="65" x="312" y="423.8438">«Personne»</text><text fill="#000000" font-family="sans-serif" font-size="12" lengthAdjust="spacing" textLength="52" x="318.5" y="437.9766">Douanier</text><line style="stroke:#A80036;stroke-width:1.5;" x1="286" x2="377" y1="445.5078" y2="445.5078"/><line style="stroke:#A80036;stroke-width:1.5;" x1="286" x2="377" y1="453.5078" y2="453.5078"/><!--MD5=[473acc9b9b1bee8e8e5b889a86036800]
class PersonnelAeroport--><rect codeLine="19" fill="#FEFECE" filter="url(#f1mq9f3xacpo4b)" height="54.2656" id="PersonnelAeroport" style="stroke:#A80036;stroke-width:1.5;" width="139" x="262" y="496.2422"/><ellipse cx="277" cy="515.375" fill="#ADD1B2" rx="11" ry="11" style="stroke:#A80036;stroke-width:1.0;"/><path d="M279.4731,521.5181 Q278.8921,521.8169 278.2529,521.9663 Q277.6138,522.1157 276.9082,522.1157 Q274.4014,522.1157 273.0815,520.4639 Q271.7617,518.812 271.7617,515.6909 Q271.7617,512.5615 273.0815,510.9097 Q274.4014,509.2578 276.9082,509.2578 Q277.6138,509.2578 278.2612,509.4072 Q278.9087,509.5566 279.4731,509.8555 L279.4731,512.5781 Q278.8423,511.9971 278.2488,511.7273 Q277.6553,511.4575 277.0244,511.4575 Q275.6797,511.4575 274.9949,512.5242 Q274.3101,513.5908 274.3101,515.6909 Q274.3101,517.7827 274.9949,518.8494 Q275.6797,519.916 277.0244,519.916 Q277.6553,519.916 278.2488,519.6462 Q278.8423,519.3765 279.4731,518.7954 Z " fill="#000000"/><text fill="#000000" font-family="sans-serif" font-size="12" font-style="italic" lengthAdjust="spacing" textLength="65" x="312" y="512.8438">«Personne»</text><text fill="#000000" font-family="sans-serif" font-size="12" lengthAdjust="spacing" textLength="107" x="291" y="526.9766">PersonnelAeroport</text><line style="stroke:#A80036;stroke-width:1.5;" x1="263" x2="400" y1="534.5078" y2="534.5078"/><line style="stroke:#A80036;stroke-width:1.5;" x1="263" x2="400" y1="542.5078" y2="542.5078"/><!--MD5=[ff1aec9047438da9d3e23b981a7faa18]
class Passager--><rect codeLine="42" fill="#FEFECE" filter="url(#f1mq9f3xacpo4b)" height="54.2656" id="Passager" style="stroke:#A80036;stroke-width:1.5;" width="93" x="285" y="318.2422"/><ellipse cx="300" cy="337.375" fill="#ADD1B2" rx="11" ry="11" style="stroke:#A80036;stroke-width:1.0;"/><path d="M302.4731,343.5181 Q301.8921,343.8169 301.2529,343.9663 Q300.6138,344.1157 299.9082,344.1157 Q297.4014,344.1157 296.0815,342.4639 Q294.7617,340.812 294.7617,337.6909 Q294.7617,334.5615 296.0815,332.9097 Q297.4014,331.2578 299.9082,331.2578 Q300.6138,331.2578 301.2612,331.4072 Q301.9087,331.5566 302.4731,331.8555 L302.4731,334.5781 Q301.8423,333.9971 301.2488,333.7273 Q300.6553,333.4575 300.0244,333.4575 Q298.6797,333.4575 297.9949,334.5242 Q297.3101,335.5908 297.3101,337.6909 Q297.3101,339.7827 297.9949,340.8494 Q298.6797,341.916 300.0244,341.916 Q300.6553,341.916 301.2488,341.6462 Q301.8423,341.3765 302.4731,340.7954 Z " fill="#000000"/><text fill="#000000" font-family="sans-serif" font-size="12" font-style="italic" lengthAdjust="spacing" textLength="65" x="312" y="334.8438">«Personne»</text><text fill="#000000" font-family="sans-serif" font-size="12" lengthAdjust="spacing" textLength="52" x="318.5" y="348.9766">Passager</text><line style="stroke:#A80036;stroke-width:1.5;" x1="286" x2="377" y1="356.5078" y2="356.5078"/><line style="stroke:#A80036;stroke-width:1.5;" x1="286" x2="377" y1="364.5078" y2="364.5078"/><!--MD5=[18f93cb07ada97c92ce9af72a0a2e08a]
class PersonnelLigneAerienne--><rect codeLine="21" fill="#FEFECE" filter="url(#f1mq9f3xacpo4b)" height="54.2656" id="PersonnelLigneAerienne" style="stroke:#A80036;stroke-width:1.5;" width="169" x="247" y="229.2422"/><ellipse cx="262" cy="248.375" fill="#ADD1B2" rx="11" ry="11" style="stroke:#A80036;stroke-width:1.0;"/><path d="M264.4731,254.5181 Q263.8921,254.8169 263.2529,254.9663 Q262.6138,255.1157 261.9082,255.1157 Q259.4014,255.1157 258.0815,253.4639 Q256.7617,251.812 256.7617,248.6909 Q256.7617,245.5615 258.0815,243.9097 Q259.4014,242.2578 261.9082,242.2578 Q262.6138,242.2578 263.2612,242.4072 Q263.9087,242.5566 264.4731,242.8555 L264.4731,245.5781 Q263.8423,244.9971 263.2488,244.7273 Q262.6553,244.4575 262.0244,244.4575 Q260.6797,244.4575 259.9949,245.5242 Q259.3101,246.5908 259.3101,248.6909 Q259.3101,250.7827 259.9949,251.8494 Q260.6797,252.916 262.0244,252.916 Q262.6553,252.916 263.2488,252.6462 Q263.8423,252.3765 264.4731,251.7954 Z " fill="#000000"/><text fill="#000000" font-family="sans-serif" font-size="12" font-style="italic" lengthAdjust="spacing" textLength="65" x="312" y="245.8438">«Personne»</text><text fill="#000000" font-family="sans-serif" font-size="12" lengthAdjust="spacing" textLength="137" x="276" y="259.9766">PersonnelLigneAerienne</text><line style="stroke:#A80036;stroke-width:1.5;" x1="248" x2="415" y1="267.5078" y2="267.5078"/><line style="stroke:#A80036;stroke-width:1.5;" x1="248" x2="415" y1="275.5078" y2="275.5078"/><!--MD5=[9ee1b92a2eb0c7fcd64c37fc92ef38a9]
class Bagage--><rect codeLine="25" fill="#FEFECE" filter="url(#f1mq9f3xacpo4b)" height="99.8203" id="Bagage" style="stroke:#A80036;stroke-width:1.5;" width="102" x="856" y="299.2422"/><ellipse cx="883.6" cy="315.2422" fill="#ADD1B2" rx="11" ry="11" style="stroke:#A80036;stroke-width:1.0;"/><path d="M886.0731,321.3853 Q885.4921,321.6841 884.8529,321.8335 Q884.2138,321.9829 883.5082,321.9829 Q881.0014,321.9829 879.6815,320.3311 Q878.3617,318.6792 878.3617,315.5581 Q878.3617,312.4287 879.6815,310.7769 Q881.0014,309.125 883.5082,309.125 Q884.2138,309.125 884.8612,309.2744 Q885.5087,309.4238 886.0731,309.7227 L886.0731,312.4453 Q885.4423,311.8643 884.8488,311.5945 Q884.2553,311.3247 883.6244,311.3247 Q882.2797,311.3247 881.5949,312.3914 Q880.9101,313.458 880.9101,315.5581 Q880.9101,317.6499 881.5949,318.7166 Q882.2797,319.7832 883.6244,319.7832 Q884.2553,319.7832 884.8488,319.5134 Q885.4423,319.2437 886.0731,318.6626 Z " fill="#000000"/><text fill="#000000" font-family="sans-serif" font-size="12" lengthAdjust="spacing" textLength="42" x="900.4" y="319.7773">Bagage</text><line style="stroke:#A80036;stroke-width:1.5;" x1="857" x2="957" y1="331.2422" y2="331.2422"/><text fill="#000000" font-family="sans-serif" font-size="11" lengthAdjust="spacing" textLength="81" x="862" y="345.877">codeBar: string</text><text fill="#000000" font-family="sans-serif" font-size="11" lengthAdjust="spacing" textLength="60" x="862" y="358.832">poids: float</text><line style="stroke:#A80036;stroke-width:1.5;" x1="857" x2="957" y1="365.1523" y2="365.1523"/><text fill="#000000" font-family="sans-serif" font-size="11" lengthAdjust="spacing" textLength="68" x="862" y="379.7871">scan():string</text><text fill="#000000" font-family="sans-serif" font-size="11" lengthAdjust="spacing" textLength="90" x="862" y="392.7422">enregistrement()</text><!--MD5=[5ffaa49e8ab4c62eab132fe3f50416bd]
class EtatPosition--><rect codeLine="32" fill="#FEFECE" filter="url(#f1mq9f3xacpo4b)" height="48" id="EtatPosition" style="stroke:#A80036;stroke-width:1.5;" width="98" x="858" y="199.2422"/><ellipse cx="873" cy="215.2422" fill="#ADD1B2" rx="11" ry="11" style="stroke:#A80036;stroke-width:1.0;"/><path d="M875.4731,221.3853 Q874.8921,221.6841 874.2529,221.8335 Q873.6138,221.9829 872.9082,221.9829 Q870.4014,221.9829 869.0815,220.3311 Q867.7617,218.6792 867.7617,215.5581 Q867.7617,212.4287 869.0815,210.7769 Q870.4014,209.125 872.9082,209.125 Q873.6138,209.125 874.2612,209.2744 Q874.9087,209.4238 875.4731,209.7227 L875.4731,212.4453 Q874.8423,211.8643 874.2488,211.5945 Q873.6553,211.3247 873.0244,211.3247 Q871.6797,211.3247 870.9949,212.3914 Q870.3101,213.458 870.3101,215.5581 Q870.3101,217.6499 870.9949,218.7166 Q871.6797,219.7832 873.0244,219.7832 Q873.6553,219.7832 874.2488,219.5134 Q874.8423,219.2437 875.4731,218.6626 Z " fill="#000000"/><text fill="#000000" font-family="sans-serif" font-size="12" lengthAdjust="spacing" textLength="66" x="887" y="219.7773">EtatPosition</text><line style="stroke:#A80036;stroke-width:1.5;" x1="859" x2="955" y1="231.2422" y2="231.2422"/><line style="stroke:#A80036;stroke-width:1.5;" x1="859" x2="955" y1="239.2422" y2="239.2422"/><!--MD5=[be3fa9b439c56b7e7c1fb4c226b60f9b]
class DansAvion--><rect codeLine="33" fill="#FEFECE" filter="url(#f1mq9f3xacpo4b)" height="48" id="DansAvion" style="stroke:#A80036;stroke-width:1.5;" width="92" x="1187" y="275.2422"/><ellipse cx="1202" cy="291.2422" fill="#ADD1B2" rx="11" ry="11" style="stroke:#A80036;stroke-width:1.0;"/><path d="M1204.4731,297.3853 Q1203.8921,297.6841 1203.2529,297.8335 Q1202.6138,297.9829 1201.9082,297.9829 Q1199.4014,297.9829 1198.0815,296.3311 Q1196.7617,294.6792 1196.7617,291.5581 Q1196.7617,288.4287 1198.0815,286.7769 Q1199.4014,285.125 1201.9082,285.125 Q1202.6138,285.125 1203.2612,285.2744 Q1203.9087,285.4238 1204.4731,285.7227 L1204.4731,288.4453 Q1203.8423,287.8643 1203.2488,287.5945 Q1202.6553,287.3247 1202.0244,287.3247 Q1200.6797,287.3247 1199.9949,288.3914 Q1199.3101,289.458 1199.3101,291.5581 Q1199.3101,293.6499 1199.9949,294.7166 Q1200.6797,295.7832 1202.0244,295.7832 Q1202.6553,295.7832 1203.2488,295.5134 Q1203.8423,295.2437 1204.4731,294.6626 Z " fill="#000000"/><text fill="#000000" font-family="sans-serif" font-size="12" lengthAdjust="spacing" textLength="60" x="1216" y="295.7773">DansAvion</text><line style="stroke:#A80036;stroke-width:1.5;" x1="1188" x2="1278" y1="307.2422" y2="307.2422"/><line style="stroke:#A80036;stroke-width:1.5;" x1="1188" x2="1278" y1="315.2422" y2="315.2422"/><!--MD5=[801d12ec30c203badd5d27ba7409b4ac]
class SurChariotTeleguide--><rect codeLine="34" fill="#FEFECE" filter="url(#f1mq9f3xacpo4b)" height="48" id="SurChariotTeleguide" style="stroke:#A80036;stroke-width:1.5;" width="148" x="1159" y="358.2422"/><ellipse cx="1174" cy="374.2422" fill="#ADD1B2" rx="11" ry="11" style="stroke:#A80036;stroke-width:1.0;"/><path d="M1176.4731,380.3853 Q1175.8921,380.6841 1175.2529,380.8335 Q1174.6138,380.9829 1173.9082,380.9829 Q1171.4014,380.9829 1170.0815,379.3311 Q1168.7617,377.6792 1168.7617,374.5581 Q1168.7617,371.4287 1170.0815,369.7769 Q1171.4014,368.125 1173.9082,368.125 Q1174.6138,368.125 1175.2612,368.2744 Q1175.9087,368.4238 1176.4731,368.7227 L1176.4731,371.4453 Q1175.8423,370.8643 1175.2488,370.5945 Q1174.6553,370.3247 1174.0244,370.3247 Q1172.6797,370.3247 1171.9949,371.3914 Q1171.3101,372.458 1171.3101,374.5581 Q1171.3101,376.6499 1171.9949,377.7166 Q1172.6797,378.7832 1174.0244,378.7832 Q1174.6553,378.7832 1175.2488,378.5134 Q1175.8423,378.2437 1176.4731,377.6626 Z " fill="#000000"/><text fill="#000000" font-family="sans-serif" font-size="12" lengthAdjust="spacing" textLength="116" x="1188" y="378.7773">SurChariotTeleguide</text><line style="stroke:#A80036;stroke-width:1.5;" x1="1160" x2="1306" y1="390.2422" y2="390.2422"/><line style="stroke:#A80036;stroke-width:1.5;" x1="1160" x2="1306" y1="398.2422" y2="398.2422"/><!--MD5=[4597d935dff07278f17dc763a1009659]
class SurConvoyeur--><rect codeLine="35" fill="#FEFECE" filter="url(#f1mq9f3xacpo4b)" height="48" id="SurConvoyeur" style="stroke:#A80036;stroke-width:1.5;" width="110" x="1178" y="109.2422"/><ellipse cx="1193" cy="125.2422" fill="#ADD1B2" rx="11" ry="11" style="stroke:#A80036;stroke-width:1.0;"/><path d="M1195.4731,131.3853 Q1194.8921,131.6841 1194.2529,131.8335 Q1193.6138,131.9829 1192.9082,131.9829 Q1190.4014,131.9829 1189.0815,130.3311 Q1187.7617,128.6792 1187.7617,125.5581 Q1187.7617,122.4287 1189.0815,120.7769 Q1190.4014,119.125 1192.9082,119.125 Q1193.6138,119.125 1194.2612,119.2744 Q1194.9087,119.4238 1195.4731,119.7227 L1195.4731,122.4453 Q1194.8423,121.8643 1194.2488,121.5945 Q1193.6553,121.3247 1193.0244,121.3247 Q1191.6797,121.3247 1190.9949,122.3914 Q1190.3101,123.458 1190.3101,125.5581 Q1190.3101,127.6499 1190.9949,128.7166 Q1191.6797,129.7832 1193.0244,129.7832 Q1193.6553,129.7832 1194.2488,129.5134 Q1194.8423,129.2437 1195.4731,128.6626 Z " fill="#000000"/><text fill="#000000" font-family="sans-serif" font-size="12" lengthAdjust="spacing" textLength="78" x="1207" y="129.7773">SurConvoyeur</text><line style="stroke:#A80036;stroke-width:1.5;" x1="1179" x2="1287" y1="141.2422" y2="141.2422"/><line style="stroke:#A80036;stroke-width:1.5;" x1="1179" x2="1287" y1="149.2422" y2="149.2422"/><!--MD5=[930687ef67928b2345da3cd51b1c01ef]
class SurCaroussel--><rect codeLine="36" fill="#FEFECE" filter="url(#f1mq9f3xacpo4b)" height="48" id="SurCaroussel" style="stroke:#A80036;stroke-width:1.5;" width="106" x="1180" y="192.2422"/><ellipse cx="1195" cy="208.2422" fill="#ADD1B2" rx="11" ry="11" style="stroke:#A80036;stroke-width:1.0;"/><path d="M1197.4731,214.3853 Q1196.8921,214.6841 1196.2529,214.8335 Q1195.6138,214.9829 1194.9082,214.9829 Q1192.4014,214.9829 1191.0815,213.3311 Q1189.7617,211.6792 1189.7617,208.5581 Q1189.7617,205.4287 1191.0815,203.7769 Q1192.4014,202.125 1194.9082,202.125 Q1195.6138,202.125 1196.2612,202.2744 Q1196.9087,202.4238 1197.4731,202.7227 L1197.4731,205.4453 Q1196.8423,204.8643 1196.2488,204.5945 Q1195.6553,204.3247 1195.0244,204.3247 Q1193.6797,204.3247 1192.9949,205.3914 Q1192.3101,206.458 1192.3101,208.5581 Q1192.3101,210.6499 1192.9949,211.7166 Q1193.6797,212.7832 1195.0244,212.7832 Q1195.6553,212.7832 1196.2488,212.5134 Q1196.8423,212.2437 1197.4731,211.6626 Z " fill="#000000"/><text fill="#000000" font-family="sans-serif" font-size="12" lengthAdjust="spacing" textLength="74" x="1209" y="212.7773">SurCaroussel</text><line style="stroke:#A80036;stroke-width:1.5;" x1="1181" x2="1285" y1="224.2422" y2="224.2422"/><line style="stroke:#A80036;stroke-width:1.5;" x1="1181" x2="1285" y1="232.2422" y2="232.2422"/><!--MD5=[9a14f0eee0e547c1e51296a7c84c7aff]
class LigneAerienne--><rect codeLine="43" fill="#FEFECE" filter="url(#f1mq9f3xacpo4b)" height="48" id="LigneAerienne" style="stroke:#A80036;stroke-width:1.5;" width="113" x="7" y="431.2422"/><ellipse cx="22" cy="447.2422" fill="#ADD1B2" rx="11" ry="11" style="stroke:#A80036;stroke-width:1.0;"/><path d="M24.4731,453.3853 Q23.8921,453.6841 23.2529,453.8335 Q22.6138,453.9829 21.9082,453.9829 Q19.4014,453.9829 18.0815,452.3311 Q16.7617,450.6792 16.7617,447.5581 Q16.7617,444.4287 18.0815,442.7769 Q19.4014,441.125 21.9082,441.125 Q22.6138,441.125 23.2612,441.2744 Q23.9087,441.4238 24.4731,441.7227 L24.4731,444.4453 Q23.8423,443.8643 23.2488,443.5945 Q22.6553,443.3247 22.0244,443.3247 Q20.6797,443.3247 19.9949,444.3914 Q19.3101,445.458 19.3101,447.5581 Q19.3101,449.6499 19.9949,450.7166 Q20.6797,451.7832 22.0244,451.7832 Q22.6553,451.7832 23.2488,451.5134 Q23.8423,451.2437 24.4731,450.6626 Z " fill="#000000"/><text fill="#000000" font-family="sans-serif" font-size="12" lengthAdjust="spacing" textLength="81" x="36" y="451.7773">LigneAerienne</text><line style="stroke:#A80036;stroke-width:1.5;" x1="8" x2="119" y1="463.2422" y2="463.2422"/><line style="stroke:#A80036;stroke-width:1.5;" x1="8" x2="119" y1="471.2422" y2="471.2422"/><!--MD5=[190a353239f3a09bab79442e1d448f58]
class Deplacement--><rect codeLine="44" fill="#FEFECE" filter="url(#f1mq9f3xacpo4b)" height="48" id="Deplacement" style="stroke:#A80036;stroke-width:1.5;" width="108" x="545" y="139.2422"/><ellipse cx="560" cy="155.2422" fill="#ADD1B2" rx="11" ry="11" style="stroke:#A80036;stroke-width:1.0;"/><path d="M562.4731,161.3853 Q561.8921,161.6841 561.2529,161.8335 Q560.6138,161.9829 559.9082,161.9829 Q557.4014,161.9829 556.0815,160.3311 Q554.7617,158.6792 554.7617,155.5581 Q554.7617,152.4287 556.0815,150.7769 Q557.4014,149.125 559.9082,149.125 Q560.6138,149.125 561.2612,149.2744 Q561.9087,149.4238 562.4731,149.7227 L562.4731,152.4453 Q561.8423,151.8643 561.2488,151.5945 Q560.6553,151.3247 560.0244,151.3247 Q558.6797,151.3247 557.9949,152.3914 Q557.3101,153.458 557.3101,155.5581 Q557.3101,157.6499 557.9949,158.7166 Q558.6797,159.7832 560.0244,159.7832 Q560.6553,159.7832 561.2488,159.5134 Q561.8423,159.2437 562.4731,158.6626 Z " fill="#000000"/><text fill="#000000" font-family="sans-serif" font-size="12" lengthAdjust="spacing" textLength="76" x="574" y="159.7773">Deplacement</text><line style="stroke:#A80036;stroke-width:1.5;" x1="546" x2="652" y1="171.2422" y2="171.2422"/><line style="stroke:#A80036;stroke-width:1.5;" x1="546" x2="652" y1="179.2422" y2="179.2422"/><!--MD5=[1f1a18b8128c46004167f2eb357dc2be]
class Inspection--><rect codeLine="45" fill="#FEFECE" filter="url(#f1mq9f3xacpo4b)" height="48" id="Inspection" style="stroke:#A80036;stroke-width:1.5;" width="90" x="554" y="410.2422"/><ellipse cx="569" cy="426.2422" fill="#ADD1B2" rx="11" ry="11" style="stroke:#A80036;stroke-width:1.0;"/><path d="M571.4731,432.3853 Q570.8921,432.6841 570.2529,432.8335 Q569.6138,432.9829 568.9082,432.9829 Q566.4014,432.9829 565.0815,431.3311 Q563.7617,429.6792 563.7617,426.5581 Q563.7617,423.4287 565.0815,421.7769 Q566.4014,420.125 568.9082,420.125 Q569.6138,420.125 570.2612,420.2744 Q570.9087,420.4238 571.4731,420.7227 L571.4731,423.4453 Q570.8423,422.8643 570.2488,422.5945 Q569.6553,422.3247 569.0244,422.3247 Q567.6797,422.3247 566.9949,423.3914 Q566.3101,424.458 566.3101,426.5581 Q566.3101,428.6499 566.9949,429.7166 Q567.6797,430.7832 569.0244,430.7832 Q569.6553,430.7832 570.2488,430.5134 Q570.8423,430.2437 571.4731,429.6626 Z " fill="#000000"/><text fill="#000000" font-family="sans-serif" font-size="12" lengthAdjust="spacing" textLength="58" x="583" y="430.7773">Inspection</text><line style="stroke:#A80036;stroke-width:1.5;" x1="555" x2="643" y1="442.2422" y2="442.2422"/><line style="stroke:#A80036;stroke-width:1.5;" x1="555" x2="643" y1="450.2422" y2="450.2422"/><!--MD5=[2becc8e2697b4f547613f3ca37748e0f]
link Deplacement to Passager--><path codeLine="47" d="M575.77,187.3322 C546.96,217.3322 493.99,268.5022 440,300.2422 C420.64,311.6222 397.86,321.5922 378.26,329.2422 " fill="none" id="Deplacement-Passager" style="stroke:#A80036;stroke-width:1.0;"/><polygon fill="#000000" points="448.9394,240.815,457.9999,237.9239,454.5702,233.1504,448.9394,240.815" style="stroke:#000000;stroke-width:1.0;"/><text fill="#000000" font-family="sans-serif" font-size="13" lengthAdjust="spacing" textLength="52" x="462" y="242.8105">est pour</text><text fill="#000000" font-family="sans-serif" font-size="13" lengthAdjust="spacing" textLength="6" x="385.8795" y="340.5124">*</text><!--MD5=[b68bceab735ec53d476d54a164d7d094]
link Deplacement to Avion--><path codeLine="48" d="M629.63,139.1722 C682.02,99.1522 795.88,23.2422 906,23.2422 C906,23.2422 906,23.2422 1373.5,23.2422 C1430.18,23.2422 1771.87,245.3022 1810,287.2422 C1863.69,346.3022 1895.52,437.7722 1908.37,481.0222 " fill="none" id="Deplacement-Avion" style="stroke:#A80036;stroke-width:1.0;"/><polygon fill="#000000" points="1197.3304,16.1888,1189.3512,11.0135,1187.8331,16.692,1197.3304,16.1888" style="stroke:#000000;stroke-width:1.0;"/><text fill="#000000" font-family="sans-serif" font-size="13" lengthAdjust="spacing" textLength="76" x="1201.5" y="19.8105">est fait avec</text><text fill="#000000" font-family="sans-serif" font-size="13" lengthAdjust="spacing" textLength="8" x="1897.3898" y="470.5021">1</text><!--MD5=[b7439f89e6e0bc0865aaca473f7a8a39]
link LigneAerienne to Terminal--><path codeLine="50" d="M73.41,479.5422 C100.43,548.4622 188.37,740.2422 330.5,740.2422 C330.5,740.2422 330.5,740.2422 1502,740.2422 C1643.43,740.2422 1684.19,724.8522 1810,660.2422 C1825.44,652.3122 1825.95,645.4322 1840,635.2422 C1850.82,627.3922 1862.95,619.4522 1874.25,612.3922 " fill="none" id="LigneAerienne-Terminal" style="stroke:#A80036;stroke-width:1.0;"/><text fill="#000000" font-family="sans-serif" font-size="13" lengthAdjust="spacing" textLength="52" x="881" y="736.8105">utilisent</text><text fill="#000000" font-family="sans-serif" font-size="13" lengthAdjust="spacing" textLength="24" x="1842.3555" y="629.6319">1..5</text><!--MD5=[e65ef745c4c8ced969432977561e42dd]
link Terminal to Convoyeur--><path codeLine="51" d="M1957.7,588.2422 C2040.22,588.2422 2226.69,588.2422 2312.83,588.2422 " fill="none" id="Terminal-Convoyeur" style="stroke:#A80036;stroke-width:1.0;"/><text fill="#000000" font-family="sans-serif" font-size="13" lengthAdjust="spacing" textLength="52" x="2115.5" y="584.8105">contient</text><text fill="#000000" font-family="sans-serif" font-size="13" lengthAdjust="spacing" textLength="6" x="2298.9935" y="584.64">*</text><!--MD5=[e68611fb026f483a078ac9dd0f976e26]
link Terminal to Caroussel--><path codeLine="52" d="M1957.76,577.9122 C1977.15,573.1522 2000.71,567.6122 2022,563.2422 C2126.67,541.7722 2250.78,521.7422 2314.88,511.8022 " fill="none" id="Terminal-Caroussel" style="stroke:#A80036;stroke-width:1.0;"/><text fill="#000000" font-family="sans-serif" font-size="13" lengthAdjust="spacing" textLength="52" x="2115.5" y="518.8105">contient</text><text fill="#000000" font-family="sans-serif" font-size="13" lengthAdjust="spacing" textLength="6" x="2301.0758" y="526.725">*</text><!--MD5=[47491f9036841160c1a54f4c6032d8d2]
link Passager to Bagage--><path codeLine="54" d="M378.46,345.5622 C484.52,346.3022 745.65,348.1222 855.75,348.8922 " fill="none" id="Passager-Bagage" style="stroke:#A80036;stroke-width:1.0;"/><text fill="#000000" font-family="sans-serif" font-size="13" lengthAdjust="spacing" textLength="52" x="573" y="343.8105">possède</text><text fill="#000000" font-family="sans-serif" font-size="13" lengthAdjust="spacing" textLength="6" x="842.1211" y="362.5005">*</text><!--MD5=[7bd663b98b44ae7a67cfba6ce15b418b]
reverse link ControleurChariot to ChariotTeleguide--><path codeLine="55" d="M1313.01,505.2422 C1352.22,505.2422 1398.97,505.2422 1435.92,505.2422 " fill="none" id="ControleurChariot-backto-ChariotTeleguide" style="stroke:#A80036;stroke-width:1.0;"/><polygon fill="#FFFFFF" points="1299.75,505.2422,1305.75,509.2422,1311.75,505.2422,1305.75,501.2422,1299.75,505.2422" style="stroke:#A80036;stroke-width:1.0;"/><polygon fill="#000000" points="1349,496.8975,1339.9549,493.9585,1339.9549,499.8364,1349,496.8975" style="stroke:#000000;stroke-width:1.0;"/><text fill="#000000" font-family="sans-serif" font-size="13" lengthAdjust="spacing" textLength="52" x="1353" y="501.8105">controle</text><!--MD5=[551e130f3ce17fbb97171601668a6774]
reverse link ControleurConvoyeur to Convoyeur--><path codeLine="56" d="M2005.21,662.5422 C2074.9,650.5122 2174.5,632.4122 2261,613.2422 C2277.98,609.4822 2296.49,604.8422 2312.75,600.5822 " fill="none" id="ControleurConvoyeur-backto-Convoyeur" style="stroke:#A80036;stroke-width:1.0;"/><polygon fill="#FFFFFF" points="1992.12,664.7922,1998.7103,667.7193,2003.947,662.7617,1997.3567,659.8346,1992.12,664.7922" style="stroke:#A80036;stroke-width:1.0;"/><polygon fill="#000000" points="2117.9015,603.91,2108.4542,602.8153,2109.615,608.5774,2117.9015,603.91" style="stroke:#000000;stroke-width:1.0;"/><text fill="#000000" font-family="sans-serif" font-size="13" lengthAdjust="spacing" textLength="52" x="2122" y="609.8105">controle</text><text fill="#000000" font-family="sans-serif" font-size="13" lengthAdjust="spacing" textLength="6" x="2298.9008" y="616.3373">*</text><!--MD5=[ec32235f38c80573f9fcef1255074905]
reverse link ControleurConvoyeur to CapteursPresence--><path codeLine="57" d="M1995.13,705.1622 C2004.12,707.8122 2013.21,710.2522 2022,712.2422 C2113.87,733.0822 2222.39,744.2922 2290.71,749.7522 " fill="none" id="ControleurConvoyeur-backto-CapteursPresence" style="stroke:#A80036;stroke-width:1.0;"/><polygon fill="#FFFFFF" points="1982.53,701.2922,1987.0924,706.8765,1994.0019,704.8129,1989.4395,699.2286,1982.53,701.2922" style="stroke:#A80036;stroke-width:1.0;"/><polygon fill="#000000" points="2039.9441,704.6433,2031.4386,700.388,2030.5618,706.2001,2039.9441,704.6433" style="stroke:#000000;stroke-width:1.0;"/><text fill="#000000" font-family="sans-serif" font-size="13" lengthAdjust="spacing" textLength="208" x="2044" y="708.8105">vérifie l'état des convoyeurs avec</text><text fill="#000000" font-family="sans-serif" font-size="13" lengthAdjust="spacing" textLength="6" x="2276.9127" y="762.6667">*</text><!--MD5=[dbef79ea97edb19dce0d4f74a2878304]
reverse link ControleurConvoyeur to LecteurCodeBar--><path codeLine="58" d="M2005.3,682.6122 C2074.83,685.9122 2174.19,688.5922 2261,683.2422 C2272.77,682.5122 2285.3,681.3022 2297.31,679.9122 " fill="none" id="ControleurConvoyeur-backto-LecteurCodeBar" style="stroke:#A80036;stroke-width:1.0;"/><polygon fill="#FFFFFF" points="1992.23,681.9622,1998.0249,686.254,2004.2153,682.5555,1998.4204,678.2637,1992.23,681.9622" style="stroke:#A80036;stroke-width:1.0;"/><polygon fill="#000000" points="2031.9998,674.8512,2022.9279,671.9961,2022.9823,677.8737,2031.9998,674.8512" style="stroke:#000000;stroke-width:1.0;"/><text fill="#000000" font-family="sans-serif" font-size="13" lengthAdjust="spacing" textLength="224" x="2036" y="679.8105">vérifie la position des bagages avec</text><text fill="#000000" font-family="sans-serif" font-size="13" lengthAdjust="spacing" textLength="6" x="2283.4259" y="694.4702">*</text><!--MD5=[8a40e86fb13ee9caa460fae934ea866b]
reverse link EtatPosition to DansAvion--><path codeLine="61" d="M976.04,239.2022 C1039.47,254.0822 1132.28,275.8522 1186.98,288.6822 " fill="none" id="EtatPosition-backto-DansAvion" style="stroke:#A80036;stroke-width:1.0;"/><polygon fill="none" points="974.03,245.9222,956.16,234.5422,977.23,232.2922,974.03,245.9222" style="stroke:#A80036;stroke-width:1.0;"/><!--MD5=[4f4362f1de9619883e8c819abf4e942a]
reverse link EtatPosition to SurChariotTeleguide--><path codeLine="62" d="M952.43,259.7322 C963.66,268.0522 975.96,276.4322 988,283.2422 C1042.82,314.2322 1109.29,340.5322 1159,358.2222 " fill="none" id="EtatPosition-backto-SurChariotTeleguide" style="stroke:#A80036;stroke-width:1.0;"/><polygon fill="none" points="947.96,265.1222,936.39,247.3722,956.5,254.0322,947.96,265.1222" style="stroke:#A80036;stroke-width:1.0;"/><!--MD5=[e0023ef0a375e027f496af216ab6d93d]
reverse link EtatPosition to SurConvoyeur--><path codeLine="63" d="M975.81,204.4022 C1035.87,187.7222 1122.38,163.6922 1177.9,148.2722 " fill="none" id="EtatPosition-backto-SurConvoyeur" style="stroke:#A80036;stroke-width:1.0;"/><polygon fill="none" points="977.3,211.2522,956.16,209.8622,973.55,197.7722,977.3,211.2522" style="stroke:#A80036;stroke-width:1.0;"/><!--MD5=[114982aba2a784551e5d06807cb9429c]
reverse link EtatPosition to SurCaroussel--><path codeLine="64" d="M976.43,221.7622 C1037.15,220.4522 1124.58,218.5622 1179.82,217.3722 " fill="none" id="EtatPosition-backto-SurCaroussel" style="stroke:#A80036;stroke-width:1.0;"/><polygon fill="none" points="976.3,228.7722,956.16,222.2022,976,214.7722,976.3,228.7722" style="stroke:#A80036;stroke-width:1.0;"/><!--MD5=[f4d7b6f241ba85d83cddde92f62897c0]
link Bagage to EtatPosition--><path codeLine="66" d="M907,299.0822 C907,281.2422 907,261.9622 907,247.3022 " fill="none" id="Bagage-EtatPosition" style="stroke:#A80036;stroke-width:1.0;"/><polygon fill="#000000" points="857.5,268.3975,854.5611,277.4425,860.4389,277.4425,857.5,268.3975" style="stroke:#000000;stroke-width:1.0;"/><text fill="#000000" font-family="sans-serif" font-size="13" lengthAdjust="spacing" textLength="71" x="866.5" y="278.3105">est localisé</text><!--MD5=[307261dea999df431187d4bb2a861352]
link ChariotTeleguide to Terminal--><path codeLine="69" d="M1566.05,523.0122 C1576.04,525.5722 1586.28,528.0722 1596,530.2422 C1692.58,551.8322 1806.95,571.1222 1869.13,581.0922 " fill="none" id="ChariotTeleguide-to-Terminal" style="stroke:#A80036;stroke-width:1.0;"/><polygon fill="#A80036" points="1874.25,581.9022,1865.992,576.5352,1869.3124,581.115,1864.7325,584.4354,1874.25,581.9022" style="stroke:#A80036;stroke-width:1.0;"/><polygon fill="#000000" points="1605.9106,522.8385,1597.5803,518.2497,1596.4741,524.0225,1605.9106,522.8385" style="stroke:#000000;stroke-width:1.0;"/><text fill="#000000" font-family="sans-serif" font-size="13" lengthAdjust="spacing" textLength="199" x="1610" y="526.8105">Apporte ou récupère les bagage</text><!--MD5=[a43bb22fb3ebddc2b20deceefa145406]
link ChariotTeleguide to Avion--><path codeLine="70" d="M1566.08,505.2422 C1654.07,505.2422 1809.34,505.2422 1879.19,505.2422 " fill="none" id="ChariotTeleguide-to-Avion" style="stroke:#A80036;stroke-width:1.0;"/><polygon fill="#A80036" points="1884.47,505.2422,1875.47,501.2422,1879.47,505.2422,1875.47,509.2422,1884.47,505.2422" style="stroke:#A80036;stroke-width:1.0;"/><polygon fill="#000000" points="1606,496.8975,1596.9549,493.9585,1596.9549,499.8364,1606,496.8975" style="stroke:#000000;stroke-width:1.0;"/><text fill="#000000" font-family="sans-serif" font-size="13" lengthAdjust="spacing" textLength="199" x="1610" y="501.8105">Apporte ou récupère les bagage</text><!--MD5=[cd2541f65247058520a7ad992b0022f2]
link DansAvion to Avion--><path codeLine="72" d="M1279.21,312.9222 C1408.14,351.9222 1775.32,462.9922 1884.21,495.9222 " fill="none" id="DansAvion-Avion" style="stroke:#A80036;stroke-width:1.0;"/><polygon fill="#000000" points="1476.7859,355.3451,1468.9791,349.9133,1467.2773,355.5394,1476.7859,355.3451" style="stroke:#000000;stroke-width:1.0;"/><text fill="#000000" font-family="sans-serif" font-size="13" lengthAdjust="spacing" textLength="53" x="1481" y="358.8105">est dans</text><!--MD5=[fc78491743bef0a0cde3a7744ef18936]
link SurChariotTeleguide to ChariotTeleguide--><path codeLine="73" d="M1285.92,406.2522 C1332.64,427.8522 1400.94,459.4322 1447.76,481.0822 " fill="none" id="SurChariotTeleguide-ChariotTeleguide" style="stroke:#A80036;stroke-width:1.0;"/><polygon fill="#000000" points="1353.0384,426.9959,1346.0618,420.5322,1343.595,425.8674,1353.0384,426.9959" style="stroke:#000000;stroke-width:1.0;"/><text fill="#000000" font-family="sans-serif" font-size="13" lengthAdjust="spacing" textLength="43" x="1357.5" y="429.8105">est sur</text><!--MD5=[849ef815e391015dfdfdeff56694b3d7]
link SurConvoyeur to Convoyeur--><path codeLine="74" d="M1288.07,138.1422 C1453.84,155.8222 1961.79,230.2222 2261,497.2422 C2280.05,514.2422 2273.04,528.0922 2291,546.2422 C2297.47,552.7822 2305.14,558.7722 2312.94,564.0622 " fill="none" id="SurConvoyeur-Convoyeur" style="stroke:#A80036;stroke-width:1.0;"/><polygon fill="#000000" points="1633.6172,185.8163,1626.3925,179.6312,1624.1368,185.059,1633.6172,185.8163" style="stroke:#000000;stroke-width:1.0;"/><text fill="#000000" font-family="sans-serif" font-size="13" lengthAdjust="spacing" textLength="143" x="1638" y="188.8105">localise les bagage sur</text><!--MD5=[18a8972fad6fc6421116fa18b8878f7a]
link SurCaroussel to Caroussel--><path codeLine="75" d="M1286.33,229.7022 C1477.88,278.9522 2138.81,448.8822 2314.71,494.1122 " fill="none" id="SurCaroussel-Caroussel" style="stroke:#A80036;stroke-width:1.0;"/><polygon fill="#000000" points="1633.8425,305.1425,1625.8142,300.0438,1624.3505,305.7365,1633.8425,305.1425" style="stroke:#000000;stroke-width:1.0;"/><text fill="#000000" font-family="sans-serif" font-size="13" lengthAdjust="spacing" textLength="143" x="1638" y="308.8105">localise les bagage sur</text><!--MD5=[c92fd57357dc3a951f4caa5781d30d73]
link LigneAerienne to Avion--><path codeLine="77" d="M80.59,479.5222 C117.77,532.3922 215.36,653.2422 330.5,653.2422 C330.5,653.2422 330.5,653.2422 1373.5,653.2422 C1570.27,653.2422 1637.36,673.6522 1810,579.2422 C1827.39,569.7322 1824.42,558.5022 1840,546.2422 C1853.53,535.6022 1870.2,526.1822 1884.38,519.0622 " fill="none" id="LigneAerienne-Avion" style="stroke:#A80036;stroke-width:1.0;"/><polygon fill="#000000" points="883.4988,645.007,874.5203,641.8706,874.3915,647.747,883.4988,645.007" style="stroke:#000000;stroke-width:1.0;"/><text fill="#000000" font-family="sans-serif" font-size="13" lengthAdjust="spacing" textLength="52" x="887.5" y="649.8105">possède</text><text fill="#000000" font-family="sans-serif" font-size="13" lengthAdjust="spacing" textLength="6" x="1870.3741" y="536.5967">*</text><!--MD5=[2097de047eb25ab553470b4b8ac63611]
link LigneAerienne to PersonnelLigneAerienne--><path codeLine="78" d="M83.97,431.0422 C111.79,397.7622 165.91,337.7622 223,300.2422 C232.52,293.9822 243.08,288.3422 253.75,283.3622 " fill="none" id="LigneAerienne-PersonnelLigneAerienne" style="stroke:#A80036;stroke-width:1.0;"/><polygon fill="#000000" points="158.7725,295.616,150.0192,299.3348,153.8768,303.7697,158.7725,295.616" style="stroke:#000000;stroke-width:1.0;"/><text fill="#000000" font-family="sans-serif" font-size="13" lengthAdjust="spacing" textLength="50" x="164" y="303.8105">emploie</text><text fill="#000000" font-family="sans-serif" font-size="13" lengthAdjust="spacing" textLength="6" x="232.8617" y="302.3178">*</text><!--MD5=[42969efdba24214954fc06b70a13f3e5]
link Douanier to Inspection--><path codeLine="80" d="M378.14,434.2422 C427.36,434.2422 505.2,434.2422 553.84,434.2422 " fill="none" id="Douanier-Inspection" style="stroke:#A80036;stroke-width:1.0;"/><polygon fill="#000000" points="458.5,425.8975,449.4549,422.9585,449.4549,428.8364,458.5,425.8975" style="stroke:#000000;stroke-width:1.0;"/><text fill="#000000" font-family="sans-serif" font-size="13" lengthAdjust="spacing" textLength="51" x="462.5" y="430.8105">effectue</text><text fill="#000000" font-family="sans-serif" font-size="13" lengthAdjust="spacing" textLength="6" x="539.8635" y="448.0785">*</text><!--MD5=[e93d4fc3bae6cc33b58840efd46b2df8]
link Inspection to Bagage--><path codeLine="81" d="M644.37,426.4422 C689.99,417.8822 762.82,402.7322 824,383.2422 C834.43,379.9222 845.38,375.8222 855.76,371.6422 " fill="none" id="Inspection-Bagage" style="stroke:#A80036;stroke-width:1.0;"/><polygon fill="#000000" points="729.84,373.6428,720.3469,373.0677,721.8218,378.7574,729.84,373.6428" style="stroke:#000000;stroke-width:1.0;"/><text fill="#000000" font-family="sans-serif" font-size="13" lengthAdjust="spacing" textLength="52" x="734" y="379.8105">est pour</text><text fill="#000000" font-family="sans-serif" font-size="13" lengthAdjust="spacing" textLength="6" x="842.1325" y="388.4497">*</text><!--MD5=[f4b4f1caaddd2956d102444edb96e459]
link PersonnelAeroport to ControleurChariot--><path codeLine="83" d="M401.22,521.8622 C569.6,518.5022 1001.05,509.8622 1166.27,506.5622 " fill="none" id="PersonnelAeroport-ControleurChariot" style="stroke:#A80036;stroke-width:1.0;"/><polygon fill="#000000" points="692.999,505.7975,683.897,503.04,684.0145,508.9167,692.999,505.7975" style="stroke:#000000;stroke-width:1.0;"/><text fill="#000000" font-family="sans-serif" font-size="13" lengthAdjust="spacing" textLength="126" x="697" y="510.8105">localise les bagages</text><!--MD5=[13dff4829aed52ece6bf62749c8ce7cd]
link PersonnelAeroport to ControleurConvoyeur--><path codeLine="84" d="M401.17,547.1522 C454.24,563.5122 529.89,582.2422 598,582.2422 C598,582.2422 598,582.2422 1373.5,582.2422 C1542.2,582.2422 1736.08,627.5322 1839.95,655.5622 " fill="none" id="PersonnelAeroport-ControleurConvoyeur" style="stroke:#A80036;stroke-width:1.0;"/><polygon fill="#000000" points="997.9859,574.2731,989.1872,570.6629,988.7455,576.5242,997.9859,574.2731" style="stroke:#000000;stroke-width:1.0;"/><text fill="#000000" font-family="sans-serif" font-size="13" lengthAdjust="spacing" textLength="126" x="1002" y="578.8105">localise les bagages</text><!--MD5=[78bb43bc8221e356e027c1f5ad4cc2d8]
link LigneAerienne to Deplacement--><path codeLine="86" d="M71.48,431.0022 C87.88,379.2322 134.35,258.8522 223,213.2422 C327.4,159.5322 468.83,156.4522 544.69,159.4822 " fill="none" id="LigneAerienne-Deplacement" style="stroke:#A80036;stroke-width:1.0;"/><polygon fill="#000000" points="318.3368,150.4091,309.0288,152.3615,311.9541,157.4597,318.3368,150.4091" style="stroke:#000000;stroke-width:1.0;"/><text fill="#000000" font-family="sans-serif" font-size="13" lengthAdjust="spacing" textLength="30" x="323" y="157.8105">offre</text><text fill="#000000" font-family="sans-serif" font-size="13" lengthAdjust="spacing" textLength="6" x="530.989" y="172.574">*</text><!--MD5=[1398ebcbb5b3a721356a28d23fd5481c]
link PersonnelLigneAerienne to Deplacement--><path codeLine="87" d="M409.65,229.2222 C452.98,214.0422 505.95,195.4822 544.67,181.9222 " fill="none" id="PersonnelLigneAerienne-Deplacement" style="stroke:#A80036;stroke-width:1.0;"/><polygon fill="#000000" points="459.2188,184.2444,449.7107,184.4612,451.6541,190.0085,459.2188,184.2444" style="stroke:#000000;stroke-width:1.0;"/><text fill="#000000" font-family="sans-serif" font-size="13" lengthAdjust="spacing" textLength="49" x="463.5" y="190.8105">gere les</text><text fill="#000000" font-family="sans-serif" font-size="13" lengthAdjust="spacing" textLength="6" x="530.9663" y="198.0293">*</text><!--MD5=[252be24678fe64f02b5bbc09b3202864]
@startuml MDD
left to right direction



package SACB {
class ControleurChariot
class CapteursPresence
class Convoyeur
class Caroussel
class ChariotTeleguide
class ControleurConvoyeur
class Terminal
class LecteurCodeBar
class Avion
}

package Acteurs {
  class Douanier <<Personne>>
class PersonnelAeroport <<Personne>>
class Passager<<Personne>>
class PersonnelLigneAerienne <<Personne>>
}

package Bagages {
  class Bagage {
  codeBar: string
  poids: float
  scan():string
  enregistrement()
  }

  class EtatPosition
  class DansAvion
  class SurChariotTeleguide
  class SurConvoyeur
  class SurCaroussel
}




class Passager 
class LigneAerienne
class Deplacement
class Inspection

Deplacement - - "*" Passager: est pour >
Deplacement - - "1" Avion: est fait avec >

LigneAerienne - - "1..5" Terminal: utilisent 
Terminal - - "*" Convoyeur: contient
Terminal - - "*" Caroussel: contient

Passager - - "*" Bagage: possède
 ControleurChariot o- - ChariotTeleguide : controle >
 ControleurConvoyeur o- - "*" Convoyeur : controle > 
 ControleurConvoyeur o- - "*" CapteursPresence: vérifie l'état des convoyeurs avec >
 ControleurConvoyeur o- - "*" LecteurCodeBar: vérifie la position des bagages avec >


DansAvion -u-|> EtatPosition
SurChariotTeleguide -u-|> EtatPosition
SurConvoyeur -u-|> EtatPosition
SurCaroussel -u-|> EtatPosition

Bagage -r- EtatPosition: est localisé >


ChariotTeleguide - -> Terminal:Apporte ou récupère les bagage > 
ChariotTeleguide - -> Avion: Apporte ou récupère les bagage >

DansAvion - - Avion : est dans >
SurChariotTeleguide - - ChariotTeleguide: est sur >
SurConvoyeur - - Convoyeur: localise les bagage sur >
SurCaroussel - - Caroussel: localise les bagage sur >

LigneAerienne - - "*" Avion : possède >
LigneAerienne - - "*" PersonnelLigneAerienne : emploie >

Douanier - - "*" Inspection: effectue >
Inspection - - "*" Bagage: est pour >

PersonnelAeroport - - ControleurChariot: localise les bagages >
PersonnelAeroport - - ControleurConvoyeur: localise les bagages >

LigneAerienne - - "*" Deplacement : offre >
PersonnelLigneAerienne - - "*" Deplacement : gere les >
@enduml

PlantUML version 1.2022.0(Tue Jan 11 11:16:42 EST 2022)
(GPL source distribution)
Java Runtime: OpenJDK Runtime Environment
JVM: OpenJDK 64-Bit Server VM
Default Encoding: UTF-8
Language: fr
Country: CA
--></g></svg>