<?xml version="1.0" encoding="UTF-8" standalone="no"?><svg xmlns="http://www.w3.org/2000/svg" xmlns:xlink="http://www.w3.org/1999/xlink" contentScriptType="application/ecmascript" contentStyleType="text/css" height="582px" preserveAspectRatio="none" style="width:1617px;height:582px;background:#FFFFFF;" version="1.1" viewBox="0 0 1617 582" width="1617px" zoomAndPan="magnify"><defs><filter height="300%" id="fswb4glr8qm8h" width="300%" x="-1" y="-1"><feGaussianBlur result="blurOut" stdDeviation="2.0"/><feColorMatrix in="blurOut" result="blurOut2" type="matrix" values="0 0 0 0 0 0 0 0 0 0 0 0 0 0 0 0 0 0 .4 0"/><feOffset dx="4.0" dy="4.0" in="blurOut2" result="blurOut3"/><feBlend in="SourceGraphic" in2="blurOut3" mode="normal"/></filter></defs><g><text fill="#000000" font-family="sans-serif" font-size="18" lengthAdjust="spacing" textLength="392" x="606" y="17.4023">système automatisé de controle des bagages</text><!--MD5=[b3ffa516308c2002dba4e09bcd3a8067]
cluster Aeroport--><polygon fill="#FFFFFF" filter="url(#fswb4glr8qm8h)" points="16,27.1992,85,27.1992,92,49.6875,1600,49.6875,1600,575.1992,16,575.1992,16,27.1992" style="stroke:#000000;stroke-width:1.5;"/><line style="stroke:#000000;stroke-width:1.5;" x1="16" x2="92" y1="49.6875" y2="49.6875"/><text fill="#000000" font-family="sans-serif" font-size="14" font-weight="bold" lengthAdjust="spacing" textLength="63" x="20" y="42.7344">Aeroport</text><!--MD5=[607cf681d6787fbac5e47dcf3001eb00]
cluster InterfaceUsager--><polygon fill="#FFFFFF" filter="url(#fswb4glr8qm8h)" points="445,295.1992,563,295.1992,570,317.6875,639,317.6875,639,543.1992,445,543.1992,445,295.1992" style="stroke:#000000;stroke-width:1.5;"/><line style="stroke:#000000;stroke-width:1.5;" x1="445" x2="570" y1="317.6875" y2="317.6875"/><text fill="#000000" font-family="sans-serif" font-size="14" font-weight="bold" lengthAdjust="spacing" textLength="112" x="449" y="310.7344">InterfaceUsager</text><!--MD5=[bf651fdbd8dc621b8c9f8c9bb2faf726]
cluster Terminal--><rect fill="#FFFFFF" filter="url(#fswb4glr8qm8h)" height="166" style="stroke:#000000;stroke-width:1.5;" width="237" x="1331" y="80.1992"/><rect fill="#FFFFFF" height="10" style="stroke:#000000;stroke-width:1.5;" width="15" x="1548" y="85.1992"/><rect fill="#FFFFFF" height="2" style="stroke:#000000;stroke-width:1.5;" width="4" x="1546" y="87.1992"/><rect fill="#FFFFFF" height="2" style="stroke:#000000;stroke-width:1.5;" width="4" x="1546" y="91.1992"/><text fill="#000000" font-family="sans-serif" font-size="14" font-style="italic" lengthAdjust="spacing" textLength="123" x="1388" y="106.7344">«Systeme logiciel»</text><text fill="#000000" font-family="sans-serif" font-size="14" font-weight="bold" lengthAdjust="spacing" textLength="65" x="1417" y="123.2227">Terminal</text><!--MD5=[4961b719990ee344de21f3b1bb991aab]
entity Douanier--><ellipse cx="115.5" cy="221.1875" fill="#FEFECE" filter="url(#fswb4glr8qm8h)" rx="8" ry="8" style="stroke:#A80036;stroke-width:1.5;"/><path d="M115.5,229.1875 L115.5,256.1875 M102.5,237.1875 L128.5,237.1875 M115.5,256.1875 L102.5,271.1875 M115.5,256.1875 L128.5,271.1875 " fill="none" filter="url(#fswb4glr8qm8h)" style="stroke:#A80036;stroke-width:1.5;"/><text fill="#000000" font-family="sans-serif" font-size="14" lengthAdjust="spacing" textLength="63" x="84" y="290.2227">Douanier</text><text fill="#000000" font-family="sans-serif" font-size="14" font-style="italic" lengthAdjust="spacing" textLength="78" x="76.5" y="208.7344">«Personne»</text><!--MD5=[f6c7f7bddfeec633e125fc13f89aec47]
entity PersonnelAeroport--><ellipse cx="115.5" cy="88.1875" fill="#FEFECE" filter="url(#fswb4glr8qm8h)" rx="8" ry="8" style="stroke:#A80036;stroke-width:1.5;"/><path d="M115.5,96.1875 L115.5,123.1875 M102.5,104.1875 L128.5,104.1875 M115.5,123.1875 L102.5,138.1875 M115.5,123.1875 L128.5,138.1875 " fill="none" filter="url(#fswb4glr8qm8h)" style="stroke:#A80036;stroke-width:1.5;"/><text fill="#000000" font-family="sans-serif" font-size="14" lengthAdjust="spacing" textLength="130" x="50.5" y="157.2227">PersonnelAeroport</text><text fill="#000000" font-family="sans-serif" font-size="14" font-style="italic" lengthAdjust="spacing" textLength="78" x="76.5" y="75.7344">«Personne»</text><!--MD5=[48ff3798ea8501cf7ababf205d2fdb89]
entity Passager--><ellipse cx="115.5" cy="354.1875" fill="#FEFECE" filter="url(#fswb4glr8qm8h)" rx="8" ry="8" style="stroke:#A80036;stroke-width:1.5;"/><path d="M115.5,362.1875 L115.5,389.1875 M102.5,370.1875 L128.5,370.1875 M115.5,389.1875 L102.5,404.1875 M115.5,389.1875 L128.5,404.1875 " fill="none" filter="url(#fswb4glr8qm8h)" style="stroke:#A80036;stroke-width:1.5;"/><text fill="#000000" font-family="sans-serif" font-size="14" lengthAdjust="spacing" textLength="61" x="85" y="423.2227">Passager</text><text fill="#000000" font-family="sans-serif" font-size="14" font-style="italic" lengthAdjust="spacing" textLength="78" x="76.5" y="341.7344">«Personne»</text><!--MD5=[90cdfa96acda45a776133dd4e90a46d0]
entity PersonnelLigneAerienne--><ellipse cx="115.5" cy="487.1875" fill="#FEFECE" filter="url(#fswb4glr8qm8h)" rx="8" ry="8" style="stroke:#A80036;stroke-width:1.5;"/><path d="M115.5,495.1875 L115.5,522.1875 M102.5,503.1875 L128.5,503.1875 M115.5,522.1875 L102.5,537.1875 M115.5,522.1875 L128.5,537.1875 " fill="none" filter="url(#fswb4glr8qm8h)" style="stroke:#A80036;stroke-width:1.5;"/><text fill="#000000" font-family="sans-serif" font-size="14" lengthAdjust="spacing" textLength="167" x="32" y="556.2227">PersonnelLigneAerienne</text><text fill="#000000" font-family="sans-serif" font-size="14" font-style="italic" lengthAdjust="spacing" textLength="78" x="76.5" y="474.7344">«Personne»</text><!--MD5=[811d450925a1db1ccd5d126264210c5b]
entity ControleurChariot--><rect fill="#FEFECE" filter="url(#fswb4glr8qm8h)" height="62.9766" style="stroke:#A80036;stroke-width:1.5;" width="166" x="459" y="207.6992"/><rect fill="#FEFECE" height="10" style="stroke:#A80036;stroke-width:1.5;" width="15" x="605" y="212.6992"/><rect fill="#FEFECE" height="2" style="stroke:#A80036;stroke-width:1.5;" width="4" x="603" y="214.6992"/><rect fill="#FEFECE" height="2" style="stroke:#A80036;stroke-width:1.5;" width="4" x="603" y="218.6992"/><text fill="#000000" font-family="sans-serif" font-size="14" font-style="italic" lengthAdjust="spacing" textLength="70" x="502" y="241.2344">«Systeme»</text><text fill="#000000" font-family="sans-serif" font-size="14" lengthAdjust="spacing" textLength="126" x="474" y="257.7227">ControleurChariot</text><!--MD5=[ad2e7e16bc3b5f7fb134d358a8fbd0cb]
entity ServeurLigneAerienne--><rect fill="#FEFECE" filter="url(#fswb4glr8qm8h)" height="62.9766" style="stroke:#A80036;stroke-width:1.5;" width="191" x="885" y="377.6992"/><rect fill="#FEFECE" height="10" style="stroke:#A80036;stroke-width:1.5;" width="15" x="1056" y="382.6992"/><rect fill="#FEFECE" height="2" style="stroke:#A80036;stroke-width:1.5;" width="4" x="1054" y="384.6992"/><rect fill="#FEFECE" height="2" style="stroke:#A80036;stroke-width:1.5;" width="4" x="1054" y="388.6992"/><text fill="#000000" font-family="sans-serif" font-size="14" font-style="italic" lengthAdjust="spacing" textLength="115" x="918" y="411.2344">«System logiciel»</text><text fill="#000000" font-family="sans-serif" font-size="14" lengthAdjust="spacing" textLength="151" x="900" y="427.7227">ServeurLigneAerienne</text><!--MD5=[68be56a0d8d90f285ed8d451d964530f]
entity ChariotTeleguide--><rect fill="#FEFECE" filter="url(#fswb4glr8qm8h)" height="62.9766" style="stroke:#A80036;stroke-width:1.5;" width="159" x="901" y="207.6992"/><rect fill="#FEFECE" height="10" style="stroke:#A80036;stroke-width:1.5;" width="15" x="1040" y="212.6992"/><rect fill="#FEFECE" height="2" style="stroke:#A80036;stroke-width:1.5;" width="4" x="1038" y="214.6992"/><rect fill="#FEFECE" height="2" style="stroke:#A80036;stroke-width:1.5;" width="4" x="1038" y="218.6992"/><text fill="#000000" font-family="sans-serif" font-size="14" font-style="italic" lengthAdjust="spacing" textLength="70" x="940.5" y="241.2344">«Systeme»</text><text fill="#000000" font-family="sans-serif" font-size="14" lengthAdjust="spacing" textLength="119" x="916" y="257.7227">ChariotTeleguide</text><!--MD5=[4ffdd102313d506bb306c6d78d47485c]
entity Avion--><rect fill="#FEFECE" filter="url(#fswb4glr8qm8h)" height="62.9766" style="stroke:#A80036;stroke-width:1.5;" width="110" x="1394.5" y="325.6992"/><rect fill="#FEFECE" height="10" style="stroke:#A80036;stroke-width:1.5;" width="15" x="1484.5" y="330.6992"/><rect fill="#FEFECE" height="2" style="stroke:#A80036;stroke-width:1.5;" width="4" x="1482.5" y="332.6992"/><rect fill="#FEFECE" height="2" style="stroke:#A80036;stroke-width:1.5;" width="4" x="1482.5" y="336.6992"/><text fill="#000000" font-family="sans-serif" font-size="14" font-style="italic" lengthAdjust="spacing" textLength="70" x="1409.5" y="359.2344">«Systeme»</text><text fill="#000000" font-family="sans-serif" font-size="14" lengthAdjust="spacing" textLength="39" x="1425" y="375.7227">Avion</text><!--MD5=[8faf023c6939dc6fead654ffdc1842f2]
entity InterfaceWeb--><rect fill="#FEFECE" filter="url(#fswb4glr8qm8h)" height="62.9766" style="stroke:#A80036;stroke-width:1.5;" width="129" x="477.5" y="338.6992"/><rect fill="#FEFECE" height="10" style="stroke:#A80036;stroke-width:1.5;" width="15" x="586.5" y="343.6992"/><rect fill="#FEFECE" height="2" style="stroke:#A80036;stroke-width:1.5;" width="4" x="584.5" y="345.6992"/><rect fill="#FEFECE" height="2" style="stroke:#A80036;stroke-width:1.5;" width="4" x="584.5" y="349.6992"/><text fill="#000000" font-family="sans-serif" font-size="14" font-style="italic" lengthAdjust="spacing" textLength="28" x="523" y="372.2344">«UI»</text><text fill="#000000" font-family="sans-serif" font-size="14" lengthAdjust="spacing" textLength="89" x="492.5" y="388.7227">InterfaceWeb</text><!--MD5=[87518a9318f6d11e53f26dc0c9c02865]
entity InterfaceMobile--><rect fill="#FEFECE" filter="url(#fswb4glr8qm8h)" height="62.9766" style="stroke:#A80036;stroke-width:1.5;" width="146" x="469" y="436.6992"/><rect fill="#FEFECE" height="10" style="stroke:#A80036;stroke-width:1.5;" width="15" x="595" y="441.6992"/><rect fill="#FEFECE" height="2" style="stroke:#A80036;stroke-width:1.5;" width="4" x="593" y="443.6992"/><rect fill="#FEFECE" height="2" style="stroke:#A80036;stroke-width:1.5;" width="4" x="593" y="447.6992"/><text fill="#000000" font-family="sans-serif" font-size="14" font-style="italic" lengthAdjust="spacing" textLength="84" x="495" y="470.2344">«UI, Iphone»</text><text fill="#000000" font-family="sans-serif" font-size="14" lengthAdjust="spacing" textLength="106" x="484" y="486.7227">InterfaceMobile</text><!--MD5=[0d342055ac4e47ce32196d63cd8e6e1a]
entity ControleurConvoyeur--><rect fill="#FEFECE" filter="url(#fswb4glr8qm8h)" height="62.9766" style="stroke:#A80036;stroke-width:1.5;" width="189" x="1355" y="139.6992"/><rect fill="#FEFECE" height="10" style="stroke:#A80036;stroke-width:1.5;" width="15" x="1524" y="144.6992"/><rect fill="#FEFECE" height="2" style="stroke:#A80036;stroke-width:1.5;" width="4" x="1522" y="146.6992"/><rect fill="#FEFECE" height="2" style="stroke:#A80036;stroke-width:1.5;" width="4" x="1522" y="150.6992"/><text fill="#000000" font-family="sans-serif" font-size="14" font-style="italic" lengthAdjust="spacing" textLength="70" x="1409.5" y="173.2344">«Systeme»</text><text fill="#000000" font-family="sans-serif" font-size="14" lengthAdjust="spacing" textLength="149" x="1370" y="189.7227">ControleurConvoyeur</text><!--MD5=[65c2c961d31ecd5edb7ce81539f2598c]
link Douanier to ControleurChariot--><path d="M154.55,243.7492 C221.45,242.9592 361.79,241.3092 453.66,240.2292 " fill="none" id="Douanier-to-ControleurChariot" style="stroke:#A80036;stroke-width:1.0;"/><polygon fill="#A80036" points="458.82,240.1692,449.7749,236.2723,453.8203,240.2264,449.8663,244.2718,458.82,240.1692" style="stroke:#A80036;stroke-width:1.0;"/><text fill="#000000" font-family="sans-serif" font-size="13" lengthAdjust="spacing" textLength="190" x="230" y="237.7676">positionBagage(bagage:string)</text><!--MD5=[f4b4f1caaddd2956d102444edb96e459]
link PersonnelAeroport to ControleurChariot--><path d="M180.51,130.4992 C253.41,152.4792 372.9,188.5092 454.16,213.0092 " fill="none" id="PersonnelAeroport-to-ControleurChariot" style="stroke:#A80036;stroke-width:1.0;"/><polygon fill="#A80036" points="458.97,214.4592,451.5077,208.0316,454.1828,213.0159,449.1985,215.691,458.97,214.4592" style="stroke:#A80036;stroke-width:1.0;"/><text fill="#000000" font-family="sans-serif" font-size="13" lengthAdjust="spacing" textLength="52" x="299" y="127.7676">position</text><text fill="#000000" font-family="sans-serif" font-size="13" lengthAdjust="spacing" textLength="100" x="275" y="143.0781">et poids bagage</text><!--MD5=[c32c62a8aac92f6e36eeb4ff29414f57]
link Douanier to ControleurConvoyeur--><path d="M154.53,233.5792 C176.22,227.8192 203.98,220.9192 229,216.1992 C317.08,199.5692 339.61,196.8192 429,190.1992 C766.13,165.2192 1167.58,166.9392 1349.81,169.4192 " fill="none" id="Douanier-to-ControleurConvoyeur" style="stroke:#A80036;stroke-width:1.0;"/><polygon fill="#A80036" points="1354.87,169.4892,1345.9281,165.3611,1349.8705,169.4178,1345.8138,173.3603,1354.87,169.4892" style="stroke:#A80036;stroke-width:1.0;"/><text fill="#000000" font-family="sans-serif" font-size="13" lengthAdjust="spacing" textLength="190" x="664" y="168.7676">positionBagage(bagage:string)</text><!--MD5=[13dff4829aed52ece6bf62749c8ce7cd]
link PersonnelAeroport to ControleurConvoyeur--><path d="M180.74,107.8492 C196.51,107.1692 213.36,106.5492 229,106.1992 C314.31,104.3092 335.71,103.5092 421,106.1992 C762.38,116.9792 1166.61,147.8792 1349.66,162.8592 " fill="none" id="PersonnelAeroport-to-ControleurConvoyeur" style="stroke:#A80036;stroke-width:1.0;"/><polygon fill="#A80036" points="1354.74,163.2792,1346.1021,158.5477,1349.7572,162.8652,1345.4397,166.5202,1354.74,163.2792" style="stroke:#A80036;stroke-width:1.0;"/><text fill="#000000" font-family="sans-serif" font-size="13" lengthAdjust="spacing" textLength="52" x="733" y="98.7676">position</text><text fill="#000000" font-family="sans-serif" font-size="13" lengthAdjust="spacing" textLength="100" x="709" y="114.0781">et poids bagage</text><!--MD5=[9e1643f62b2b7991c633f9bff0b52077]
link Passager to InterfaceUsager--><path d="M154.55,378.0692 C219.46,381.7292 351.31,398.9992 421,477.1992 C432.77,490.4092 416.28,503.8992 429,516.1992 C433.4675,520.5167 438.5313,524.0594 443.9769,526.9525 C444.1471,527.0429 444.3176,527.1327 444.4885,527.2218 " fill="none" id="Passager-to-InterfaceUsager" style="stroke:#A80036;stroke-width:1.0;"/><polygon fill="#A80036" points="444.4885,527.2218,438.3585,519.5132,440.0553,524.9096,434.6589,526.6063,444.4885,527.2218" style="stroke:#A80036;stroke-width:1.0;"/><text fill="#000000" font-family="sans-serif" font-size="13" lengthAdjust="spacing" textLength="103" x="273.5" y="384.7676">positionsBagage</text><!--MD5=[8d6731dc8edb3adb19f0d427367c3bb3]
link PersonnelLigneAerienne to InterfaceUsager--><path d="M199.1,515.0592 C259.885,518.6392 343.66,523.5742 413.0688,527.663 C421.7448,528.1741 430.1965,528.6719 438.3507,529.1523 C440.3892,529.2724 442.4092,529.3914 444.4094,529.5092 " fill="none" id="PersonnelLigneAerienne-to-InterfaceUsager" style="stroke:#A80036;stroke-width:1.0;"/><polygon fill="#A80036" points="444.4094,529.5092,435.6602,524.9869,439.418,529.2152,435.1897,532.973,444.4094,529.5092" style="stroke:#A80036;stroke-width:1.0;"/><text fill="#000000" font-family="sans-serif" font-size="13" lengthAdjust="spacing" textLength="52" x="299" y="498.7676">position</text><text fill="#000000" font-family="sans-serif" font-size="13" lengthAdjust="spacing" textLength="100" x="275" y="514.0781">et poids bagage</text><!--MD5=[047542e0a4f17f654ca4a54823416a75]
link InterfaceUsager to ServeurLigneAerienne--><path d="M639.3705,519.813 C639.5669,519.7706 639.7633,519.728 639.9595,519.6854 C640.3519,519.6002 640.744,519.5146 641.1357,519.4288 C642.7024,519.0853 644.2627,518.7366 645.8141,518.3829 C648.9171,517.6754 651.985,516.9473 655,516.1992 C735.94,496.1092 825.85,465.8192 890.46,442.5792 " fill="none" id="InterfaceUsager-to-ServeurLigneAerienne" style="stroke:#A80036;stroke-width:1.0;"/><polygon fill="#A80036" points="895.46,440.7792,885.6368,440.0694,890.7565,442.4753,888.3505,447.5951,895.46,440.7792" style="stroke:#A80036;stroke-width:1.0;"/><text fill="#000000" font-family="sans-serif" font-size="13" lengthAdjust="spacing" textLength="101" x="708.5" y="453.7676">position bagage</text><!--MD5=[89f9a3cd352914abd2fcf65217bf8c42]
link ServeurLigneAerienne to Terminal--><path d="M1076.07,393.1692 C1169.38,376.9292 1299.21,352.9792 1307,344.1992 C1322.09,327.1992 1298.54,257.8792 1315,242.1992 C1317.6438,239.6798 1320.4675,237.4553 1323.4391,235.4989 C1324.9249,234.5207 1326.4476,233.6095 1328.0033,232.762 C1328.7812,232.3382 1329.5673,231.9304 1330.3611,231.5381 C1330.5596,231.44 1330.7585,231.3429 1330.9579,231.2467 " fill="none" id="ServeurLigneAerienne-to-Terminal" style="stroke:#A80036;stroke-width:1.0;"/><polygon fill="#A80036" points="1330.9579,231.2467,1321.1138,231.5525,1326.4541,233.4183,1324.5884,238.7586,1330.9579,231.2467" style="stroke:#A80036;stroke-width:1.0;"/><text fill="#000000" font-family="sans-serif" font-size="13" lengthAdjust="spacing" textLength="52" x="1180.5" y="340.7676">utilisent</text><text fill="#000000" font-family="sans-serif" font-size="13" lengthAdjust="spacing" textLength="6" x="1442.43" y="250.7376">*</text><!--MD5=[f6b4b2fb608466865d8b2bb3bd480023]
link ServeurLigneAerienne to Avion--><path d="M1076,419.6592 C1141.43,424.5692 1230.21,426.5992 1307,412.1992 C1335.17,406.9192 1364.93,396.1992 1389.86,385.6192 " fill="none" id="ServeurLigneAerienne-to-Avion" style="stroke:#A80036;stroke-width:1.0;"/><polygon fill="#A80036" points="1394.46,383.6492,1384.612,383.5179,1389.8643,385.6188,1387.7634,390.8711,1394.46,383.6492" style="stroke:#A80036;stroke-width:1.0;"/><text fill="#000000" font-family="sans-serif" font-size="13" lengthAdjust="spacing" textLength="27" x="1193" y="408.7676">gère</text><text fill="#000000" font-family="sans-serif" font-size="13" lengthAdjust="spacing" textLength="6" x="1380.6609" y="400.802">*</text><!--MD5=[307261dea999df431187d4bb2a861352]
link ChariotTeleguide to Terminal--><path d="M1060.19,239.0292 C1126.215,238.8892 1222.2975,238.6842 1302.365,238.513 C1307.3692,238.5023 1312.3109,238.4917 1317.1787,238.4813 C1319.6127,238.4761 1322.0281,238.4709 1324.4238,238.4658 C1325.6216,238.4632 1326.8144,238.4607 1328.0021,238.4581 C1328.596,238.4568 1329.1885,238.4556 1329.7798,238.4543 " fill="none" id="ChariotTeleguide-to-Terminal" style="stroke:#A80036;stroke-width:1.0;"/><polygon fill="#A80036" points="1329.7798,238.4543,1320.7712,234.4736,1324.7798,238.465,1320.7884,242.4736,1329.7798,238.4543" style="stroke:#A80036;stroke-width:1.0;"/><text fill="#000000" font-family="sans-serif" font-size="13" lengthAdjust="spacing" textLength="199" x="1107" y="235.7676">Apporte ou récupère les bagage</text><!--MD5=[a43bb22fb3ebddc2b20deceefa145406]
link ChariotTeleguide to Avion--><path d="M1060.19,259.0792 C1153.22,282.5892 1305.91,321.1692 1389.41,342.2692 " fill="none" id="ChariotTeleguide-to-Avion" style="stroke:#A80036;stroke-width:1.0;"/><polygon fill="#A80036" points="1394.32,343.5092,1386.5799,337.419,1389.4735,342.2797,1384.6127,345.1733,1394.32,343.5092" style="stroke:#A80036;stroke-width:1.0;"/><text fill="#000000" font-family="sans-serif" font-size="13" lengthAdjust="spacing" textLength="199" x="1107" y="267.7676">Apporte ou récupère les bagage</text><!--MD5=[ed7af21b31b5ae6dbb17991b4362df04]
link ControleurChariot to ChariotTeleguide--><path d="M625.1,239.1992 C702.43,239.1992 817.73,239.1992 895.63,239.1992 " fill="none" id="ControleurChariot-to-ChariotTeleguide" style="stroke:#A80036;stroke-width:1.0;"/><polygon fill="#A80036" points="900.71,239.1992,891.71,235.1992,895.71,239.1992,891.71,243.1992,900.71,239.1992" style="stroke:#A80036;stroke-width:1.0;"/><text fill="#000000" font-family="sans-serif" font-size="13" lengthAdjust="spacing" textLength="79" x="719.5" y="235.7676">Fait le suivie</text><text fill="#000000" font-family="sans-serif" font-size="13" lengthAdjust="spacing" textLength="32" x="861.0767" y="252.3785">1000</text><!--MD5=[a2adfbaeb53c10f05bf4700ebd5a8254]
@startuml seance13-aeroport-solution
left to right direction
title système automatisé de controle des bagages 
package Aeroport {
  
  Actor Douanier <<Personne>>
  Actor PersonnelAeroport <<Personne>>
  Actor Passager<<Personne>>
  Actor PersonnelLigneAerienne <<Personne>>

   Component ControleurChariot <<Systeme>>

  component ServeurLigneAerienne <<System logiciel>>
  package InterfaceUsager {
  component InterfaceWeb <<UI>>
  component InterfaceMobile<<UI, Iphone>>
  }
  component Terminal <<Systeme logiciel>> {
    Component ControleurConvoyeur <<Systeme>>
  }
  component ChariotTeleguide <<Systeme>>

  component Avion <<Systeme>>
  
  Douanier - -> ControleurChariot : positionBagage(bagage:string)
  PersonnelAeroport - -> ControleurChariot: position\net poids bagage
  Douanier - -> ControleurConvoyeur : positionBagage(bagage:string)
  PersonnelAeroport - -> ControleurConvoyeur: position\net poids bagage


  Passager - ->  InterfaceUsager: positionsBagage
  PersonnelLigneAerienne - ->  InterfaceUsager: position\net poids bagage
  InterfaceUsager - -> ServeurLigneAerienne: position bagage

  ServeurLigneAerienne - -> "*" Terminal: utilisent
  ServeurLigneAerienne - -> "*" Avion: gère 
  
  ChariotTeleguide - -> Terminal: Apporte ou récupère les bagage 
  ChariotTeleguide - -> Avion: Apporte ou récupère les bagage 
  ControleurChariot - -> "1000" ChariotTeleguide : Fait le suivie
  

@enduml

PlantUML version 1.2022.0(Tue Jan 11 11:16:42 EST 2022)
(GPL source distribution)
Java Runtime: OpenJDK Runtime Environment
JVM: OpenJDK 64-Bit Server VM
Default Encoding: UTF-8
Language: fr
Country: CA
--></g></svg>