<?xml version="1.0" encoding="UTF-8" standalone="no"?><svg xmlns="http://www.w3.org/2000/svg" xmlns:xlink="http://www.w3.org/1999/xlink" contentScriptType="application/ecmascript" contentStyleType="text/css" height="211px" preserveAspectRatio="none" style="width:976px;height:211px;background:#FFFFFF;" version="1.1" viewBox="0 0 976 211" width="976px" zoomAndPan="magnify"><defs><filter height="300%" id="f1jgvlh5cq0gzz" width="300%" x="-1" y="-1"><feGaussianBlur result="blurOut" stdDeviation="2.0"/><feColorMatrix in="blurOut" result="blurOut2" type="matrix" values="0 0 0 0 0 0 0 0 0 0 0 0 0 0 0 0 0 0 .4 0"/><feOffset dx="4.0" dy="4.0" in="blurOut2" result="blurOut3"/><feBlend in="SourceGraphic" in2="blurOut3" mode="normal"/></filter></defs><g><text fill="#000000" font-family="sans-serif" font-size="18" lengthAdjust="spacing" textLength="174" x="394.5" y="17.4023">Contexte terminaux</text><!--MD5=[ad2e7e16bc3b5f7fb134d358a8fbd0cb]
entity ServeurLigneAerienne--><rect fill="#FEFECE" filter="url(#f1jgvlh5cq0gzz)" height="46.4883" style="stroke:#A80036;stroke-width:1.5;" width="191" x="389" y="28.1992"/><rect fill="#FEFECE" height="10" style="stroke:#A80036;stroke-width:1.5;" width="15" x="560" y="33.1992"/><rect fill="#FEFECE" height="2" style="stroke:#A80036;stroke-width:1.5;" width="4" x="558" y="35.1992"/><rect fill="#FEFECE" height="2" style="stroke:#A80036;stroke-width:1.5;" width="4" x="558" y="39.1992"/><text fill="#000000" font-family="sans-serif" font-size="14" lengthAdjust="spacing" textLength="151" x="404" y="61.7344">ServeurLigneAerienne</text><!--MD5=[232117241aa7c4db41cc1daf49d0b1c4]
entity Terminal1--><rect fill="#FEFECE" filter="url(#f1jgvlh5cq0gzz)" height="62.9766" style="stroke:#A80036;stroke-width:1.5;" width="163" x="7" y="134.1992"/><rect fill="#FEFECE" height="10" style="stroke:#A80036;stroke-width:1.5;" width="15" x="150" y="139.1992"/><rect fill="#FEFECE" height="2" style="stroke:#A80036;stroke-width:1.5;" width="4" x="148" y="141.1992"/><rect fill="#FEFECE" height="2" style="stroke:#A80036;stroke-width:1.5;" width="4" x="148" y="145.1992"/><text fill="#000000" font-family="sans-serif" font-size="14" font-style="italic" lengthAdjust="spacing" textLength="123" x="22" y="167.7344">«Systeme logiciel»</text><text fill="#000000" font-family="sans-serif" font-size="14" lengthAdjust="spacing" textLength="70" x="48.5" y="184.2227">Terminal1</text><!--MD5=[d749e84fce1010e3065b63176c7c44b7]
entity Terminal2--><rect fill="#FEFECE" filter="url(#f1jgvlh5cq0gzz)" height="62.9766" style="stroke:#A80036;stroke-width:1.5;" width="163" x="205" y="134.1992"/><rect fill="#FEFECE" height="10" style="stroke:#A80036;stroke-width:1.5;" width="15" x="348" y="139.1992"/><rect fill="#FEFECE" height="2" style="stroke:#A80036;stroke-width:1.5;" width="4" x="346" y="141.1992"/><rect fill="#FEFECE" height="2" style="stroke:#A80036;stroke-width:1.5;" width="4" x="346" y="145.1992"/><text fill="#000000" font-family="sans-serif" font-size="14" font-style="italic" lengthAdjust="spacing" textLength="123" x="220" y="167.7344">«Systeme logiciel»</text><text fill="#000000" font-family="sans-serif" font-size="14" lengthAdjust="spacing" textLength="70" x="246.5" y="184.2227">Terminal2</text><!--MD5=[cb14628ffbe284dd65358d4dc7c7259b]
entity Terminal3--><rect fill="#FEFECE" filter="url(#f1jgvlh5cq0gzz)" height="62.9766" style="stroke:#A80036;stroke-width:1.5;" width="163" x="403" y="134.1992"/><rect fill="#FEFECE" height="10" style="stroke:#A80036;stroke-width:1.5;" width="15" x="546" y="139.1992"/><rect fill="#FEFECE" height="2" style="stroke:#A80036;stroke-width:1.5;" width="4" x="544" y="141.1992"/><rect fill="#FEFECE" height="2" style="stroke:#A80036;stroke-width:1.5;" width="4" x="544" y="145.1992"/><text fill="#000000" font-family="sans-serif" font-size="14" font-style="italic" lengthAdjust="spacing" textLength="123" x="418" y="167.7344">«Systeme logiciel»</text><text fill="#000000" font-family="sans-serif" font-size="14" lengthAdjust="spacing" textLength="70" x="444.5" y="184.2227">Terminal3</text><!--MD5=[c5221f5ba4ec17f1ae720d2a860b353f]
entity Terminal4--><rect fill="#FEFECE" filter="url(#f1jgvlh5cq0gzz)" height="62.9766" style="stroke:#A80036;stroke-width:1.5;" width="163" x="601" y="134.1992"/><rect fill="#FEFECE" height="10" style="stroke:#A80036;stroke-width:1.5;" width="15" x="744" y="139.1992"/><rect fill="#FEFECE" height="2" style="stroke:#A80036;stroke-width:1.5;" width="4" x="742" y="141.1992"/><rect fill="#FEFECE" height="2" style="stroke:#A80036;stroke-width:1.5;" width="4" x="742" y="145.1992"/><text fill="#000000" font-family="sans-serif" font-size="14" font-style="italic" lengthAdjust="spacing" textLength="123" x="616" y="167.7344">«Systeme logiciel»</text><text fill="#000000" font-family="sans-serif" font-size="14" lengthAdjust="spacing" textLength="70" x="642.5" y="184.2227">Terminal4</text><!--MD5=[f60142c8312c9bd36fdc3b2f86048fe8]
entity Terminal5--><rect fill="#FEFECE" filter="url(#f1jgvlh5cq0gzz)" height="62.9766" style="stroke:#A80036;stroke-width:1.5;" width="163" x="799" y="134.1992"/><rect fill="#FEFECE" height="10" style="stroke:#A80036;stroke-width:1.5;" width="15" x="942" y="139.1992"/><rect fill="#FEFECE" height="2" style="stroke:#A80036;stroke-width:1.5;" width="4" x="940" y="141.1992"/><rect fill="#FEFECE" height="2" style="stroke:#A80036;stroke-width:1.5;" width="4" x="940" y="145.1992"/><text fill="#000000" font-family="sans-serif" font-size="14" font-style="italic" lengthAdjust="spacing" textLength="123" x="814" y="167.7344">«Systeme logiciel»</text><text fill="#000000" font-family="sans-serif" font-size="14" lengthAdjust="spacing" textLength="70" x="840.5" y="184.2227">Terminal5</text><!--MD5=[045808807c375e0b42b939846ae9c285]
link ServeurLigneAerienne to Terminal1--><path d="M402.06,74.2592 C342.35,90.4092 259.77,113.0992 187.5,134.1992 C183.41,135.3992 179.22,136.6292 174.99,137.8892 " fill="none" id="ServeurLigneAerienne-to-Terminal1" style="stroke:#A80036;stroke-width:1.0;"/><polygon fill="#A80036" points="170.02,139.3792,179.7881,140.6378,174.8111,137.949,177.4998,132.972,170.02,139.3792" style="stroke:#A80036;stroke-width:1.0;"/><!--MD5=[866caeb7c6b4b97aa52287a3fb21096d]
link ServeurLigneAerienne to Terminal2--><path d="M445.38,74.4292 C416.81,90.6592 377.57,112.9492 345.24,131.3192 " fill="none" id="ServeurLigneAerienne-to-Terminal2" style="stroke:#A80036;stroke-width:1.0;"/><polygon fill="#A80036" points="340.53,133.9992,350.3305,133.0243,344.8756,131.5262,346.3737,126.0713,340.53,133.9992" style="stroke:#A80036;stroke-width:1.0;"/><!--MD5=[3cb22bc7843bcb4a96c24b6f3153c3d5]
link ServeurLigneAerienne to Terminal3--><path d="M484.5,74.4292 C484.5,89.8592 484.5,110.7792 484.5,128.5792 " fill="none" id="ServeurLigneAerienne-to-Terminal3" style="stroke:#A80036;stroke-width:1.0;"/><polygon fill="#A80036" points="484.5,133.9992,488.5,124.9992,484.5,128.9992,480.5,124.9992,484.5,133.9992" style="stroke:#A80036;stroke-width:1.0;"/><!--MD5=[e22a51d207d1a5bf07d4c528fa0f2785]
link ServeurLigneAerienne to Terminal4--><path d="M523.62,74.4292 C552.19,90.6592 591.43,112.9492 623.76,131.3192 " fill="none" id="ServeurLigneAerienne-to-Terminal4" style="stroke:#A80036;stroke-width:1.0;"/><polygon fill="#A80036" points="628.47,133.9992,622.6263,126.0713,624.1244,131.5262,618.6695,133.0243,628.47,133.9992" style="stroke:#A80036;stroke-width:1.0;"/><!--MD5=[5cdc77fe8876af415b6cfd104ab96545]
link ServeurLigneAerienne to Terminal5--><path d="M566.94,74.2592 C626.65,90.4092 709.23,113.0992 781.5,134.1992 C785.59,135.3992 789.78,136.6292 794.01,137.8892 " fill="none" id="ServeurLigneAerienne-to-Terminal5" style="stroke:#A80036;stroke-width:1.0;"/><polygon fill="#A80036" points="798.98,139.3792,791.5002,132.972,794.1889,137.949,789.2119,140.6378,798.98,139.3792" style="stroke:#A80036;stroke-width:1.0;"/><!--MD5=[ecb572025f22d767bb29b615ce66424c]
@startuml terminaux
Title Contexte terminaux
component ServeurLigneAerienne
 component Terminal1 <<Systeme logiciel>>
  component Terminal2 <<Systeme logiciel>>
  component Terminal3 <<Systeme logiciel>>
  component Terminal4 <<Systeme logiciel>>
  component Terminal5 <<Systeme logiciel>>

ServeurLigneAerienne - -> Terminal1
ServeurLigneAerienne - -> Terminal2
ServeurLigneAerienne - -> Terminal3
ServeurLigneAerienne - -> Terminal4
ServeurLigneAerienne - -> Terminal5
@enduml

PlantUML version 1.2022.0(Tue Jan 11 11:16:42 EST 2022)
(GPL source distribution)
Java Runtime: OpenJDK Runtime Environment
JVM: OpenJDK 64-Bit Server VM
Default Encoding: UTF-8
Language: fr
Country: CA
--></g></svg>