<?xml version="1.0" encoding="UTF-8" standalone="no"?><svg xmlns="http://www.w3.org/2000/svg" xmlns:xlink="http://www.w3.org/1999/xlink" contentStyleType="text/css" height="512px" preserveAspectRatio="none" style="width:606px;height:512px;background:#FFFFFF;" version="1.1" viewBox="0 0 606 512" width="606px" zoomAndPan="magnify"><defs/><g><!--MD5=[40046ef14a1cf630dc5fb444525ef4ac]
entity AppClient--><g id="elem_AppClient"><ellipse cx="374.5" cy="439.5" fill="#F1F1F1" rx="8" ry="8" style="stroke:#181818;stroke-width:0.5;"/><path d="M374.5,447.5 L374.5,474.5 M361.5,455.5 L387.5,455.5 M374.5,474.5 L361.5,489.5 M374.5,474.5 L387.5,489.5 " fill="none" style="stroke:#181818;stroke-width:0.5;"/><text fill="#000000" font-family="sans-serif" font-size="14" lengthAdjust="spacing" textLength="73" x="338" y="503.9951">AppClient</text></g><!--MD5=[1a416c3156d55d9446032ebbee093b81]
entity DS--><g id="elem_DS"><rect fill="#F1F1F1" height="46.2969" rx="2.5" ry="2.5" style="stroke:#181818;stroke-width:0.5;" width="154" x="446.5" y="446"/><rect fill="#F1F1F1" height="10" style="stroke:#181818;stroke-width:0.5;" width="15" x="580.5" y="451"/><rect fill="#F1F1F1" height="2" style="stroke:#181818;stroke-width:0.5;" width="4" x="578.5" y="453"/><rect fill="#F1F1F1" height="2" style="stroke:#181818;stroke-width:0.5;" width="4" x="578.5" y="457"/><text fill="#000000" font-family="sans-serif" font-size="14" lengthAdjust="spacing" textLength="114" x="461.5" y="478.9951">DataWebServer</text></g><!--MD5=[0aac872f208ab6f5f7887aae079fb447]
entity c1--><g id="elem_c1"><rect fill="#F1F1F1" height="46.2969" rx="2.5" ry="2.5" style="stroke:#181818;stroke-width:0.5;" width="111" x="56" y="7"/><rect fill="#F1F1F1" height="10" style="stroke:#181818;stroke-width:0.5;" width="15" x="147" y="12"/><rect fill="#F1F1F1" height="2" style="stroke:#181818;stroke-width:0.5;" width="4" x="145" y="14"/><rect fill="#F1F1F1" height="2" style="stroke:#181818;stroke-width:0.5;" width="4" x="145" y="18"/><text fill="#000000" font-family="sans-serif" font-size="14" lengthAdjust="spacing" textLength="71" x="71" y="39.9951">Capteur 1</text></g><!--MD5=[3d2111c8a0a2d14b8769ddc11704380e]
entity c2--><g id="elem_c2"><rect fill="#F1F1F1" height="46.2969" rx="2.5" ry="2.5" style="stroke:#181818;stroke-width:0.5;" width="110" x="202.5" y="7"/><rect fill="#F1F1F1" height="10" style="stroke:#181818;stroke-width:0.5;" width="15" x="292.5" y="12"/><rect fill="#F1F1F1" height="2" style="stroke:#181818;stroke-width:0.5;" width="4" x="290.5" y="14"/><rect fill="#F1F1F1" height="2" style="stroke:#181818;stroke-width:0.5;" width="4" x="290.5" y="18"/><text fill="#000000" font-family="sans-serif" font-size="14" lengthAdjust="spacing" textLength="70" x="217.5" y="39.9951">Capteur 2</text></g><!--MD5=[6186517b0f979c270c1f201d839d1352]
entity c3--><g id="elem_c3"><rect fill="#F1F1F1" height="46.2969" rx="2.5" ry="2.5" style="stroke:#181818;stroke-width:0.5;" width="111" x="348" y="7"/><rect fill="#F1F1F1" height="10" style="stroke:#181818;stroke-width:0.5;" width="15" x="439" y="12"/><rect fill="#F1F1F1" height="2" style="stroke:#181818;stroke-width:0.5;" width="4" x="437" y="14"/><rect fill="#F1F1F1" height="2" style="stroke:#181818;stroke-width:0.5;" width="4" x="437" y="18"/><text fill="#000000" font-family="sans-serif" font-size="14" lengthAdjust="spacing" textLength="71" x="363" y="39.9951">Capteur 3</text></g><!--MD5=[0780ab315ad9a7886f8ff94304e1d4cd]
entity SW--><g id="elem_SW"><rect fill="#F1F1F1" height="46.2969" rx="2.5" ry="2.5" style="stroke:#181818;stroke-width:0.5;" width="88" x="213.5" y="113"/><rect fill="#F1F1F1" height="10" style="stroke:#181818;stroke-width:0.5;" width="15" x="281.5" y="118"/><rect fill="#F1F1F1" height="2" style="stroke:#181818;stroke-width:0.5;" width="4" x="279.5" y="120"/><rect fill="#F1F1F1" height="2" style="stroke:#181818;stroke-width:0.5;" width="4" x="279.5" y="124"/><text fill="#000000" font-family="sans-serif" font-size="14" lengthAdjust="spacing" textLength="48" x="228.5" y="145.9951">Switch</text></g><!--MD5=[1f0e52a1457a111061ef2aae8e5ec9c5]
entity s1--><g id="elem_s1"><rect fill="#F1F1F1" height="46.2969" rx="2.5" ry="2.5" style="stroke:#181818;stroke-width:0.5;" width="137" x="422" y="219"/><rect fill="#F1F1F1" height="10" style="stroke:#181818;stroke-width:0.5;" width="15" x="539" y="224"/><rect fill="#F1F1F1" height="2" style="stroke:#181818;stroke-width:0.5;" width="4" x="537" y="226"/><rect fill="#F1F1F1" height="2" style="stroke:#181818;stroke-width:0.5;" width="4" x="537" y="230"/><text fill="#000000" font-family="sans-serif" font-size="14" lengthAdjust="spacing" textLength="97" x="437" y="251.9951">Sommateur 1</text></g><!--MD5=[dc66687c89eac77dba91b7320324a287]
entity s2--><g id="elem_s2"><rect fill="#F1F1F1" height="46.2969" rx="2.5" ry="2.5" style="stroke:#181818;stroke-width:0.5;" width="136" x="250.5" y="219"/><rect fill="#F1F1F1" height="10" style="stroke:#181818;stroke-width:0.5;" width="15" x="366.5" y="224"/><rect fill="#F1F1F1" height="2" style="stroke:#181818;stroke-width:0.5;" width="4" x="364.5" y="226"/><rect fill="#F1F1F1" height="2" style="stroke:#181818;stroke-width:0.5;" width="4" x="364.5" y="230"/><text fill="#000000" font-family="sans-serif" font-size="14" lengthAdjust="spacing" textLength="96" x="265.5" y="251.9951">Sommateur 2</text></g><!--MD5=[b165ca7cce796f881c879adda4a6bef9]
entity s3--><g id="elem_s3"><rect fill="#F1F1F1" height="46.2969" rx="2.5" ry="2.5" style="stroke:#181818;stroke-width:0.5;" width="137" x="7" y="325"/><rect fill="#F1F1F1" height="10" style="stroke:#181818;stroke-width:0.5;" width="15" x="124" y="330"/><rect fill="#F1F1F1" height="2" style="stroke:#181818;stroke-width:0.5;" width="4" x="122" y="332"/><rect fill="#F1F1F1" height="2" style="stroke:#181818;stroke-width:0.5;" width="4" x="122" y="336"/><text fill="#000000" font-family="sans-serif" font-size="14" lengthAdjust="spacing" textLength="97" x="22" y="357.9951">Sommateur 3</text></g><!--MD5=[9c35c66068622dad62ecac52c54c307b]
entity V--><g id="elem_V"><rect fill="#F1F1F1" height="46.2969" rx="2.5" ry="2.5" style="stroke:#181818;stroke-width:0.5;" width="75" x="322" y="325"/><rect fill="#F1F1F1" height="10" style="stroke:#181818;stroke-width:0.5;" width="15" x="377" y="330"/><rect fill="#F1F1F1" height="2" style="stroke:#181818;stroke-width:0.5;" width="4" x="375" y="332"/><rect fill="#F1F1F1" height="2" style="stroke:#181818;stroke-width:0.5;" width="4" x="375" y="336"/><text fill="#000000" font-family="sans-serif" font-size="14" lengthAdjust="spacing" textLength="35" x="337" y="357.9951">Vote</text></g><!--MD5=[c72e14692f063a08d1023b5b76acc947]
entity M--><g id="elem_M"><rect fill="#F1F1F1" height="46.2969" rx="2.5" ry="2.5" style="stroke:#181818;stroke-width:0.5;" width="141" x="162" y="446"/><rect fill="#F1F1F1" height="10" style="stroke:#181818;stroke-width:0.5;" width="15" x="283" y="451"/><rect fill="#F1F1F1" height="2" style="stroke:#181818;stroke-width:0.5;" width="4" x="281" y="453"/><rect fill="#F1F1F1" height="2" style="stroke:#181818;stroke-width:0.5;" width="4" x="281" y="457"/><text fill="#000000" font-family="sans-serif" font-size="14" lengthAdjust="spacing" textLength="101" x="177" y="478.9951">Orchestrateur</text></g><!--MD5=[f2925d40111b8d667d7476ef36464495]
link c1 to SW--><g id="link_c1_SW"><path d="M142.463,53.056 C165.885,69.74 198.064,92.662 222.434,110.021 " fill="none" id="c1-to-SW" style="stroke:#181818;stroke-width:1.0;"/><polygon fill="#181818" points="226.582,112.976,221.5741,104.4954,222.5101,110.0743,216.9313,111.0104,226.582,112.976" style="stroke:#181818;stroke-width:1.0;"/></g><!--MD5=[25f28299f3a2c9ff387d97bb889275cf]
link c2 to SW--><g id="link_c2_SW"><path d="M257.5,53.056 C257.5,69.05 257.5,90.778 257.5,107.842 " fill="none" id="c2-to-SW" style="stroke:#181818;stroke-width:1.0;"/><polygon fill="#181818" points="257.5,112.976,261.5,103.976,257.5,107.976,253.5,103.976,257.5,112.976" style="stroke:#181818;stroke-width:1.0;"/></g><!--MD5=[5ddf2e5e497898f1c69992bcc0cc3d4c]
link c3 to SW--><g id="link_c3_SW"><path d="M372.537,53.056 C349.115,69.74 316.936,92.662 292.566,110.021 " fill="none" id="c3-to-SW" style="stroke:#181818;stroke-width:1.0;"/><polygon fill="#181818" points="288.418,112.976,298.0687,111.0104,292.4899,110.0743,293.4259,104.4954,288.418,112.976" style="stroke:#181818;stroke-width:1.0;"/></g><!--MD5=[4daf2a921f6ecc0c6e510d3f84366821]
link SW to s1--><g id="link_SW_s1"><path d="M301.599,156.684 C339.76,173.717 395.091,198.414 436.013,216.68 " fill="none" id="SW-to-s1" style="stroke:#181818;stroke-width:1.0;"/><polygon fill="#181818" points="440.93,218.874,434.3428,211.5522,436.3644,216.8355,431.0812,218.8571,440.93,218.874" style="stroke:#181818;stroke-width:1.0;"/></g><!--MD5=[fe879f2110101a97bd08d79ad3efaf6f]
link SW to s2--><g id="link_SW_s2"><path d="M270.437,159.056 C279.899,175.188 292.782,197.154 302.829,214.282 " fill="none" id="SW-to-s2" style="stroke:#181818;stroke-width:1.0;"/><polygon fill="#181818" points="305.582,218.976,304.4783,209.1892,303.0521,214.6633,297.578,213.237,305.582,218.976" style="stroke:#181818;stroke-width:1.0;"/></g><!--MD5=[ee92f2dd678bb16dc941ff665d4486d1]
link SW to s3--><g id="link_SW_s3"><path d="M231.963,159.294 C214.262,175.23 190.545,197.562 171.5,219 C141.905,252.314 111.704,294.138 93.278,320.726 " fill="none" id="SW-to-s3" style="stroke:#181818;stroke-width:1.0;"/><polygon fill="#181818" points="90.4236,324.858,98.8295,319.7257,93.265,320.7438,92.2469,315.1794,90.4236,324.858" style="stroke:#181818;stroke-width:1.0;"/></g><!--MD5=[9eaf1f4e48cfc4ff3b8de4cd29c0ce7c]
link s1 to V--><g id="link_s1_V"><path d="M462.718,265.056 C441.79,281.671 413.068,304.473 391.235,321.806 " fill="none" id="s1-to-V" style="stroke:#181818;stroke-width:1.0;"/><polygon fill="#181818" points="387.242,324.976,396.7779,322.5129,391.158,321.8672,391.8038,316.2473,387.242,324.976" style="stroke:#181818;stroke-width:1.0;"/></g><!--MD5=[d06a9f3bec2194518756193bbcd6f13d]
link s2 to V--><g id="link_s2_V"><path d="M327.195,265.056 C333.555,281.188 342.214,303.154 348.967,320.282 " fill="none" id="s2-to-V" style="stroke:#181818;stroke-width:1.0;"/><polygon fill="#181818" points="350.817,324.976,351.239,315.1362,348.984,320.3241,343.796,318.069,350.817,324.976" style="stroke:#181818;stroke-width:1.0;"/></g><!--MD5=[6d0ff964c083b79ebdc3f5486878f0a1]
link s3 to V--><g id="link_s3_V"><path d="M144.004,348 C201.475,348 258.945,348 316.416,348 " fill="none" id="s3-to-V" style="stroke:#181818;stroke-width:1.0;"/><polygon fill="#181818" points="321.62,348,312.62,344,316.62,348,312.62,352,321.62,348" style="stroke:#181818;stroke-width:1.0;"/></g><!--MD5=[0ce2de2dfef378e60df59281631c76b8]
link V to DS--><g id="link_V_DS"><path d="M389.963,371.104 C417.951,391.412 459.409,421.4951 488.693,442.7439 " fill="none" id="V-to-DS" style="stroke:#181818;stroke-width:1.0;"/><polygon fill="#181818" points="492.923,445.8127,487.9868,437.2902,488.8758,442.8767,483.2892,443.7657,492.923,445.8127" style="stroke:#181818;stroke-width:1.0;"/></g><!--MD5=[14f3cddff942a87b41f24cac496c1cdd]
reverse link s1 to M--><g id="link_s1_M"><path d="M479.668,270.096 C467.335,298.189 444.891,341.98 414.5,371 C393.719,390.843 327.457,423.9329 280.911,445.8592 " fill="none" id="s1-backto-M" style="stroke:#181818;stroke-width:1.0;stroke-dasharray:7.0,7.0;"/><polygon fill="#181818" points="481.706,265.384,474.4606,272.0551,479.7202,269.9728,481.8026,275.2324,481.706,265.384" style="stroke:#181818;stroke-width:1.0;"/></g><!--MD5=[647b73a75c3f3b1334bdf9de5c34af2f]
reverse link s2 to M--><g id="link_s2_M"><path d="M308.13,270.13 C290.95,315.079 256.904,404.151 241.026,445.6941 " fill="none" id="s2-backto-M" style="stroke:#181818;stroke-width:1.0;stroke-dasharray:7.0,7.0;"/><polygon fill="#181818" points="309.94,265.396,302.9894,272.3738,308.1542,270.0662,310.4617,275.231,309.94,265.396" style="stroke:#181818;stroke-width:1.0;"/></g><!--MD5=[602c29de312b248ab5e2280fc7bee017]
reverse link s3 to M--><g id="link_s3_M"><path d="M108.706,374.169 C136.709,395.394 176.399,425.4778 203.228,445.8127 " fill="none" id="s3-backto-M" style="stroke:#181818;stroke-width:1.0;stroke-dasharray:7.0,7.0;"/><polygon fill="#181818" points="104.6626,371.104,109.4188,379.7283,108.6473,374.1243,114.2513,373.3528,104.6626,371.104" style="stroke:#181818;stroke-width:1.0;"/></g><!--MD5=[23aa3ba8210a5c2c38707f87eecc7918]
reverse link SW to M--><g id="link_SW_M"><path d="M247.078,163.949 C241.537,179.728 235.304,200.19 232.5,219 C220.136,301.948 226.511,402.174 230.324,445.8551 " fill="none" id="SW-backto-M" style="stroke:#181818;stroke-width:1.0;stroke-dasharray:7.0,7.0;"/><polygon fill="#181818" points="248.771,159.21,241.9773,166.3406,247.0895,163.9188,249.5113,169.031,248.771,159.21" style="stroke:#181818;stroke-width:1.0;"/></g><!--MD5=[b2946a30cf1bbdc0d51300887f82d05b]
link V to M--><g id="link_V_M"><path d="M335.91,371.104 C314.482,391.182 282.857,420.8149 260.228,442.0186 " fill="none" id="V-to-M" style="stroke:#181818;stroke-width:1.0;stroke-dasharray:7.0,7.0;"/><polygon fill="#181818" points="256.395,445.6105,265.6975,442.3758,260.0437,442.1918,260.2277,436.538,256.395,445.6105" style="stroke:#181818;stroke-width:1.0;"/></g><!--MD5=[4b37aa5d680041328972f14c200d3bf3]
link AppClient to DS--><g id="link_AppClient_DS"><path d="M411.168,469 C421.132,469 431.097,469 441.061,469 " fill="none" id="AppClient-to-DS" style="stroke:#181818;stroke-width:1.0;stroke-dasharray:7.0,7.0;"/><polygon fill="#181818" points="446.272,469,437.272,465,441.272,469,437.272,473,446.272,469" style="stroke:#181818;stroke-width:1.0;"/></g><!--MD5=[3ed180c2db48b83170766ff56b9d29b3]
@startuml
Actor AppClient
[DataWebServer] as DS
[Capteur 1] as c1
[Capteur 2] as c2
[Capteur 3] as c3
[Switch] as SW
[Sommateur 1] as s1
[Sommateur 2] as s2
[Sommateur 3] as s3
[Vote] as V

c1 - -> SW
c2 - -> SW
c3 - -> SW
SW - -> s1
SW - -> s2
SW - -> s3
s1 - -> V
s2 - -> V
s3 -> V
V - -> DS
[Orchestrateur] as M
M .u.> s1
M .u.> s2
M .u.> s3
M .u.> SW
V ..> M
AppClient .r.> DS
@enduml

PlantUML version 1.2022.10beta2(Unknown compile time)
(GPL source distribution)
Java Runtime: Java(TM) SE Runtime Environment
JVM: Java HotSpot(TM) 64-Bit Server VM
Default Encoding: UTF-8
Language: en
Country: US
--></g></svg>